<svg width="208" height="94" viewBox="0 0 208 94" fill="none" xmlns="http://www.w3.org/2000/svg">
<path d="M90.4029 26.1247H71.3883V7.53394H22.3891V37.0768H9.32959V86.2219H58.3636V75.2349H90.4377V26.1247H90.4029ZM23.3294 8.47568H70.448V26.0898H41.4037V37.0768H23.3294V8.47568ZM42.344 56.679H57.3885V74.2931H42.344V56.679ZM42.344 55.7024V38.0185H57.3885V55.7024H42.344ZM23.3294 38.0534H41.4037V55.7373H23.3294V38.0534ZM42.344 37.0768V27.0664H70.448V55.7024H58.3636V37.0768H42.344ZM57.3885 85.2801H10.2699V38.0534H22.3543V56.679H41.3689V75.2697H57.3537V85.2801H57.3885ZM89.4626 74.2931H58.3288V56.679H71.3883V27.0664H89.4626V74.2931Z" fill="white"/>
<path d="M198.675 67.5962H188.715V68.5729H193.172V86.187H194.252V68.5729H198.71V67.5962H198.675ZM179.138 86.466C180.183 86.466 181.123 86.187 181.993 85.594C182.864 85.0359 183.561 84.2337 184.048 83.2571C184.536 82.2805 184.814 81.1992 184.814 80.0133V67.5962H183.735V79.9087C183.735 80.9202 183.526 81.8619 183.108 82.699C182.69 83.5361 182.133 84.2337 181.436 84.722C180.74 85.2103 179.974 85.4545 179.138 85.4545C178.302 85.4545 177.536 85.2103 176.839 84.722C176.143 84.2337 175.586 83.5361 175.203 82.699C174.785 81.8619 174.61 80.9202 174.61 79.9087V67.5962H173.531V80.0133C173.531 81.1992 173.775 82.2805 174.297 83.2571C174.785 84.2337 175.481 85.0011 176.352 85.594C177.153 86.187 178.093 86.466 179.138 86.466ZM169.561 67.5962H159.601V68.5729H164.058V86.187H165.138V68.5729H169.596V67.5962H169.561ZM154.412 86.2218H155.491V67.6311H154.412V86.2218ZM150.268 67.5962H140.308V68.5729H144.765V86.187H145.845V68.5729H150.302V67.5962H150.268ZM132.681 86.466C133.517 86.466 134.318 86.2916 135.084 85.9079C135.85 85.5591 136.442 85.0011 136.93 84.2686C137.417 83.5361 137.626 82.6293 137.626 81.6178C137.626 80.6411 137.417 79.8389 137.034 79.1762C136.651 78.5135 136.163 77.9903 135.571 77.6066C134.979 77.223 134.248 76.8044 133.308 76.3161C132.437 75.8627 131.775 75.479 131.253 75.1651C130.765 74.8512 130.313 74.3977 129.999 73.8745C129.651 73.3513 129.477 72.6886 129.477 71.9562C129.477 70.8051 129.79 69.9332 130.452 69.3053C131.114 68.6775 131.845 68.3636 132.716 68.3636C133.377 68.3636 134.004 68.538 134.561 68.8868C135.119 69.2356 135.571 69.689 135.92 70.2471L136.721 69.5844C136.303 68.9565 135.711 68.4333 135.014 68.0148C134.283 67.5962 133.517 67.387 132.716 67.387C131.984 67.387 131.288 67.5614 130.626 67.9102C129.964 68.2589 129.442 68.7473 128.989 69.4449C128.571 70.1424 128.362 70.9795 128.362 71.991C128.362 72.9677 128.571 73.7699 128.955 74.4326C129.338 75.0953 129.825 75.6185 130.382 76.0022C130.94 76.3858 131.706 76.8393 132.646 77.2927C133.517 77.7113 134.178 78.0949 134.701 78.4437C135.188 78.7576 135.641 79.2111 135.989 79.7343C136.337 80.2575 136.512 80.9202 136.512 81.6875C136.512 82.4549 136.337 83.1525 135.989 83.7105C135.641 84.2686 135.188 84.722 134.596 85.0011C134.004 85.315 133.377 85.4545 132.716 85.4545C131.741 85.4545 130.87 85.1755 130.104 84.5825C129.338 83.9896 128.815 83.292 128.537 82.3851L127.631 82.8734C127.979 83.8849 128.641 84.7569 129.547 85.4545C130.487 86.1172 131.532 86.466 132.681 86.466ZM122.129 67.6311V84.0593L111.82 67.6311H110.915V86.2218H111.995V69.7936L122.303 86.2218H123.208V67.6311H122.129ZM104.438 86.2218H105.517V67.6311H104.438V86.2218Z" fill="white"/>
<path d="M179.103 56.4697H186.207V55.4931H180.183V37.879H179.103V56.4697ZM176.178 56.4697L167.68 46.3547L175.795 37.879H174.367L166.636 46.0757V37.879H165.556V56.4697H166.636V46.7384L174.68 56.4697H176.178ZM159.113 37.879V54.3072L148.805 37.879H147.9V56.4697H148.979V40.0416L159.287 56.4697H160.193V37.879H159.113ZM133.517 51.3425L137.487 39.2044L141.492 51.3425H133.517ZM143.198 56.4697H144.417L138.114 37.879H136.895L130.626 56.4697H131.81L133.168 52.3191H141.805L143.198 56.4697ZM118.019 46.8779V38.8557H122.616C123.243 38.8557 123.87 39.03 124.427 39.3788C124.984 39.7276 125.437 40.2159 125.751 40.8438C126.064 41.4716 126.238 42.1343 126.238 42.8668C126.238 43.5993 126.064 44.262 125.751 44.8898C125.437 45.5176 124.984 46.0059 124.427 46.3547C123.87 46.7035 123.278 46.8779 122.616 46.8779H118.019ZM123.174 47.7848C123.94 47.715 124.636 47.4709 125.263 47.0174C125.89 46.564 126.377 45.971 126.761 45.2386C127.144 44.5061 127.318 43.7388 127.318 42.8668C127.318 41.9599 127.109 41.1228 126.691 40.3555C126.273 39.5881 125.716 38.9952 124.984 38.5417C124.288 38.0883 123.487 37.879 122.651 37.879H116.975V56.4697H118.054V47.8545H122.094L127.178 56.4697H128.397L123.174 47.7848ZM113.492 38.8905V37.9139H104.472V56.5046H105.552V47.715H112.517V46.7384H105.552V38.9254H113.492V38.8905Z" fill="white"/>
<path d="M173.601 17.1258V9.10349H178.198C178.824 9.10349 179.451 9.27789 180.008 9.62668C180.566 9.97548 181.018 10.4638 181.332 11.0916C181.645 11.7194 181.819 12.3822 181.819 13.1146C181.819 13.8471 181.645 14.5098 181.332 15.1376C181.018 15.7655 180.566 16.2538 180.008 16.6026C179.451 16.9514 178.859 17.1258 178.198 17.1258H173.601ZM178.72 18.0675C179.486 17.9977 180.183 17.7536 180.809 17.3002C181.436 16.8467 181.924 16.2538 182.307 15.5213C182.69 14.7888 182.864 14.0215 182.864 13.1495C182.864 12.2426 182.655 11.4055 182.237 10.6382C181.819 9.87084 181.262 9.27789 180.531 8.82446C179.834 8.37103 179.033 8.16175 178.198 8.16175H172.521V26.7525H173.601V18.1024H177.64L182.725 26.7176H183.944L178.72 18.0675ZM158.521 25.9502C157.093 25.9502 155.805 25.5666 154.621 24.7992C153.437 24.0319 152.496 23.0204 151.8 21.7298C151.103 20.4393 150.755 19.0092 150.755 17.4397C150.755 15.8701 151.103 14.4749 151.8 13.1495C152.496 11.859 153.437 10.8126 154.621 10.0801C155.805 9.31277 157.093 8.9291 158.521 8.9291C159.949 8.9291 161.238 9.31277 162.422 10.0801C163.606 10.8475 164.546 11.859 165.243 13.1495C165.939 14.44 166.287 15.8701 166.287 17.4397C166.287 19.0092 165.939 20.4044 165.243 21.7298C164.546 23.0204 163.606 24.0668 162.422 24.7992C161.238 25.5666 159.949 25.9502 158.521 25.9502ZM158.521 26.9617C160.123 26.9617 161.586 26.5432 162.944 25.6712C164.302 24.8341 165.382 23.6482 166.148 22.1833C166.914 20.7183 167.332 19.1139 167.332 17.3699C167.332 15.6259 166.949 14.0215 166.148 12.5566C165.347 11.0916 164.302 9.9406 162.944 9.06861C161.586 8.23151 160.123 7.77808 158.521 7.77808C156.919 7.77808 155.457 8.19663 154.098 9.06861C152.74 9.90572 151.695 11.0916 150.894 12.5566C150.094 14.0215 149.71 15.6259 149.71 17.3699C149.71 19.1139 150.094 20.7183 150.894 22.1833C151.695 23.6482 152.74 24.7992 154.098 25.6712C155.457 26.5432 156.919 26.9617 158.521 26.9617ZM147.273 8.09199H137.313V9.06861H141.735V26.6827H142.815V9.10349H147.273V8.09199ZM135.641 26.7176L127.144 16.6026L135.258 8.12687H133.83L126.099 16.3235V8.12687H125.019V26.7176H126.099V17.0211L134.144 26.7525H135.641V26.7176ZM118.611 26.7176H119.691V8.12687H118.611V26.7176ZM114.537 8.12687L108.86 25.2527L103.184 8.12687H102L108.303 26.7176H109.452L115.756 8.12687H114.537Z" fill="white"/>
</svg>
