<svg width="110" height="50" viewBox="0 0 110 50" fill="none" xmlns="http://www.w3.org/2000/svg">
<path d="M38.133 27.8359H33.2267V49.832H38.133V27.8359Z" fill="#465068"/>
<path d="M72.0017 27.8359V41.951L61.3659 27.8359H56.4596V49.832H61.3659V35.6901L72.0017 49.832H76.908V27.8359H72.0017Z" fill="#465068"/>
<path d="M81.1241 0.989258H75.4404L69.6332 9.22509V0.989258H64.7269V22.9853H69.6332V14.7494L75.4404 22.9853H81.1241L73.37 11.9873L81.1241 0.989258Z" fill="#465068"/>
<path d="M54.6953 32.2898V27.8359H44.8071H39.8998V32.2898V36.6065V41.0604V45.3781V49.832H44.8071H54.6953V45.3781H44.8071V41.0604H51.7092V36.6065H44.8071V32.2898H54.6953Z" fill="#465068"/>
<path d="M110.001 32.2898V27.8359H100.113H95.2063V32.2898V36.6065V41.0604V45.3781V49.832H100.113H110.001V45.3781H100.113V41.0604H107.015V36.6065H100.113V32.2898H110.001Z" fill="#465068"/>
<path d="M23.2305 18.5085V0.989258H18.3242V18.5085V22.9853H23.2305H29.7892V18.5085H23.2305Z" fill="#465068"/>
<path d="M43.8122 22.9853H48.7185L43.0975 0.989258H35.8311L30.2211 22.9853H35.1274L36.5617 17.3685H42.3778L43.8122 22.9853ZM37.7045 12.8918L39.4703 5.98085L41.2351 12.8918H37.7045Z" fill="#465068"/>
<path d="M14.7966 11.9854C14.9777 11.8323 16.6619 10.3245 16.6619 7.22637C16.6619 4.03978 14.1993 2.36995 13.3522 1.87795C12.542 1.40781 11.232 0.983398 9.4901 0.983398H0V22.9834H9.4901C11.232 22.9834 12.542 22.563 13.3522 22.0888C14.1993 21.5919 16.6619 19.927 16.6619 16.7404C16.6619 13.6463 14.9777 12.1385 14.7966 11.9854ZM11.7636 16.3587C11.7636 16.9279 11.5372 17.4737 11.1341 17.8761C10.7311 18.2786 10.1845 18.5047 9.61453 18.5047H4.90631V14.2237V14.2148H9.61453C10.1845 14.2148 10.7311 14.4409 11.1341 14.8433C11.5372 15.2458 11.7636 15.7916 11.7636 16.3607V16.3587ZM9.61453 9.75596H4.90631V5.46013H9.61453C9.90057 5.45398 10.185 5.50493 10.451 5.60999C10.7171 5.71504 10.9595 5.87209 11.164 6.07192C11.3684 6.27175 11.5309 6.51034 11.6418 6.77369C11.7527 7.03705 11.8098 7.31987 11.8098 7.60556C11.8098 7.89126 11.7527 8.17407 11.6418 8.43743C11.5309 8.70078 11.3684 8.93937 11.164 9.1392C10.9595 9.33903 10.7171 9.49608 10.451 9.60114C10.185 9.70619 9.90057 9.75714 9.61453 9.75099V9.75596Z" fill="#465068"/>
<path d="M59.6267 18.5165C56.0044 18.5165 52.5763 15.5844 52.5763 11.9674C52.5763 8.35141 56.0044 5.41927 59.6267 5.41927H63.0648V0.989258H59.2424C53.1616 0.989258 47.7386 5.91326 47.7386 11.9873C47.7386 18.0613 53.1616 22.9853 59.2444 22.9853H63.0667V18.5125L59.6267 18.5165Z" fill="#465068"/>
<path d="M28.019 45.3632C24.3967 45.3632 20.9686 42.431 20.9686 38.8141C20.9686 35.1971 24.3967 32.266 28.019 32.266H31.4531V27.8359H27.6308C21.5479 27.8359 16.125 32.7599 16.125 38.8339C16.125 44.9079 21.5479 49.832 27.6308 49.832H31.4531V45.3592L28.019 45.3632Z" fill="#465068"/>
<path d="M90.0008 45.3632C86.3796 45.3632 82.9505 42.431 82.9505 38.8141C82.9505 35.1971 86.3796 32.266 90.0008 32.266H93.4399V27.8359H89.6176C83.5347 27.8359 78.1108 32.7599 78.1108 38.8339C78.1108 44.9079 83.5347 49.832 89.6176 49.832H93.4399V45.3592L90.0008 45.3632Z" fill="#465068"/>
<path d="M11.673 37.478C9.81958 36.7554 9.27012 36.7981 8.54647 36.6977C7.82282 36.5973 5.75239 36.5526 5.16212 35.2227C4.57185 33.8928 5.33234 32.3264 7.65061 32.3264H15.2296V27.8486H7.64663C6.5935 27.8486 5.35722 27.8963 3.97163 28.5146C2.35013 29.2372 0.0895857 31.405 0.0895857 34.1522C0.0895857 36.8995 1.68222 39.122 3.88205 40.1159C6.08187 41.1099 8.82717 41.0522 9.67127 41.5373C10.5154 42.0223 10.6607 42.8791 10.6607 43.2737C10.6607 43.6683 10.3203 45.356 8.68085 45.356C7.04143 45.356 5.91066 45.3669 5.91066 45.3669H0V49.8397H7.3072C8.865 49.8397 10.5054 49.7989 12.1747 48.8567C13.844 47.9144 15.568 46.1343 15.568 43.2906C15.568 40.4469 13.5264 38.2006 11.673 37.478Z" fill="#465068"/>
</svg>
