<svg width="768" height="559" viewBox="0 0 768 559" fill="none" xmlns="http://www.w3.org/2000/svg">
<rect width="49.3293" height="49.3293" transform="matrix(1 0 0 -1 718.673 410.919)" fill="#F92F43"/>
<rect width="49.3293" height="49.3293" transform="matrix(1 0 0 -1 512.939 558.987)" fill="#465068"/>
<rect width="49.3293" height="49.3293" transform="matrix(1 0 0 -1 97.9863 558.894)" fill="#F92F43"/>
<rect width="49.3293" height="49.3293" transform="matrix(1 0 0 -1 48.9863 558.894)" fill="#465068"/>
<rect width="49.3293" height="49.3293" transform="matrix(1 0 0 -1 365.033 559)" fill="#465068"/>
<rect width="49.3293" height="49.3293" transform="matrix(1 0 0 -1 718.673 49.3293)" fill="#465068"/>
<rect width="49.3293" height="49.3293" transform="matrix(1 0 0 -1 718.673 558.987)" fill="#465068"/>
<rect width="49.3293" height="49.3293" transform="matrix(1 0 0 -1 669.381 361.563)" fill="#465068"/>
<rect width="49.3293" height="49.3293" transform="matrix(1 0 0 -1 463.639 509.631)" fill="#F92F43"/>
<rect width="49.3293" height="49.3293" transform="matrix(1 0 0 -1 669.381 509.631)" fill="#465068"/>
<rect width="49.3293" height="49.3293" transform="matrix(1 0 0 -1 0 508.84)" fill="white"/>
<rect width="49.3293" height="49.3293" transform="matrix(1 0 0 -1 414.334 509.631)" fill="white"/>
<rect width="49.3293" height="49.3293" transform="matrix(1 0 0 -1 669.381 98.6986)" fill="white"/>
<rect width="49.3293" height="49.3293" transform="matrix(1 0 0 -1 718.673 460.275)" fill="white"/>
<rect width="49.3293" height="49.3293" transform="matrix(1 0 0 -1 669.381 558.987)" fill="white"/>
<rect width="49.3293" height="49.3293" transform="matrix(1 0 0 -1 463.639 558.987)" fill="white"/>
</svg>
