<svg width="694" height="590" viewBox="0 0 694 590" fill="none" xmlns="http://www.w3.org/2000/svg">
<rect width="52" height="52" transform="matrix(1 0 0 -1 642 434)" fill="#F92F43"/>
<rect width="52" height="52" transform="matrix(1 0 0 -1 425 590)" fill="#465068"/>
<rect width="52" height="52" transform="matrix(1 0 0 -1 104 590)" fill="#F92F43"/>
<rect width="52" height="52" transform="matrix(1 0 0 -1 0 538)" fill="#465068"/>
<rect width="52" height="52" transform="matrix(1 0 0 -1 269 590)" fill="#465068"/>
<rect width="52" height="52" transform="matrix(1 0 0 -1 642 52)" fill="#465068"/>
<rect width="52" height="52" transform="matrix(1 0 0 -1 642 590)" fill="#465068"/>
<rect width="52" height="52" transform="matrix(1 0 0 -1 590 382)" fill="#465068"/>
<rect width="52" height="52" transform="matrix(1 0 0 -1 373 538)" fill="#F92F43"/>
<rect width="52" height="52" transform="matrix(1 0 0 -1 590 538)" fill="#465068"/>
<rect width="52" height="52" transform="matrix(1 0 0 -1 52 590)" fill="white"/>
<rect width="52" height="52" transform="matrix(1 0 0 -1 321 538)" fill="white"/>
<rect width="52" height="52" transform="matrix(1 0 0 -1 590 104)" fill="white"/>
<rect width="52" height="52" transform="matrix(1 0 0 -1 642 486)" fill="white"/>
<rect width="52" height="52" transform="matrix(1 0 0 -1 590 590)" fill="white"/>
<rect width="52" height="52" transform="matrix(1 0 0 -1 373 590)" fill="white"/>
</svg>
