<svg width="128" height="27" viewBox="0 0 128 27" fill="none" xmlns="http://www.w3.org/2000/svg">
<path fill-rule="evenodd" clip-rule="evenodd" d="M35.7891 2.42787L33.5555 3.86906L33.5547 4.67952L33.5538 5.48998H36.4843H39.4148V3.23718V0.984375L38.7188 0.985529L38.0228 0.986683L35.7891 2.42787ZM51.1855 7.71037V8.99667L50.7581 9.03189C48.6773 9.20337 47.0565 9.99686 45.7595 11.4789C44.8996 12.4615 44.3036 13.7285 44.0216 15.1733C43.8946 15.8244 43.8946 17.7386 44.0216 18.3897C44.3145 19.8903 44.9059 21.1222 45.8357 22.1682C47.1079 23.5995 48.686 24.3577 50.7581 24.5332L51.1855 24.5694V25.6893V26.8092H52.9926H54.7997V25.6893V24.5695L55.2759 24.5307C55.9922 24.4724 56.7686 24.31 57.3438 24.098C59.8118 23.1885 61.5625 20.9691 62.0102 18.1826C62.1239 17.475 62.1239 16.088 62.0102 15.3803C61.6352 13.0461 60.3037 11.0376 58.4272 9.97543C57.4286 9.41025 56.5085 9.13832 55.2271 9.02974L54.7997 8.99353V7.70883V6.42407H52.9926H51.1855V7.71037ZM119.71 7.08953C118.918 7.13332 117.247 7.27322 116.742 7.33794L116.486 7.3708V16.8427V26.3147H118.366H120.247V23.0669V19.8191L120.361 19.8513C120.619 19.9242 121.913 20.0016 122.322 19.9686C124.015 19.8323 125.303 19.2318 126.358 18.0873C127.312 17.0534 127.824 15.8132 127.971 14.1867C128.115 12.5909 127.716 10.7964 126.97 9.68745C125.953 8.17379 124.241 7.2764 122.005 7.08513C121.276 7.02282 120.902 7.02354 119.71 7.08953ZM2.38081 12.1248C2.36073 17.3979 2.35228 17.5916 2.07399 19.1528C1.91662 20.0355 1.74905 20.625 1.47495 21.2596C1.29043 21.6868 1.17814 21.8622 0.856722 22.2251C0.62331 22.4888 0.369874 22.7173 0.231995 22.7886L0 22.9086V24.9465V26.9844L0.256416 26.9485C0.397469 26.9288 0.743605 26.8494 1.02566 26.7722C3.27045 26.1573 4.75107 24.2877 5.45023 21.1851C5.88393 19.2604 6.0057 17.5185 6.00677 13.2228L6.00745 10.5981L7.21627 10.6128L8.42509 10.6275L8.43744 18.4711L8.44985 26.3147H10.3056H12.1614V16.7815V7.24827H7.2804H2.39937L2.38081 12.1248ZM18.6363 7.5363C18.5963 7.6952 17.5839 11.9421 16.3867 16.9738C15.1894 22.0055 14.198 26.1656 14.1836 26.2185C14.1589 26.309 14.2705 26.3147 16.0593 26.3147H17.9614L18.2872 24.8449C18.4664 24.0365 18.6349 23.2821 18.6616 23.1686L18.7101 22.9621L21.5986 22.9763L24.4871 22.9904L24.8568 24.6388L25.2264 26.2872L27.123 26.3016L29.0196 26.316L28.9888 26.1642C28.9719 26.0808 27.9532 21.7967 26.7251 16.6441L24.4922 7.27574L21.6007 7.26157L18.7091 7.24739L18.6363 7.5363ZM31.0629 16.7815V26.3147L32.052 26.3128L33.041 26.311L35.0383 23.6204L37.0356 20.9299H37.346H37.6565V23.6223V26.3147H39.5124H41.3684V16.7815V7.24827H39.5124H37.6565L37.6561 11.0808L37.6558 14.9133L36.4085 16.7403L35.1612 18.5672H34.8632H34.5652L34.5998 17.3172C34.6189 16.6297 34.6548 15.449 34.6796 14.6935C34.7044 13.938 34.7396 11.9537 34.7577 10.2841L34.7907 7.24827H32.9268H31.0629V16.7815ZM64.0307 9.86466V12.4811L65.0685 14.4098C65.6394 15.4706 66.1137 16.3714 66.1227 16.4115C66.1316 16.4517 65.5986 17.5046 64.9383 18.7514L63.7376 21.0182V23.6678V26.3173L64.5516 26.3023L65.3655 26.2872L66.6789 23.5124C67.4013 21.9863 68.0245 20.682 68.0639 20.614C68.1259 20.507 68.1778 20.4904 68.449 20.4904C68.6372 20.4904 68.7783 20.5166 68.802 20.5559C68.8237 20.592 69.4479 21.8963 70.1891 23.4543L71.5367 26.2872L72.3503 26.3023L73.1639 26.3173V23.6707V21.0241L71.9673 18.7623C71.3092 17.5184 70.7707 16.4738 70.7707 16.4411C70.7707 16.4085 71.2433 15.5044 71.8208 14.4321L72.8709 12.4824V9.86531V7.24827H72.071C71.4898 7.24827 71.2577 7.26706 71.2221 7.31695C71.1466 7.42283 69.7874 10.2315 69.2677 11.3555L68.8041 12.3583H68.4447H68.0852L67.7887 11.6928C67.4731 10.9846 65.7606 7.43256 65.679 7.31695C65.6437 7.26701 65.412 7.24827 64.8306 7.24827H64.0307V9.86466ZM79.0003 7.31651C78.9716 7.40729 74.4827 26.2624 74.4827 26.2919C74.4827 26.3045 75.3347 26.3147 76.3761 26.3147H78.2694L78.6375 24.6526L79.0056 22.9904L81.8949 22.9763L84.7842 22.9621L84.8327 23.1686C84.8593 23.2821 85.0278 24.0364 85.207 24.8449L85.5329 26.3147H87.4326H89.3322L89.2988 26.1636C89.2804 26.0805 88.2611 21.7967 87.0335 16.6441L84.8018 7.27574L81.9119 7.26157C79.6254 7.25036 79.0175 7.26184 79.0003 7.31651ZM91.3328 16.7815V26.3147H93.1888H95.0448V23.2102V20.1057H95.3571C95.6501 20.1057 95.6783 20.1171 95.8089 20.2874C95.8856 20.3874 96.8709 21.7845 97.9984 23.3919L100.048 26.3147H100.819H101.589V24.0805V21.8463L101.31 21.4293C101.156 21.2 100.62 20.3885 100.118 19.6261L99.2061 18.2398L99.6707 16.6589C99.9262 15.7895 100.602 13.3226 101.173 11.1769L102.211 7.27574L100.325 7.26135C99.2881 7.25344 98.4169 7.25668 98.3894 7.26855C98.3618 7.28047 97.7794 9.38206 97.095 11.9388L95.8506 16.5873L95.4477 16.5882L95.0448 16.5892V11.9187V7.24827H93.1888H91.3328V16.7815ZM105.008 16.7815V26.3147H109.184H113.36V24.3916V22.4684H111.04H108.72V21.0398V19.6112H110.527H112.334V17.798V15.9848H110.527H108.72V13.5396V11.0945H110.894H113.067V9.1714V7.24827H109.038H105.008V16.7815ZM122.603 10.9968C123.495 11.3288 123.99 11.9408 124.179 12.9443C124.432 14.2867 123.951 15.5216 122.962 16.0693C122.456 16.3495 122.006 16.4407 121.297 16.407C120.974 16.3917 120.612 16.345 120.491 16.3032L120.271 16.2272L120.258 13.5922C120.251 12.1429 120.257 10.9237 120.271 10.8828C120.292 10.8225 120.48 10.8129 121.261 10.8322C122.131 10.8537 122.262 10.8697 122.603 10.9968ZM22.7743 15.3666C23.2502 17.5349 23.6395 19.34 23.6393 19.3777C23.6391 19.4315 23.1961 19.4464 21.5878 19.4464C20.4595 19.4464 19.5364 19.431 19.5364 19.4123C19.5364 19.3743 21.1859 11.6729 21.2267 11.5204C21.2479 11.4412 21.3104 11.4242 21.5808 11.4242H21.9091L22.7743 15.3666ZM83.0747 15.312C83.5426 17.4499 83.9353 19.2547 83.9473 19.3228L83.9692 19.4464H81.9122C80.5371 19.4464 79.8552 19.4276 79.8552 19.39C79.8552 19.335 81.5 11.6298 81.541 11.4929C81.5547 11.4469 81.6711 11.4243 81.8928 11.4245L82.224 11.4249L83.0747 15.312ZM51.1855 16.7815V21.2047H51.0003C50.5319 21.2047 49.6895 20.8184 49.1419 20.3524C48.097 19.4634 47.5302 17.8943 47.6733 16.287C47.8133 14.7137 48.58 13.4409 49.7935 12.7673C50.2776 12.4985 50.6607 12.3674 50.9779 12.3619L51.1855 12.3583V16.7815ZM55.696 12.5259C56.9691 13.0036 57.8641 14.0819 58.2251 15.5727C58.3107 15.9265 58.3315 16.1623 58.3315 16.7815C58.3315 17.6384 58.2432 18.1305 57.9726 18.7811C57.438 20.0663 56.2206 21.0897 55.105 21.1918L54.7997 21.2197V16.789V12.3583H55.0245C55.1481 12.3583 55.4503 12.4337 55.696 12.5259Z" fill="#465068"/>
</svg>
