<svg width="187" height="25" viewBox="0 0 187 25" fill="none" xmlns="http://www.w3.org/2000/svg">
<path d="M64.6007 14.4606V6.77539H62.1585V14.4606C62.1585 15.3837 61.9926 16.0645 61.6607 16.503C61.3289 16.93 60.7274 17.1434 59.8563 17.1434C59.3586 17.1434 58.9593 17.0684 58.6586 16.9184C58.3682 16.7569 58.1401 16.5549 57.9742 16.3126C57.8082 16.0588 57.6994 15.7703 57.6475 15.4472C57.5957 15.1241 57.5697 14.7952 57.5697 14.4606V6.77539H55.1276V14.4606C55.1276 16.1453 55.5372 17.3915 56.3564 18.1993C57.186 19.007 58.3527 19.4109 59.8563 19.4109C61.3393 19.4109 62.5007 19.007 63.3407 18.1993C64.1807 17.38 64.6007 16.1338 64.6007 14.4606ZM66.066 6.77539V19.134H68.2748V6.77539H66.066ZM72.3474 10.1853V7.50237H70.1385V10.1853H68.8008V11.8296H70.1385V17.1088C70.1385 17.5589 70.2059 17.9224 70.3408 18.1993C70.4756 18.4762 70.657 18.6897 70.8852 18.8397C71.1237 18.9897 71.3933 19.0878 71.6941 19.134C72.0052 19.1917 72.3318 19.2205 72.674 19.2205C72.8918 19.2205 73.1148 19.2148 73.3429 19.2032C73.5711 19.1917 73.7785 19.1686 73.9651 19.134V17.23C73.8614 17.2531 73.7525 17.2704 73.6385 17.2819C73.5244 17.2935 73.4051 17.2992 73.2807 17.2992C72.9074 17.2992 72.6585 17.23 72.534 17.0915C72.4096 16.9531 72.3474 16.6761 72.3474 16.2607V11.8296H73.9651V10.1853H72.3474ZM76.8204 8.80054V6.77539H74.6116V8.80054H76.8204ZM74.6116 10.1853V19.134H76.8204V10.1853H74.6116ZM78.1553 10.1853V19.134H80.3641V13.9413C80.3641 13.5028 80.4211 13.1509 80.5352 12.8854C80.6493 12.6085 80.7841 12.4008 80.9397 12.2623C81.1056 12.1123 81.2715 12.0142 81.4374 11.9681C81.6137 11.9104 81.7537 11.8815 81.8574 11.8815C82.21 11.8815 82.4744 11.9508 82.6507 12.0892C82.8374 12.2162 82.967 12.3893 83.0396 12.6085C83.1226 12.8278 83.1692 13.0701 83.1796 13.3355C83.19 13.5893 83.1952 13.849 83.1952 14.1144V19.134H85.404V14.149C85.404 13.8721 85.4195 13.6009 85.4507 13.3355C85.4921 13.0585 85.5647 12.8162 85.6684 12.6085C85.7825 12.3893 85.9329 12.2162 86.1195 12.0892C86.3166 11.9508 86.5706 11.8815 86.8817 11.8815C87.1928 11.8815 87.4365 11.9392 87.6128 12.0546C87.7995 12.17 87.9395 12.3258 88.0328 12.522C88.1262 12.7181 88.1832 12.9489 88.2039 13.2143C88.2247 13.4797 88.235 13.7624 88.235 14.0625V19.134H90.4439V13.1451C90.4439 12.5681 90.3713 12.0777 90.2261 11.6738C90.0809 11.2584 89.8787 10.9238 89.6195 10.6699C89.3602 10.416 89.0491 10.2314 88.6861 10.116C88.3232 10.0006 87.9291 9.94293 87.5039 9.94293C86.944 9.94293 86.4566 10.0929 86.0418 10.393C85.6373 10.693 85.3158 11.0392 85.0773 11.4315C84.8596 10.8776 84.5381 10.491 84.1129 10.2718C83.6981 10.0526 83.2366 9.94293 82.7285 9.94293C82.1996 9.94293 81.7278 10.0699 81.313 10.3237C80.9085 10.5776 80.5611 10.9353 80.2708 11.3969H80.2397V10.1853H78.1553ZM91.63 12.9374C91.6611 12.3604 91.7907 11.8815 92.0189 11.5007C92.247 11.1199 92.5374 10.8141 92.89 10.5834C93.2426 10.3526 93.6366 10.191 94.0722 10.0987C94.5181 9.99485 94.964 9.94293 95.4099 9.94293C95.8144 9.94293 96.224 9.97755 96.6388 10.0468C97.0536 10.1045 97.4321 10.2256 97.7743 10.4103C98.1165 10.5949 98.3965 10.8545 98.6143 11.1892C98.8321 11.5123 98.941 11.945 98.941 12.4873V17.1434C98.941 17.5473 98.9617 17.9339 99.0032 18.3031C99.0447 18.6724 99.1172 18.9493 99.221 19.134H96.981C96.9395 18.9955 96.9032 18.857 96.8721 18.7186C96.8514 18.5686 96.8358 18.4185 96.8254 18.2685C96.4729 18.6724 96.0581 18.9551 95.581 19.1167C95.104 19.2782 94.6166 19.359 94.1188 19.359C93.7351 19.359 93.3774 19.3071 93.0455 19.2032C92.7137 19.0994 92.4233 18.9378 92.1744 18.7186C91.9256 18.4993 91.7285 18.2224 91.5833 17.8877C91.4485 17.5531 91.3811 17.155 91.3811 16.6934C91.3811 16.1857 91.4589 15.7703 91.6145 15.4472C91.7804 15.1125 91.9878 14.8471 92.2367 14.651C92.4959 14.4548 92.7863 14.3106 93.1078 14.2182C93.4396 14.1144 93.7714 14.0336 94.1033 13.9759C94.4351 13.9182 94.7618 13.8721 95.0833 13.8374C95.4047 13.8028 95.6899 13.7509 95.9388 13.6817C96.1877 13.6124 96.3847 13.5143 96.5299 13.3874C96.6751 13.2489 96.7425 13.0528 96.7321 12.7989C96.7321 12.5335 96.6906 12.3258 96.6077 12.1758C96.5351 12.0142 96.4314 11.8931 96.2966 11.8123C96.1721 11.72 96.0218 11.6623 95.8455 11.6392C95.6796 11.6046 95.4981 11.5873 95.301 11.5873C94.8655 11.5873 94.5233 11.6911 94.2744 11.8988C94.0255 12.1065 93.8803 12.4527 93.8388 12.9374H91.63ZM96.7321 14.7548C96.6388 14.8471 96.5195 14.9221 96.3743 14.9798C96.2395 15.026 96.0892 15.0664 95.9232 15.101C95.7677 15.1356 95.6018 15.1645 95.4255 15.1875C95.2492 15.2106 95.0729 15.2395 94.8966 15.2741C94.7307 15.3087 94.5648 15.3549 94.3988 15.4126C94.2433 15.4703 94.1033 15.551 93.9789 15.6549C93.8648 15.7472 93.7714 15.8684 93.6989 16.0184C93.6263 16.1684 93.59 16.3588 93.59 16.5896C93.59 16.8088 93.6263 16.9934 93.6989 17.1434C93.7714 17.2935 93.87 17.4146 93.9944 17.5069C94.1188 17.5877 94.264 17.6454 94.4299 17.68C94.5959 17.7146 94.767 17.732 94.9433 17.732C95.3788 17.732 95.7158 17.6512 95.9544 17.4896C96.1929 17.3281 96.3692 17.1377 96.4832 16.9184C96.5973 16.6876 96.6647 16.4569 96.6855 16.2261C96.7166 15.9953 96.7321 15.8107 96.7321 15.6722V14.7548ZM102.989 10.1853V7.50237H100.78V10.1853H99.4422V11.8296H100.78V17.1088C100.78 17.5589 100.847 17.9224 100.982 18.1993C101.117 18.4762 101.299 18.6897 101.527 18.8397C101.765 18.9897 102.035 19.0878 102.336 19.134C102.647 19.1917 102.973 19.2205 103.315 19.2205C103.533 19.2205 103.756 19.2148 103.984 19.2032C104.213 19.1917 104.42 19.1686 104.607 19.134V17.23C104.503 17.2531 104.394 17.2704 104.28 17.2819C104.166 17.2935 104.047 17.2992 103.922 17.2992C103.549 17.2992 103.3 17.23 103.175 17.0915C103.051 16.9531 102.989 16.6761 102.989 16.2607V11.8296H104.607V10.1853H102.989ZM110.604 13.699H107.011C107.021 13.5259 107.052 13.3297 107.104 13.1105C107.166 12.8912 107.265 12.6835 107.4 12.4873C107.545 12.2912 107.732 12.1296 107.96 12.0027C108.198 11.8642 108.494 11.795 108.846 11.795C109.386 11.795 109.785 11.9565 110.044 12.2796C110.314 12.6027 110.5 13.0758 110.604 13.699ZM107.011 15.2568H112.813C112.854 14.5644 112.803 13.9009 112.657 13.2662C112.512 12.6316 112.274 12.0662 111.942 11.57C111.62 11.0738 111.205 10.6814 110.697 10.393C110.189 10.0929 109.593 9.94293 108.909 9.94293C108.297 9.94293 107.737 10.0641 107.229 10.3064C106.731 10.5487 106.3 10.8834 105.937 11.3103C105.575 11.7257 105.295 12.2219 105.097 12.7989C104.9 13.3759 104.802 13.999 104.802 14.6683C104.802 15.3606 104.895 15.9953 105.082 16.5723C105.279 17.1492 105.554 17.6454 105.906 18.0608C106.259 18.4762 106.689 18.7993 107.197 19.0301C107.706 19.2494 108.276 19.359 108.909 19.359C109.821 19.359 110.599 19.1282 111.242 18.6666C111.885 18.2051 112.362 17.4377 112.673 16.3645H110.728C110.656 16.6415 110.459 16.9069 110.137 17.1608C109.816 17.4031 109.432 17.5242 108.986 17.5242C108.364 17.5242 107.887 17.3454 107.555 16.9877C107.223 16.6299 107.042 16.053 107.011 15.2568ZM117.752 6.77539V19.134H126.183V16.8492H120.194V13.8201H125.576V11.7084H120.194V9.06017H126.059V6.77539H117.752ZM132.848 14.6337C132.848 15.0029 132.816 15.3606 132.754 15.7068C132.692 16.053 132.588 16.3645 132.443 16.6415C132.298 16.9069 132.101 17.1204 131.852 17.2819C131.614 17.4435 131.313 17.5242 130.95 17.5242C130.608 17.5242 130.312 17.4435 130.063 17.2819C129.825 17.1088 129.622 16.8896 129.457 16.6242C129.301 16.3472 129.187 16.0357 129.114 15.6895C129.042 15.3433 129.005 14.9971 129.005 14.651C129.005 14.2817 129.037 13.9298 129.099 13.5951C129.171 13.2489 129.28 12.9431 129.425 12.6777C129.581 12.4123 129.783 12.1989 130.032 12.0373C130.281 11.8758 130.587 11.795 130.95 11.795C131.313 11.795 131.614 11.8758 131.852 12.0373C132.091 12.1989 132.282 12.4123 132.428 12.6777C132.583 12.9316 132.692 13.2316 132.754 13.5778C132.816 13.9124 132.848 14.2644 132.848 14.6337ZM132.879 17.9916V19.134H134.979V6.77539H132.77V11.2757H132.739C132.49 10.8372 132.148 10.5084 131.712 10.2891C131.287 10.0583 130.836 9.94293 130.359 9.94293C129.768 9.94293 129.249 10.0756 128.803 10.341C128.357 10.5949 127.984 10.9353 127.683 11.3623C127.393 11.7892 127.17 12.2854 127.014 12.8508C126.869 13.4047 126.797 13.9817 126.797 14.5817C126.797 15.2048 126.869 15.8049 127.014 16.3819C127.17 16.9588 127.393 17.4723 127.683 17.9224C127.984 18.3608 128.362 18.7128 128.819 18.9782C129.275 19.2321 129.804 19.359 130.405 19.359C130.934 19.359 131.406 19.2551 131.821 19.0474C132.246 18.8282 132.588 18.4762 132.848 17.9916H132.879ZM143.726 19.134V10.1853H141.517V14.876C141.517 15.7876 141.382 16.4453 141.113 16.8492C140.843 17.2415 140.407 17.4377 139.806 17.4377C139.277 17.4377 138.909 17.2588 138.701 16.9011C138.494 16.5319 138.39 15.978 138.39 15.2395V10.1853H136.182V15.6895C136.182 16.2434 136.223 16.7511 136.306 17.2127C136.399 17.6627 136.555 18.0493 136.773 18.3724C136.99 18.6839 137.286 18.9263 137.659 19.0994C138.043 19.2724 138.53 19.359 139.121 19.359C139.588 19.359 140.044 19.2436 140.49 19.0128C140.936 18.782 141.299 18.407 141.579 17.8877H141.626V19.134H143.726ZM150.411 13.3355H152.573C152.542 12.7585 152.418 12.2623 152.2 11.8469C151.982 11.42 151.697 11.068 151.344 10.7911C151.002 10.5026 150.608 10.2891 150.162 10.1506C149.727 10.0122 149.27 9.94293 148.793 9.94293C148.14 9.94293 147.559 10.0641 147.051 10.3064C146.543 10.5487 146.113 10.8892 145.76 11.3276C145.407 11.7546 145.138 12.2681 144.951 12.8681C144.775 13.4566 144.687 14.0971 144.687 14.7894C144.687 15.4587 144.785 16.0761 144.982 16.6415C145.179 17.1954 145.454 17.6743 145.807 18.0781C146.159 18.482 146.584 18.7993 147.082 19.0301C147.59 19.2494 148.145 19.359 148.747 19.359C149.815 19.359 150.691 19.0474 151.375 18.4243C152.06 17.8012 152.475 16.8954 152.62 15.7068H150.489C150.416 16.2607 150.235 16.705 149.944 17.0396C149.664 17.3627 149.26 17.5242 148.731 17.5242C148.389 17.5242 148.098 17.4377 147.86 17.2646C147.621 17.0915 147.43 16.8723 147.284 16.6069C147.15 16.3299 147.051 16.0241 146.989 15.6895C146.927 15.3549 146.896 15.026 146.896 14.7029C146.896 14.3682 146.927 14.0336 146.989 13.699C147.051 13.3528 147.155 13.0412 147.3 12.7643C147.456 12.4758 147.653 12.245 147.891 12.0719C148.13 11.8873 148.425 11.795 148.778 11.795C149.721 11.795 150.266 12.3085 150.411 13.3355ZM153.308 12.9374C153.339 12.3604 153.468 11.8815 153.696 11.5007C153.925 11.1199 154.215 10.8141 154.568 10.5834C154.92 10.3526 155.314 10.191 155.75 10.0987C156.196 9.99485 156.642 9.94293 157.088 9.94293C157.492 9.94293 157.902 9.97755 158.316 10.0468C158.731 10.1045 159.11 10.2256 159.452 10.4103C159.794 10.5949 160.074 10.8545 160.292 11.1892C160.51 11.5123 160.619 11.945 160.619 12.4873V17.1434C160.619 17.5473 160.639 17.9339 160.681 18.3031C160.722 18.6724 160.795 18.9493 160.899 19.134H158.659C158.617 18.9955 158.581 18.857 158.55 18.7186C158.529 18.5686 158.513 18.4185 158.503 18.2685C158.15 18.6724 157.736 18.9551 157.259 19.1167C156.782 19.2782 156.294 19.359 155.796 19.359C155.413 19.359 155.055 19.3071 154.723 19.2032C154.391 19.0994 154.101 18.9378 153.852 18.7186C153.603 18.4993 153.406 18.2224 153.261 17.8877C153.126 17.5531 153.059 17.155 153.059 16.6934C153.059 16.1857 153.137 15.7703 153.292 15.4472C153.458 15.1125 153.665 14.8471 153.914 14.651C154.174 14.4548 154.464 14.3106 154.785 14.2182C155.117 14.1144 155.449 14.0336 155.781 13.9759C156.113 13.9182 156.439 13.8721 156.761 13.8374C157.082 13.8028 157.368 13.7509 157.616 13.6817C157.865 13.6124 158.062 13.5143 158.207 13.3874C158.353 13.2489 158.42 13.0528 158.41 12.7989C158.41 12.5335 158.368 12.3258 158.285 12.1758C158.213 12.0142 158.109 11.8931 157.974 11.8123C157.85 11.72 157.699 11.6623 157.523 11.6392C157.357 11.6046 157.176 11.5873 156.979 11.5873C156.543 11.5873 156.201 11.6911 155.952 11.8988C155.703 12.1065 155.558 12.4527 155.516 12.9374H153.308ZM158.41 14.7548C158.316 14.8471 158.197 14.9221 158.052 14.9798C157.917 15.026 157.767 15.0664 157.601 15.101C157.445 15.1356 157.279 15.1645 157.103 15.1875C156.927 15.2106 156.75 15.2395 156.574 15.2741C156.408 15.3087 156.242 15.3549 156.076 15.4126C155.921 15.4703 155.781 15.551 155.656 15.6549C155.542 15.7472 155.449 15.8684 155.376 16.0184C155.304 16.1684 155.268 16.3588 155.268 16.5896C155.268 16.8088 155.304 16.9934 155.376 17.1434C155.449 17.2935 155.548 17.4146 155.672 17.5069C155.796 17.5877 155.942 17.6454 156.108 17.68C156.273 17.7146 156.445 17.732 156.621 17.732C157.056 17.732 157.393 17.6512 157.632 17.4896C157.87 17.3281 158.047 17.1377 158.161 16.9184C158.275 16.6876 158.342 16.4569 158.363 16.2261C158.394 15.9953 158.41 15.8107 158.41 15.6722V14.7548ZM164.666 10.1853V7.50237H162.457V10.1853H161.12V11.8296H162.457V17.1088C162.457 17.5589 162.525 17.9224 162.66 18.1993C162.794 18.4762 162.976 18.6897 163.204 18.8397C163.443 18.9897 163.712 19.0878 164.013 19.134C164.324 19.1917 164.651 19.2205 164.993 19.2205C165.211 19.2205 165.434 19.2148 165.662 19.2032C165.89 19.1917 166.097 19.1686 166.284 19.134V17.23C166.18 17.2531 166.071 17.2704 165.957 17.2819C165.843 17.2935 165.724 17.2992 165.6 17.2992C165.226 17.2992 164.977 17.23 164.853 17.0915C164.728 16.9531 164.666 16.6761 164.666 16.2607V11.8296H166.284V10.1853H164.666ZM169.139 8.80054V6.77539H166.931V8.80054H169.139ZM166.931 10.1853V19.134H169.139V10.1853H166.931ZM172.372 14.6683C172.372 14.3106 172.403 13.9586 172.465 13.6124C172.528 13.2662 172.631 12.9605 172.776 12.695C172.932 12.4296 173.134 12.2162 173.383 12.0546C173.632 11.8815 173.943 11.795 174.316 11.795C174.69 11.795 175.001 11.8815 175.25 12.0546C175.509 12.2162 175.711 12.4296 175.856 12.695C176.012 12.9605 176.121 13.2662 176.183 13.6124C176.245 13.9586 176.276 14.3106 176.276 14.6683C176.276 15.026 176.245 15.3779 176.183 15.7241C176.121 16.0588 176.012 16.3645 175.856 16.6415C175.711 16.9069 175.509 17.1204 175.25 17.2819C175.001 17.4435 174.69 17.5242 174.316 17.5242C173.943 17.5242 173.632 17.4435 173.383 17.2819C173.134 17.1204 172.932 16.9069 172.776 16.6415C172.631 16.3645 172.528 16.0588 172.465 15.7241C172.403 15.3779 172.372 15.026 172.372 14.6683ZM170.163 14.6683C170.163 15.3837 170.262 16.0299 170.459 16.6069C170.656 17.1838 170.936 17.68 171.299 18.0954C171.662 18.4993 172.097 18.8109 172.605 19.0301C173.114 19.2494 173.684 19.359 174.316 19.359C174.949 19.359 175.519 19.2494 176.028 19.0301C176.546 18.8109 176.987 18.4993 177.35 18.0954C177.713 17.68 177.993 17.1838 178.19 16.6069C178.387 16.0299 178.485 15.3837 178.485 14.6683C178.485 13.9528 178.387 13.3066 178.19 12.7297C177.993 12.1412 177.713 11.645 177.35 11.2411C176.987 10.8257 176.546 10.5084 176.028 10.2891C175.519 10.0583 174.949 9.94293 174.316 9.94293C173.684 9.94293 173.114 10.0583 172.605 10.2891C172.097 10.5084 171.662 10.8257 171.299 11.2411C170.936 11.645 170.656 12.1412 170.459 12.7297C170.262 13.3066 170.163 13.9528 170.163 14.6683ZM179.455 10.1853V19.134H181.663V14.4433C181.663 13.5317 181.798 12.8797 182.068 12.4873C182.338 12.0835 182.773 11.8815 183.375 11.8815C183.903 11.8815 184.272 12.0662 184.479 12.4354C184.686 12.7931 184.79 13.3413 184.79 14.0798V19.134H186.999V13.6297C186.999 13.0758 186.952 12.5739 186.859 12.1239C186.776 11.6623 186.626 11.2757 186.408 10.9642C186.19 10.6411 185.889 10.393 185.506 10.2199C185.132 10.0352 184.65 9.94293 184.059 9.94293C183.592 9.94293 183.136 10.0641 182.69 10.3064C182.244 10.5372 181.881 10.9122 181.601 11.4315H181.555V10.1853H179.455Z" fill="#465068"/>
<path d="M41.7698 22.9363C45.9701 22.1546 48.3548 16.9237 47.0962 11.2527C45.8376 5.58179 41.4123 1.61829 37.212 2.40001C33.0118 3.18172 30.6271 8.41263 31.8857 14.0836C33.1443 19.7545 37.5696 23.718 41.7698 22.9363Z" fill="#465068"/>
<path d="M29.7412 21.2982C32.3207 20.4359 32.5604 15.897 30.2767 11.1602C27.993 6.42348 24.0506 3.28256 21.4712 4.14481C18.8918 5.00706 18.6521 9.54596 20.9358 14.2827C23.2195 19.0195 27.1618 22.1604 29.7412 21.2982Z" fill="#465068"/>
<path d="M21.491 19.3002C22.7895 18.6209 21.3052 15.0865 18.1757 11.4057C15.0461 7.72504 11.4565 5.29191 10.158 5.97121C8.85953 6.6505 10.3439 10.185 13.4734 13.8657C16.6029 17.5464 20.1925 19.9795 21.491 19.3002Z" fill="#465068"/>
<path d="M13.9841 15.9628C14.4495 15.4449 11.8851 13.5752 8.25618 11.7867C4.62729 9.99817 1.30819 8.96815 0.842752 9.48606C0.377313 10.004 2.94179 11.8737 6.57067 13.6622C10.1996 15.4507 13.5187 16.4807 13.9841 15.9628Z" fill="#465068"/>
</svg>
