<svg width="148" height="26" viewBox="0 0 148 26" fill="none" xmlns="http://www.w3.org/2000/svg">
<path fill-rule="evenodd" clip-rule="evenodd" d="M21.1289 1.03681C19.2662 1.32317 17.9442 2.33951 17.2322 4.03248C16.9497 4.7044 16.8165 5.47047 16.8135 6.44075C16.8081 8.22919 17.2801 9.64517 18.4234 11.2698C18.9071 11.9572 19.4095 12.545 20.7183 13.9546C21.5539 14.8546 22.1948 15.5974 22.5688 16.0989C23.7882 17.7346 24.3551 19.2208 24.451 21.0326C24.5501 22.9069 23.6823 24.2589 22.0665 24.7475C21.6559 24.8717 20.8977 24.9048 20.3865 24.8209C18.2432 24.4689 17.0067 22.8035 16.6419 19.7774C16.6028 19.4528 16.532 18.3712 16.5306 18.0767L16.5299 17.9275L16.0039 17.9372L15.4779 17.9469L15.4889 18.5048C15.5437 21.2788 16.2004 23.3019 17.4434 24.526C17.8691 24.9452 18.2564 25.2129 18.7984 25.4628C19.539 25.8041 20.1669 25.9408 21.1437 25.973C23.0904 26.0372 24.7087 25.5212 25.8633 24.4684C27.0979 23.3425 27.6954 21.7497 27.6291 19.7613C27.5898 18.583 27.3476 17.6754 26.7727 16.5522C26.2134 15.4594 25.4491 14.4301 23.8215 12.5774C22.2835 10.8266 21.6168 9.96358 21.068 9.01293C20.5731 8.15572 20.2653 7.35294 20.0883 6.45787C20.0094 6.05895 19.9779 4.95953 20.0339 4.55747C20.2217 3.2084 20.8474 2.40816 21.9189 2.14652C22.2656 2.06183 22.953 2.07145 23.3399 2.16639C24.5996 2.47549 25.3959 3.41254 25.8538 5.12462C26.0624 5.90467 26.1807 6.8277 26.2244 8.01848L26.2491 8.68968H26.7833H27.3176L27.2921 7.96618C27.1899 5.06789 26.6725 3.33033 25.5864 2.23822C24.9897 1.63823 24.2933 1.28185 23.3394 1.08844C22.8508 0.989387 21.6238 0.960726 21.1289 1.03681ZM45.9663 1.03545C45.1139 1.16383 44.3621 1.47916 43.6448 2.00911C42.0453 3.19086 40.881 5.48403 40.3223 8.55303C39.778 11.5428 39.7626 15.6009 40.2845 18.5396C40.756 21.195 41.6216 23.1165 42.9204 24.391C43.3963 24.858 43.8067 25.1514 44.3607 25.4209C45.1325 25.7963 45.7335 25.94 46.6676 25.9722C48.786 26.0454 50.3032 25.1899 51.2593 23.3829C52.0154 21.9541 52.4442 19.7444 52.4442 17.2763V16.6394H51.9145H51.3849L51.3618 17.5546C51.2836 20.6584 50.6089 22.9057 49.4174 24.0312C49.0653 24.3638 48.6879 24.5876 48.2363 24.7316C47.9369 24.827 47.8176 24.8458 47.4197 24.8602C46.6008 24.8897 46.0574 24.7168 45.5568 24.2676C44.4667 23.2895 43.9147 21.2454 43.6567 17.2321C43.5945 16.2634 43.5704 12.1838 43.6191 10.8514C43.7503 7.26072 44.1011 5.07773 44.7653 3.71976C44.972 3.29713 45.2026 2.98476 45.5136 2.70638C46.0108 2.26127 46.4979 2.09178 47.2766 2.09282C47.6267 2.09328 47.8093 2.1112 48.0333 2.16709C49.8865 2.62925 50.8599 4.59168 51.0784 8.30614C51.0981 8.64173 51.1145 9.085 51.1148 9.29113L51.1154 9.66595H51.6506H52.1858L52.1856 9.41317C52.1851 8.90202 52.1084 7.47226 52.0551 6.98119C51.7825 4.47045 51.058 2.79142 49.8508 1.87271C49.4994 1.60521 48.8097 1.2708 48.3826 1.16083C47.7153 0.988968 46.6439 0.933355 45.9663 1.03545ZM73.6125 1.0397C71.6906 1.36128 70.1343 2.82081 69.1173 5.25527C68.1748 7.5118 67.6996 10.6598 67.7754 14.1464C67.826 16.4764 68.0393 18.2149 68.4811 19.8994C68.7628 20.9733 69.0324 21.6891 69.4793 22.5493C70.2149 23.9652 71.1946 24.977 72.3576 25.5218C72.9667 25.8071 73.5346 25.9415 74.2621 25.9724C75.6816 26.0326 76.8227 25.6241 77.7835 24.7118C78.6888 23.852 79.3419 22.6589 79.8339 20.9658C80.5284 18.576 80.8011 15.0679 80.6038 11.0606C80.293 4.7467 78.5773 1.48983 75.3242 1.03848C74.8441 0.971883 74.0144 0.972476 73.6125 1.0397ZM96.5498 1.03597C94.9186 1.32774 93.5654 2.40185 92.5697 4.19517C91.7448 5.68103 91.1779 7.64858 90.9081 9.96232C90.7585 11.245 90.7391 11.6612 90.7402 13.5711C90.7414 15.5239 90.7713 16.0857 90.945 17.4239C91.5997 22.4674 93.6456 25.4922 96.7014 25.9347C97.3984 26.0356 98.2993 25.9693 98.9519 25.7693C100.23 25.3775 101.321 24.3508 102.068 22.8393C102.73 21.4995 103.182 19.6977 103.415 17.4762C103.541 16.2796 103.569 15.7455 103.591 14.0941C103.68 7.53265 102.662 3.60368 100.436 1.92114C99.9148 1.52711 99.3097 1.25302 98.6232 1.09998C98.1251 0.988968 97.0057 0.954415 96.5498 1.03597ZM112.221 1.00762C112.16 1.0148 111.946 1.05284 111.746 1.09214C109.003 1.62927 107.054 4.12924 106.189 8.21897C105.462 11.657 105.519 16.7424 106.321 20.0208C106.593 21.1341 106.929 22.0537 107.357 22.8608C107.725 23.5544 108.169 24.1542 108.662 24.6241C109.429 25.356 110.428 25.8275 111.464 25.9475C112.742 26.0955 113.813 25.797 114.628 25.066C114.926 24.7984 115.257 24.3593 115.383 24.0625C115.427 23.959 115.474 23.8628 115.486 23.8488C115.498 23.8348 115.547 24.2192 115.593 24.7031C115.639 25.1869 115.686 25.6337 115.697 25.6961L115.718 25.8094H117.19H118.662V20.0563V14.3033H115.469H112.277V14.774V15.2447H113.735H115.193L115.192 17.6941C115.192 19.0413 115.175 20.4102 115.156 20.7362C115.047 22.5309 114.685 23.637 113.993 24.2939C113.553 24.7113 113.149 24.8685 112.518 24.8675C111.544 24.866 110.931 24.461 110.452 23.503C109.991 22.5813 109.669 20.9655 109.509 18.7663C109.33 16.3107 109.313 11.8196 109.473 9.42188C109.764 5.07616 110.567 2.92186 112.124 2.30642C112.523 2.14896 112.857 2.09112 113.366 2.09192C114.826 2.09418 115.8 2.92235 116.415 4.68498C116.801 5.7902 116.973 6.97411 117.06 9.1168L117.083 9.66595H117.596H118.109L118.108 8.92503C118.107 6.64831 117.754 4.73955 117.09 3.42722C116.239 1.74342 114.903 0.970035 112.881 0.989282C112.579 0.992141 112.282 1.0004 112.221 1.00762ZM141.805 1.00821C141.734 1.0154 141.515 1.05155 141.317 1.08862C140.335 1.27317 139.514 1.68429 138.814 2.34338C137.936 3.16917 137.411 4.28813 137.262 5.65209C137.208 6.14682 137.238 7.28579 137.318 7.7657C137.462 8.63448 137.765 9.52104 138.185 10.304C138.766 11.3861 139.372 12.1744 141.03 14.0069C142.319 15.43 142.927 16.1827 143.427 16.9738C144.37 18.4644 144.832 19.9889 144.832 21.6077C144.832 22.8553 144.489 23.7064 143.748 24.3006C143.29 24.6676 142.769 24.833 141.99 24.8576C141.374 24.8772 140.972 24.8167 140.45 24.6262C138.676 23.9774 137.68 21.9062 137.566 18.6293L137.542 17.9469L137.016 17.9372L136.49 17.9275L136.491 18.3731C136.493 19.8449 136.719 21.3504 137.105 22.4622C137.275 22.9535 137.684 23.7338 137.972 24.1162C138.91 25.3631 140.295 25.9837 142.138 25.9837C144.981 25.9837 147.055 24.5937 147.749 22.2232C147.941 21.566 147.975 21.3173 147.995 20.405C148.016 19.4271 147.975 19.034 147.769 18.2658C147.615 17.6901 147.44 17.2438 147.124 16.6219C146.546 15.4862 145.908 14.6109 144.148 12.5425C142.707 10.849 142.077 10.0172 141.534 9.09127C140.524 7.37125 140.166 5.46018 140.571 3.95281C140.922 2.64533 141.98 1.95294 143.399 2.1005C144.526 2.21758 145.338 2.77099 145.897 3.80246C146.429 4.78512 146.718 6.14602 146.776 7.94875L146.8 8.68968H147.335H147.87L147.846 7.90485C147.819 7.07735 147.747 6.24319 147.654 5.69111C147.171 2.83256 145.846 1.34646 143.504 1.03792C143.131 0.988829 142.165 0.971953 141.805 1.00821ZM0.0359974 1.69105C0.0481041 2.18062 0.0568151 2.23773 0.143482 2.3968C0.376168 2.82392 1.03407 2.93396 1.42355 2.61095C1.49586 2.55094 1.57799 2.45 1.60604 2.38658C1.63907 2.31193 1.67288 2.28027 1.70204 2.29666C1.72681 2.3106 1.95824 2.46813 2.21632 2.64676C2.47444 2.82535 2.6945 2.97148 2.70539 2.97148C2.71628 2.97148 2.72521 2.83766 2.72521 2.67406V2.37668L2.20846 2.06005C1.92425 1.88589 1.69171 1.72948 1.69171 1.71239C1.69171 1.69534 1.92425 1.68139 2.20846 1.68139H2.72521V1.41989V1.15839H1.37402H0.0228202L0.0359974 1.69105ZM4.01709 13.4819V25.8094H5.77036H7.52363V20.5968V15.3842L8.10497 15.3841C9.78076 15.384 11.2837 15.004 12.4263 14.2916C13.979 13.3235 14.888 11.8318 15.2288 9.69207C15.3084 9.19235 15.3191 7.41148 15.2455 6.92889C14.9893 5.25133 14.4213 4.01944 13.463 3.06297C12.5167 2.11842 11.2806 1.5367 9.6264 1.25744C9.1852 1.18297 9.05971 1.17924 6.59163 1.16714L4.01709 1.15448V13.4819ZM27.8807 1.20197C27.89 1.22596 28.911 4.633 30.1496 8.77318L32.4016 16.3008V21.0551V25.8094H34.1548H35.9081V21.0327V16.2559L37.9756 8.76816C39.1128 4.64991 40.0524 1.25298 40.0636 1.2194C40.0824 1.16302 40.039 1.15839 39.4924 1.15839H38.9007L38.8647 1.28914C38.8449 1.36107 38.0297 4.3618 37.0532 7.95747C36.0767 11.5531 35.274 14.5076 35.2693 14.5229C35.2647 14.5383 34.4404 11.6121 33.4375 8.02023C32.4345 4.4284 31.5912 1.41511 31.5634 1.32401L31.5128 1.15839H29.6883C28.2443 1.15839 27.8673 1.16749 27.8807 1.20197ZM54.2159 13.4839V25.8094H55.9691H57.7224V19.3764V12.9435H61.192H64.6617V19.3764V25.8094H65.1969H65.7321V13.4839V1.15839H65.1969H64.6617V6.58022V12.002H61.192H57.7224V6.58022V1.15839H55.9691H54.2159V13.4839ZM82.9325 13.4839V25.8094H87.1957H91.4589V25.3387V24.868H88.949H86.4391V13.0132V1.15839H84.6858H82.9325V13.4839ZM121.467 13.4839V25.8094H123.221H124.974V13.4839V1.15839H123.221H121.467V13.4839ZM127.853 13.4839V25.8094H132.117H136.382L136.371 25.3474L136.361 24.8854L133.86 24.8765L131.36 24.8675V18.6094V12.3512L133.602 12.3423L135.844 12.3333L135.855 11.8713L135.865 11.4093H133.612H131.36V6.73712V2.06493H133.777H136.195V1.61166V1.15839H132.024H127.853V13.4839ZM1.28569 1.73199C1.28569 1.75981 1.26775 1.86166 1.24579 1.95831C1.19732 2.17176 1.07866 2.27413 0.879669 2.27413C0.63639 2.27413 0.474498 2.07591 0.473871 1.77728L0.47365 1.68139H0.879669C1.20984 1.68139 1.28569 1.69084 1.28569 1.73199ZM75.6611 2.17438C77.258 2.55795 78.418 4.26177 79.0383 7.13488C79.3598 8.6244 79.5043 9.97543 79.5803 12.2021C79.6285 13.6149 79.5898 15.3132 79.481 16.5696C79.1002 20.9659 77.9235 23.7458 76.0724 24.6222C75.417 24.9325 74.6071 24.9533 74.037 24.6743C72.8334 24.0854 72.0336 22.0354 71.6778 18.6268C71.5107 17.0262 71.4538 15.706 71.4535 13.428C71.4526 6.76051 72.1236 3.37004 73.6321 2.41845C74.1597 2.08561 74.9139 1.99488 75.6611 2.17438ZM98.5274 2.15503C99.4596 2.36751 100.236 2.99069 100.858 4.02467C101.367 4.87313 101.842 6.28957 102.104 7.74826C102.43 9.56254 102.552 11.388 102.521 13.9895C102.501 15.6377 102.46 16.381 102.329 17.5003C101.781 22.1746 100.154 24.8705 97.8848 24.8676C97.0345 24.8665 96.4278 24.4711 95.8792 23.5605C94.8965 21.9294 94.3749 18.4214 94.3758 13.449C94.3765 9.6095 94.6368 6.66229 95.1345 4.85831C95.6885 2.85059 96.5649 2.00642 98.0106 2.08787C98.173 2.09704 98.4056 2.12724 98.5274 2.15503ZM9.23009 2.18878C10.6292 2.37033 11.6878 2.82866 12.5276 3.61652C13.6604 4.6793 14.2133 6.20111 14.2122 8.25384C14.2118 9.00278 14.1681 9.45344 14.0346 10.0844C13.5059 12.5839 11.7739 14.074 9.05543 14.3678C8.87272 14.3875 8.45334 14.4145 8.12343 14.4277L7.52363 14.4517V8.27026V2.08885L8.1689 2.11183C8.5238 2.12448 9.00135 2.15911 9.23009 2.18878ZM0.0307191 3.52684V3.69866L0.898567 4.37236L1.76638 5.04607L0.898567 5.05541L0.0307191 5.06475V5.32563V5.58651H1.37797H2.72521V5.39875V5.21099L1.8536 4.53579L0.981986 3.86059L1.8536 3.85124L2.72521 3.8419V3.59846V3.35501H1.37797H0.0307191V3.52684ZM0.0553387 5.92357C0.0417924 5.93633 0.0307191 6.24229 0.0307191 6.60347V7.26013H1.37797H2.72521V7.01606V6.77199H1.61789H0.51056V6.33615V5.90031H0.295259C0.176812 5.90031 0.068848 5.91077 0.0553387 5.92357ZM0.839805 7.79317C0.302863 8.00684 0.0388764 8.37308 0.00366344 8.95327C-0.0298516 9.50515 0.166736 9.91996 0.587557 10.1854C0.855529 10.3545 1.11132 10.4126 1.49464 10.3916C2.1587 10.3553 2.6443 9.95152 2.76563 9.33472C2.88843 8.71035 2.58945 8.09578 2.03635 7.8355C1.84732 7.74656 1.77332 7.73271 1.43333 7.72267C1.09301 7.71263 1.02067 7.72121 0.839805 7.79317ZM1.84378 8.33382C2.11393 8.46715 2.25512 8.6819 2.27597 8.99124C2.29483 9.27143 2.22201 9.46582 2.03284 9.64022C1.77815 9.87505 1.32463 9.94562 0.990402 9.80249C0.644621 9.65441 0.494283 9.42816 0.494283 9.05578C0.494283 8.76868 0.583976 8.57427 0.786875 8.4213C0.965339 8.28682 1.11594 8.24216 1.40144 8.23905C1.60131 8.23689 1.68267 8.25433 1.84378 8.33382ZM0.0553387 10.8398C0.0417924 10.8526 0.0307191 11.2448 0.0307191 11.7115V12.5599L0.925808 12.5608C1.41809 12.5612 1.88734 12.5761 1.96854 12.5938C2.16653 12.637 2.29365 12.7773 2.27457 12.9316L2.26021 13.0481H2.48876C2.66313 13.0481 2.72263 13.035 2.73972 12.9929C2.81118 12.817 2.70141 12.445 2.53243 12.2905C2.31059 12.0877 2.22271 12.0718 1.32378 12.0718H0.51056V11.7057V11.3396H1.61789H2.72521V11.0781V10.8166H1.40259C0.675109 10.8166 0.068848 10.827 0.0553387 10.8398ZM0.991288 13.276C0.585047 13.3838 0.290535 13.6206 0.109524 13.9853C0.0221189 14.1614 0.0122637 14.2219 0.0122637 14.5822C0.0122637 14.9435 0.0219712 15.0027 0.110447 15.1811C0.304302 15.5716 0.648238 15.827 1.09025 15.9083C1.55887 15.9946 2.07761 15.8564 2.38877 15.5625C2.92527 15.0557 2.92494 14.1084 2.38811 13.6013C2.05949 13.2909 1.46083 13.1514 0.991288 13.276ZM1.67576 13.7967C2.06104 13.9053 2.28228 14.1918 2.28228 14.5822C2.28228 14.9793 2.05997 15.2609 1.65897 15.3718C1.40952 15.4407 1.14797 15.4126 0.912261 15.2914C0.543965 15.102 0.386171 14.6926 0.530529 14.3008C0.622327 14.0516 0.78455 13.9052 1.07338 13.811C1.31108 13.7334 1.4402 13.7303 1.67576 13.7967ZM2.02819 16.431C1.65498 16.6607 1.33264 16.8486 1.31186 16.8486C1.29108 16.8486 1.01775 16.6906 0.704453 16.4976C0.391117 16.3046 0.111369 16.1382 0.0827634 16.1278C0.0405005 16.1125 0.0307191 16.1646 0.0307191 16.4053V16.7016L0.418689 16.9185C0.632108 17.0378 0.813082 17.1454 0.82087 17.1576C0.828658 17.1698 0.654218 17.2739 0.433232 17.389L0.0314204 17.5982L0.0310513 17.9054C0.0307929 18.1412 0.0414233 18.2067 0.0768577 18.1875C0.102252 18.1738 0.385949 18.0069 0.707295 17.8167C1.02868 17.6265 1.31415 17.479 1.34168 17.489C1.36922 17.499 1.69178 17.6965 2.05849 17.928L2.72521 18.3488V18.0404V17.732L2.26383 17.4594C2.01006 17.3095 1.80244 17.1772 1.80244 17.1653C1.80244 17.1535 2.01006 17.0267 2.26383 16.8834L2.72521 16.6231V16.3174C2.72521 16.1493 2.72108 16.0121 2.71598 16.0126C2.71089 16.0131 2.40139 16.2014 2.02819 16.431ZM0.0380275 18.8781L0.0491745 19.0598L0.906171 19.7237L1.7632 20.3876L0.906171 20.405L0.0491745 20.4224L0.0383227 20.6752L0.027471 20.928H1.37634H2.72521V20.7402V20.5524L1.85161 19.8772L0.978 19.2021L1.85161 19.1928L2.72521 19.1834V18.94V18.6965H1.37605H0.0268435L0.0380275 18.8781ZM0.0824681 21.5286C0.0271388 21.6446 0.0122637 21.7573 0.0122637 22.0603C0.0122637 22.4101 0.0214914 22.4625 0.114913 22.6422C0.251557 22.9051 0.476602 23.1119 0.768936 23.2434C0.987707 23.3418 1.04141 23.3513 1.37797 23.3511C1.70429 23.3509 1.77273 23.3396 1.96854 23.2535C2.59196 22.9794 2.91811 22.3277 2.74721 21.6975C2.71381 21.5743 2.66826 21.4528 2.64596 21.4274C2.59983 21.3749 2.02391 21.3605 2.02391 21.4119C2.02391 21.4287 2.05144 21.464 2.0851 21.4904C2.19222 21.5741 2.28062 21.8084 2.28147 22.0108C2.28302 22.3811 2.04192 22.6903 1.66905 22.7963C1.44651 22.8596 1.34508 22.8585 1.09862 22.79C0.750223 22.6932 0.47365 22.3515 0.47365 22.018C0.47365 21.8715 0.563601 21.6465 0.679612 21.5028L0.777684 21.3813H0.465197H0.152673L0.0824681 21.5286ZM0.0307191 24.7983V25.8094H1.37797H2.72521V25.5479V25.2864H1.61789H0.51056V24.7983V24.3101H1.61789H2.72521V24.0486V23.7871H1.37797H0.0307191V24.7983Z" fill="#465068"/>
</svg>
