<svg width="64" height="64" viewBox="0 0 64 64" fill="none" xmlns="http://www.w3.org/2000/svg">
<rect width="64" height="64" fill="#D0F657"/>
<g opacity="0.8">
<path fill-rule="evenodd" clip-rule="evenodd" d="M25.6673 22.2917V20.9584C25.6673 18.7492 27.4582 16.9584 29.6673 16.9584H35.0007C37.2099 16.9584 39.0007 18.7492 39.0007 20.9584V22.2917H45.6673V26.9584L40.334 28.9584H24.334L19.0007 26.9584V22.2917H25.6673ZM27.6673 20.9584C27.6673 19.8538 28.5628 18.9584 29.6673 18.9584H35.0007C36.1052 18.9584 37.0007 19.8538 37.0007 20.9584V22.2917H27.6673V20.9584Z" fill="#2A2A2A"/>
<path d="M45.6673 29.0944L40.6967 30.9584H39.0007V33.625H37.0007V30.9584H27.6673V33.625H25.6673V30.9584H23.9713L19.0007 29.0944V43.625H45.6673V29.0944Z" fill="#2A2A2A"/>
</g>
</svg>
