<svg width="128" height="26" viewBox="0 0 128 26" fill="none" xmlns="http://www.w3.org/2000/svg">
<path fill-rule="evenodd" clip-rule="evenodd" d="M35.7891 1.4435L33.5555 2.88469L33.5547 3.69515L33.5538 4.50561H36.4843H39.4148V2.2528V0L38.7188 0.00115388L38.0228 0.00230775L35.7891 1.4435ZM51.1855 6.726V8.01229L50.7581 8.04751C48.6773 8.219 47.0565 9.01248 45.7595 10.4946C44.8996 11.4772 44.3036 12.7441 44.0216 14.1889C43.8946 14.84 43.8946 16.7542 44.0216 17.4053C44.3145 18.906 44.9059 20.1379 45.8357 21.1838C47.1079 22.6151 48.686 23.3733 50.7581 23.5488L51.1855 23.585V24.7049V25.8248H52.9926H54.7997V24.705V23.5851L55.2759 23.5464C55.9922 23.4881 56.7686 23.3256 57.3438 23.1136C59.8118 22.2041 61.5625 19.9847 62.0102 17.1982C62.1239 16.4906 62.1239 15.1036 62.0102 14.396C61.6352 12.0617 60.3037 10.0532 58.4272 8.99105C57.4286 8.42587 56.5085 8.15394 55.2271 8.04537L54.7997 8.00916V6.72446V5.4397H52.9926H51.1855V6.726ZM119.71 6.10515C118.918 6.14895 117.247 6.28884 116.742 6.35357L116.486 6.38643V15.8584V25.3303H118.366H120.247V22.0825V18.8347L120.361 18.867C120.619 18.9398 121.913 19.0172 122.322 18.9843C124.015 18.8479 125.303 18.2474 126.358 17.103C127.312 16.069 127.824 14.8288 127.971 13.2024C128.115 11.6065 127.716 9.81201 126.97 8.70308C125.953 7.18941 124.241 6.29203 122.005 6.10076C121.276 6.03845 120.902 6.03916 119.71 6.10515ZM2.38081 11.1404C2.36073 16.4135 2.35228 16.6072 2.07399 18.1684C1.91662 19.0511 1.74905 19.6406 1.47495 20.2752C1.29043 20.7024 1.17814 20.8778 0.856722 21.2408C0.62331 21.5044 0.369874 21.733 0.231995 21.8042L0 21.9242V23.9621V26L0.256416 25.9641C0.397469 25.9444 0.743605 25.8651 1.02566 25.7878C3.27045 25.1729 4.75107 23.3033 5.45023 20.2007C5.88393 18.2761 6.0057 16.5342 6.00677 12.2384L6.00745 9.61371L7.21627 9.62843L8.42509 9.6431L8.43744 17.4867L8.44985 25.3303H10.3056H12.1614V15.7971V6.2639H7.2804H2.39937L2.38081 11.1404ZM18.6363 6.55192C18.5963 6.71083 17.5839 10.9577 16.3867 15.9894C15.1894 21.0211 14.198 25.1812 14.1836 25.2342C14.1589 25.3246 14.2705 25.3303 16.0593 25.3303H17.9614L18.2872 23.8605C18.4664 23.0521 18.6349 22.2978 18.6616 22.1842L18.7101 21.9777L21.5986 21.9919L24.4871 22.0061L24.8568 23.6544L25.2264 25.3028L27.123 25.3172L29.0196 25.3316L28.9888 25.1799C28.9719 25.0964 27.9532 20.8123 26.7251 15.6597L24.4922 6.29137L21.6007 6.27719L18.7091 6.26302L18.6363 6.55192ZM31.0629 15.7971V25.3303L32.052 25.3284L33.041 25.3266L35.0383 22.6361L37.0356 19.9456H37.346H37.6565V22.6379V25.3303H39.5124H41.3684V15.7971V6.2639H39.5124H37.6565L37.6561 10.0964L37.6558 13.9289L36.4085 15.7559L35.1612 17.5829H34.8632H34.5652L34.5998 16.3328C34.6189 15.6453 34.6548 14.4647 34.6796 13.7091C34.7044 12.9536 34.7396 10.9693 34.7577 9.29969L34.7907 6.2639H32.9268H31.0629V15.7971ZM64.0307 8.88028V11.4967L65.0685 13.4255C65.6394 14.4862 66.1137 15.387 66.1227 15.4271C66.1316 15.4673 65.5986 16.5203 64.9383 17.767L63.7376 20.0339V22.6834V25.333L64.5516 25.3179L65.3655 25.3028L66.6789 22.528C67.4013 21.0019 68.0245 19.6976 68.0639 19.6296C68.1259 19.5226 68.1778 19.506 68.449 19.506C68.6372 19.506 68.7783 19.5322 68.802 19.5715C68.8237 19.6076 69.4479 20.9119 70.1891 22.47L71.5367 25.3028L72.3503 25.3179L73.1639 25.333V22.6863V20.0397L71.9673 17.7779C71.3092 16.534 70.7707 15.4895 70.7707 15.4568C70.7707 15.4241 71.2433 14.52 71.8208 13.4477L72.8709 11.498V8.88094V6.2639H72.071C71.4898 6.2639 71.2577 6.28269 71.2221 6.33258C71.1466 6.43846 69.7874 9.2471 69.2677 10.3711L68.8041 11.3739H68.4447H68.0852L67.7887 10.7085C67.4731 10.0002 65.7606 6.44819 65.679 6.33258C65.6437 6.28263 65.412 6.2639 64.8306 6.2639H64.0307V8.88028ZM79.0003 6.33214C78.9716 6.42291 74.4827 25.278 74.4827 25.3076C74.4827 25.3201 75.3347 25.3303 76.3761 25.3303H78.2694L78.6375 23.6682L79.0056 22.0061L81.8949 21.9919L84.7842 21.9777L84.8327 22.1842C84.8593 22.2978 85.0278 23.0521 85.207 23.8605L85.5329 25.3303H87.4326H89.3322L89.2988 25.1792C89.2804 25.0961 88.2611 20.8123 87.0335 15.6597L84.8018 6.29137L81.9119 6.27719C79.6254 6.26598 79.0175 6.27747 79.0003 6.33214ZM91.3328 15.7971V25.3303H93.1888H95.0448V22.2258V19.1214H95.3571C95.6501 19.1214 95.6783 19.1327 95.8089 19.3031C95.8856 19.4031 96.8709 20.8001 97.9984 22.4075L100.048 25.3303H100.819H101.589V23.0961V20.862L101.31 20.445C101.156 20.2156 100.62 19.4041 100.118 18.6417L99.2061 17.2554L99.6707 15.6746C99.9262 14.8051 100.602 12.3382 101.173 10.1926L102.211 6.29137L100.325 6.27697C99.2881 6.26906 98.4169 6.2723 98.3894 6.28417C98.3618 6.29609 97.7794 8.39769 97.095 10.9544L95.8506 15.6029L95.4477 15.6039L95.0448 15.6048V10.9343V6.2639H93.1888H91.3328V15.7971ZM105.008 15.7971V25.3303H109.184H113.36V23.4072V21.4841H111.04H108.72V20.0555V18.6268H110.527H112.334V16.8136V15.0004H110.527H108.72V12.5553V10.1101H110.894H113.067V8.18702V6.2639H109.038H105.008V15.7971ZM122.603 10.0125C123.495 10.3444 123.99 10.9564 124.179 11.9599C124.432 13.3024 123.951 14.5372 122.962 15.0849C122.456 15.3651 122.006 15.4563 121.297 15.4226C120.974 15.4073 120.612 15.3606 120.491 15.3188L120.271 15.2428L120.258 12.6078C120.251 11.1585 120.257 9.93932 120.271 9.89838C120.292 9.83811 120.48 9.82849 121.261 9.84783C122.131 9.86937 122.262 9.88536 122.603 10.0125ZM22.7743 14.3822C23.2502 16.5505 23.6395 18.3556 23.6393 18.3933C23.6391 18.4472 23.1961 18.462 21.5878 18.462C20.4595 18.462 19.5364 18.4466 19.5364 18.4279C19.5364 18.3899 21.1859 10.6885 21.2267 10.536C21.2479 10.4568 21.3104 10.4398 21.5808 10.4398H21.9091L22.7743 14.3822ZM83.0747 14.3276C83.5426 16.4655 83.9353 18.2704 83.9473 18.3384L83.9692 18.462H81.9122C80.5371 18.462 79.8552 18.4433 79.8552 18.4056C79.8552 18.3506 81.5 10.6454 81.541 10.5085C81.5547 10.4625 81.6711 10.4399 81.8928 10.4402L82.224 10.4405L83.0747 14.3276ZM51.1855 15.7971V20.2203H51.0003C50.5319 20.2203 49.6895 19.834 49.1419 19.3681C48.097 18.479 47.5302 16.9099 47.6733 15.3026C47.8133 13.7293 48.58 12.4565 49.7935 11.7829C50.2776 11.5141 50.6607 11.383 50.9779 11.3775L51.1855 11.3739V15.7971ZM55.696 11.5416C56.9691 12.0193 57.8641 13.0975 58.2251 14.5883C58.3107 14.9421 58.3315 15.1779 58.3315 15.7971C58.3315 16.654 58.2432 17.1461 57.9726 17.7968C57.438 19.082 56.2206 20.1053 55.105 20.2074L54.7997 20.2353V15.8046V11.3739H55.0245C55.1481 11.3739 55.4503 11.4494 55.696 11.5416Z" fill="#2A2A2A"/>
</svg>
