<svg width="64" height="64" viewBox="0 0 64 64" fill="none" xmlns="http://www.w3.org/2000/svg">
<rect width="64" height="64" fill="#D0F657"/>
<path fill-rule="evenodd" clip-rule="evenodd" d="M41.0416 21.3334H46.2083V28C46.2083 30.9455 43.895 33.3334 41.0416 33.3334H40.1716C38.852 36.2006 36.1581 38.2631 32.9687 38.6138V43.3334H37.1666V45.3334H26.8333V43.3334H31.0312V38.6138C27.8418 38.2631 25.1479 36.2006 23.8284 33.3334H22.9583C20.1048 33.3334 17.7916 30.9455 17.7916 28V21.3334H22.9583V18.6667H41.0416V21.3334ZM41.0416 29.3334C41.0416 30.0199 40.9698 30.6891 40.8335 31.3334H41.0416C42.825 31.3334 44.2708 29.841 44.2708 28V23.3334H41.0416V29.3334ZM23.1664 31.3334H22.9583C21.1749 31.3334 19.7291 29.841 19.7291 28V23.3334H22.9583V29.3334C22.9583 30.0199 23.0301 30.6891 23.1664 31.3334Z" fill="#2A2A2A" fill-opacity="0.8"/>
</svg>
