<svg width="128" height="45" viewBox="0 0 128 45" fill="none" xmlns="http://www.w3.org/2000/svg">
<path d="M44.1472 24.2998H38.3384V44.0998H44.1472V24.2998Z" fill="#2A2A2A"/>
<path d="M82.7189 24.2998V37.0056L70.6336 24.2998H65.0586V44.0998H70.6336V31.3698L82.7189 44.0998H88.2939V24.2998H82.7189Z" fill="#2A2A2A"/>
<path d="M94.1029 0H87.6597L81.0766 7.41359V0H75.5146V19.8H81.0766V12.3864L87.6597 19.8H94.1029L85.3126 9.9L94.1029 0Z" fill="#2A2A2A"/>
<path d="M63.8972 28.309V24.2998H52.2506H46.4707V28.309V32.1948V36.204V40.0906V44.0998H52.2506H63.8972V40.0906H52.2506V36.204H60.38V32.1948H52.2506V28.309H63.8972Z" fill="#2A2A2A"/>
<path d="M127.794 28.309V24.2998H116.147H110.368V28.309V32.1948V36.204V40.0906V44.0998H116.147H127.794V40.0906H116.147V36.204H124.277V32.1948H116.147V28.309H127.794Z" fill="#2A2A2A"/>
<path d="M26.3804 15.7702V0H20.9116V15.7702V19.8H26.3804H33.691V15.7702H26.3804Z" fill="#2A2A2A"/>
<path d="M50.2181 19.8H55.7648L49.4101 0H41.1953L34.853 19.8H40.3997L42.0213 14.744H48.5965L50.2181 19.8ZM43.3132 10.7142L45.3095 4.49325L47.3047 10.7142H43.3132Z" fill="#2A2A2A"/>
<path d="M17.5389 9.90179C17.7537 9.76403 19.75 8.407 19.75 5.61868C19.75 2.75075 16.831 1.2479 15.8269 0.805097C14.8665 0.381974 13.3138 0 11.249 0H0V19.8H11.249C13.3138 19.8 14.8665 19.4216 15.8269 18.9949C16.831 18.5476 19.75 17.0493 19.75 14.1813C19.75 11.3966 17.7537 10.0396 17.5389 9.90179ZM13.9438 13.8378C13.9438 14.35 13.6754 14.8413 13.1977 15.2035C12.72 15.5657 12.0721 15.7692 11.3965 15.7692H5.81563V11.9163V11.9083H11.3965C12.0721 11.9083 12.72 12.1118 13.1977 12.4739C13.6754 12.8361 13.9438 13.3274 13.9438 13.8396V13.8378ZM11.3965 7.89531H5.81563V4.02906H11.3965C11.7355 4.02353 12.0726 4.06938 12.388 4.16393C12.7034 4.25848 12.9907 4.39983 13.2331 4.57967C13.4754 4.75952 13.668 4.97425 13.7995 5.21127C13.9309 5.44829 13.9986 5.70283 13.9986 5.95995C13.9986 6.21708 13.9309 6.47161 13.7995 6.70863C13.668 6.94565 13.4754 7.16038 13.2331 7.34023C12.9907 7.52008 12.7034 7.66142 12.388 7.75597C12.0726 7.85052 11.7355 7.89637 11.3965 7.89084V7.89531Z" fill="#2A2A2A"/>
<path d="M69.2801 15.7774C65.162 15.7774 61.2645 13.138 61.2645 9.88211C61.2645 6.62714 65.162 3.98774 69.2801 3.98774H73.1889V0H68.8433C61.93 0 55.7646 4.43241 55.7646 9.9C55.7646 15.3676 61.9299 19.8 68.8455 19.8H73.1911V15.7738L69.2801 15.7774Z" fill="#2A2A2A"/>
<path d="M32.1101 40.0772C27.992 40.0772 24.0946 37.4378 24.0946 34.1819C24.0946 30.9261 27.992 28.2875 32.1101 28.2875H36.0144V24.2998H31.6688C24.7532 24.2998 18.5879 28.7322 18.5879 34.1998C18.5879 39.6674 24.7532 44.0998 31.6688 44.0998H36.0144V40.0736L32.1101 40.0772Z" fill="#2A2A2A"/>
<path d="M104.135 40.0772C100.018 40.0772 96.1195 37.4378 96.1195 34.1819C96.1195 30.9261 100.018 28.2875 104.135 28.2875H108.044V24.2998H103.699C96.7837 24.2998 90.6177 28.7322 90.6177 34.1998C90.6177 39.6674 96.7837 44.0998 103.699 44.0998H108.044V40.0736L104.135 40.0772Z" fill="#2A2A2A"/>
<path d="M13.9376 32.9697C11.7246 32.3191 11.0686 32.3576 10.2045 32.2672C9.34048 32.1769 6.86838 32.1366 6.1636 30.9392C5.45882 29.7418 6.36683 28.3314 9.13487 28.3314H18.1842V24.2998H9.13011C7.87267 24.2998 6.39655 24.3428 4.74215 24.8994C2.80607 25.55 0.106966 27.5018 0.106966 29.9754C0.106966 32.4489 2.00858 34.4499 4.63518 35.3449C7.26178 36.2398 10.5397 36.1879 11.5475 36.6246C12.5554 37.0613 12.7289 37.8327 12.7289 38.188C12.7289 38.5433 12.3224 40.0628 10.365 40.0628C8.4075 40.0628 7.05736 40.0727 7.05736 40.0727H0V44.0998H8.72483C10.5848 44.0998 12.5435 44.0631 14.5366 43.2147C16.5298 42.3664 18.5883 40.7636 18.5883 38.2032C18.5883 35.6429 16.1506 33.6204 13.9376 32.9697Z" fill="#2A2A2A"/>
</svg>
