<svg width="64" height="64" viewBox="0 0 64 64" fill="none" xmlns="http://www.w3.org/2000/svg">
<rect width="64" height="64" fill="#D0F657"/>
<g opacity="0.8" clip-path="url(#clip0_1_1792)">
<mask id="mask0_1_1792" style="mask-type:luminance" maskUnits="userSpaceOnUse" x="16" y="15" width="32" height="33">
<path d="M47.666 15.625H16.666V47.625H47.666V15.625Z" fill="white"/>
</mask>
<g mask="url(#mask0_1_1792)">
<path d="M28.291 38.2918C28.4917 38.2918 28.6911 38.2872 28.8893 38.278C28.8889 38.278 28.8896 38.278 28.8893 38.278C28.9048 38.2772 28.9214 38.2764 28.9369 38.2757C35.0568 37.9681 39.916 33.3173 39.916 27.6252C39.916 21.7341 34.7114 16.9585 28.291 16.9585C21.8707 16.9585 16.666 21.7341 16.666 27.6252C16.666 29.6978 17.3103 31.6325 18.4251 33.2696L16.666 39.6252L23.8806 37.4974C24.5032 37.7318 25.1528 37.9181 25.824 38.0512C26.6191 38.2088 27.4445 38.2918 28.291 38.2918Z" fill="#2A2A2A"/>
<path d="M47.666 32.9585C47.666 28.7188 44.9703 25.0568 41.0656 23.3369C41.5744 24.6654 41.8535 26.1064 41.8535 27.6252C41.8535 34.8357 35.5605 40.2918 28.291 40.2918C28.0532 40.2918 27.8166 40.2861 27.5815 40.2748C29.7014 42.3376 32.7073 43.6252 36.041 43.6252C37.6022 43.6252 39.0914 43.3428 40.4515 42.8308L47.666 44.9585L45.9069 38.6029C47.0217 36.9658 47.666 35.0312 47.666 32.9585Z" fill="#2A2A2A"/>
</g>
</g>
<defs>
<clipPath id="clip0_1_1792">
<rect width="31" height="32" fill="white" transform="translate(16.666 15.625)"/>
</clipPath>
</defs>
</svg>
