<svg width="218" height="21" viewBox="0 0 218 21" fill="none" xmlns="http://www.w3.org/2000/svg">
<path d="M74.9133 11.7016V5.13281H72.0733V11.7016C72.0733 12.4906 71.8803 13.0725 71.4944 13.4473C71.1085 13.8123 70.4091 13.9947 69.3961 13.9947C68.8172 13.9947 68.3529 13.9306 68.0032 13.8024C67.6655 13.6643 67.4002 13.4917 67.2073 13.2846C67.0143 13.0676 66.8877 12.821 66.8274 12.5449C66.7671 12.2687 66.737 11.9876 66.737 11.7016V5.13281H63.897V11.7016C63.897 13.1416 64.3733 14.2068 65.326 14.8972C66.2908 15.5876 67.6475 15.9328 69.3961 15.9328C71.1206 15.9328 72.4712 15.5876 73.448 14.8972C74.4248 14.1969 74.9133 13.1317 74.9133 11.7016ZM76.6173 5.13281V15.6961H79.1859V5.13281H76.6173ZM83.9219 8.04733V5.75418H81.3532V8.04733H79.7976V9.45281H81.3532V13.9651C81.3532 14.3498 81.4316 14.6605 81.5884 14.8972C81.7452 15.1339 81.9562 15.3164 82.2215 15.4446C82.4989 15.5728 82.8124 15.6566 83.1621 15.6961C83.5239 15.7454 83.9038 15.7701 84.3018 15.7701C84.555 15.7701 84.8143 15.7651 85.0796 15.7553C85.3449 15.7454 85.5861 15.7257 85.8032 15.6961V14.0687C85.6826 14.0884 85.5559 14.1032 85.4233 14.1131C85.2906 14.123 85.1519 14.1279 85.0072 14.1279C84.5731 14.1279 84.2837 14.0687 84.139 13.9503C83.9942 13.832 83.9219 13.5953 83.9219 13.2402V9.45281H85.8032V8.04733H83.9219ZM89.1236 6.86377V5.13281H86.5549V6.86377H89.1236ZM86.5549 8.04733V15.6961H89.1236V8.04733H86.5549ZM90.6759 8.04733V15.6961H93.2445V11.2577C93.2445 10.883 93.3109 10.5821 93.4435 10.3553C93.5762 10.1186 93.7329 9.94103 93.9138 9.82268C94.1068 9.69446 94.2997 9.61062 94.4927 9.57117C94.6977 9.52185 94.8605 9.4972 94.9811 9.4972C95.3911 9.4972 95.6986 9.55638 95.9036 9.67473C96.1207 9.78322 96.2715 9.93117 96.3559 10.1186C96.4523 10.306 96.5066 10.5131 96.5187 10.7399C96.5307 10.9569 96.5368 11.1788 96.5368 11.4057V15.6961H99.1054V11.4353C99.1054 11.1986 99.1235 10.9668 99.1597 10.7399C99.2079 10.5032 99.2923 10.2961 99.4129 10.1186C99.5456 9.93117 99.7204 9.78322 99.9375 9.67473C100.167 9.55638 100.462 9.4972 100.824 9.4972C101.186 9.4972 101.469 9.54651 101.674 9.64514C101.891 9.74377 102.054 9.87692 102.162 10.0446C102.271 10.2123 102.337 10.4095 102.361 10.6364C102.386 10.8632 102.398 11.1049 102.398 11.3613V15.6961H104.966V10.5772C104.966 10.084 104.882 9.66487 104.713 9.31966C104.544 8.96459 104.309 8.67857 104.008 8.46158C103.706 8.24459 103.344 8.08679 102.922 7.98816C102.5 7.88953 102.042 7.84021 101.547 7.84021C100.896 7.84021 100.329 7.96843 99.8471 8.22487C99.3768 8.48131 99.0029 8.7772 98.7255 9.11254C98.4723 8.63911 98.0985 8.3087 97.604 8.12131C97.1216 7.93391 96.585 7.84021 95.9941 7.84021C95.3791 7.84021 94.8304 7.9487 94.348 8.16569C93.8777 8.38268 93.4737 8.68843 93.136 9.08295H93.0998V8.04733H90.6759ZM106.346 10.3997C106.382 9.90651 106.533 9.4972 106.798 9.17172C107.063 8.84624 107.401 8.58487 107.811 8.38761C108.221 8.19035 108.679 8.05227 109.186 7.97336C109.704 7.88459 110.223 7.84021 110.741 7.84021C111.212 7.84021 111.688 7.8698 112.17 7.92898C112.653 7.97829 113.093 8.08185 113.491 8.23966C113.889 8.39747 114.214 8.61939 114.468 8.90542C114.721 9.18158 114.848 9.55144 114.848 10.015V13.9947C114.848 14.3399 114.872 14.6703 114.92 14.986C114.968 15.3016 115.053 15.5383 115.173 15.6961H112.568C112.52 15.5777 112.478 15.4594 112.442 15.341C112.418 15.2128 112.399 15.0846 112.387 14.9564C111.977 15.3016 111.495 15.5432 110.94 15.6813C110.386 15.8194 109.819 15.8884 109.24 15.8884C108.794 15.8884 108.378 15.844 107.992 15.7553C107.606 15.6665 107.268 15.5284 106.979 15.341C106.689 15.1536 106.46 14.9169 106.291 14.6309C106.135 14.3449 106.056 14.0046 106.056 13.6101C106.056 13.1761 106.147 12.821 106.328 12.5449C106.521 12.2588 106.762 12.032 107.051 11.8643C107.353 11.6966 107.69 11.5734 108.064 11.4945C108.45 11.4057 108.836 11.3366 109.222 11.2873C109.608 11.238 109.988 11.1986 110.361 11.169C110.735 11.1394 111.067 11.095 111.356 11.0358C111.646 10.9766 111.875 10.8928 112.044 10.7843C112.213 10.666 112.291 10.4983 112.279 10.2813C112.279 10.0545 112.231 9.87692 112.134 9.7487C112.05 9.61062 111.929 9.50706 111.772 9.43802C111.628 9.35912 111.453 9.3098 111.248 9.29007C111.055 9.26049 110.844 9.24569 110.615 9.24569C110.108 9.24569 109.71 9.33446 109.421 9.51199C109.131 9.68953 108.963 9.98542 108.914 10.3997H106.346ZM112.279 11.9531C112.17 12.032 112.032 12.0961 111.863 12.1454C111.706 12.1849 111.531 12.2194 111.338 12.249C111.157 12.2786 110.964 12.3032 110.759 12.323C110.554 12.3427 110.349 12.3673 110.144 12.3969C109.951 12.4265 109.758 12.466 109.566 12.5153C109.385 12.5646 109.222 12.6336 109.077 12.7224C108.944 12.8013 108.836 12.9049 108.752 13.0331C108.667 13.1613 108.625 13.324 108.625 13.5213C108.625 13.7087 108.667 13.8665 108.752 13.9947C108.836 14.123 108.95 14.2265 109.095 14.3054C109.24 14.3745 109.409 14.4238 109.602 14.4534C109.795 14.483 109.994 14.4977 110.199 14.4977C110.705 14.4977 111.097 14.4287 111.374 14.2906C111.652 14.1525 111.857 13.9898 111.989 13.8024C112.122 13.6051 112.2 13.4079 112.225 13.2106C112.261 13.0134 112.279 12.8556 112.279 12.7372V11.9531ZM119.555 8.04733V5.75418H116.986V8.04733H115.43V9.45281H116.986V13.9651C116.986 14.3498 117.065 14.6605 117.221 14.8972C117.378 15.1339 117.589 15.3164 117.854 15.4446C118.132 15.5728 118.445 15.6566 118.795 15.6961C119.157 15.7454 119.537 15.7701 119.935 15.7701C120.188 15.7701 120.447 15.7651 120.713 15.7553C120.978 15.7454 121.219 15.7257 121.436 15.6961V14.0687C121.315 14.0884 121.189 14.1032 121.056 14.1131C120.924 14.123 120.785 14.1279 120.64 14.1279C120.206 14.1279 119.917 14.0687 119.772 13.9503C119.627 13.832 119.555 13.5953 119.555 13.2402V9.45281H121.436V8.04733H119.555ZM128.411 11.0506H124.232C124.244 10.9027 124.28 10.735 124.34 10.5476C124.413 10.3602 124.527 10.1827 124.684 10.015C124.853 9.84733 125.07 9.70925 125.335 9.60076C125.613 9.4824 125.956 9.42322 126.366 9.42322C126.994 9.42322 127.458 9.56131 127.759 9.83747C128.073 10.1136 128.29 10.518 128.411 11.0506ZM124.232 12.3821H130.979C131.027 11.7903 130.967 11.2232 130.798 10.6808C130.629 10.1383 130.352 9.655 129.966 9.2309C129.592 8.80679 129.11 8.47144 128.519 8.22487C127.928 7.96843 127.235 7.84021 126.439 7.84021C125.727 7.84021 125.076 7.94377 124.485 8.1509C123.906 8.35802 123.406 8.64405 122.984 9.00898C122.562 9.36405 122.236 9.78816 122.007 10.2813C121.778 10.7745 121.663 11.3071 121.663 11.8791C121.663 12.4709 121.772 13.0134 121.989 13.5065C122.218 13.9997 122.538 14.4238 122.948 14.7788C123.358 15.1339 123.858 15.4101 124.449 15.6073C125.04 15.7947 125.703 15.8884 126.439 15.8884C127.5 15.8884 128.404 15.6912 129.152 15.2966C129.9 14.9021 130.455 14.2462 130.816 13.329H128.555C128.471 13.5657 128.242 13.7925 127.868 14.0095C127.494 14.2166 127.048 14.3202 126.529 14.3202C125.806 14.3202 125.251 14.1673 124.865 13.8616C124.479 13.5558 124.268 13.0627 124.232 12.3821ZM136.723 5.13281V15.6961H146.527V13.7432H139.563V11.1542H145.822V9.34925H139.563V7.08569H146.383V5.13281H136.723ZM154.278 11.8495C154.278 12.1651 154.241 12.4709 154.169 12.7668C154.097 13.0627 153.976 13.329 153.807 13.5657C153.638 13.7925 153.409 13.975 153.12 14.1131C152.842 14.2512 152.493 14.3202 152.071 14.3202C151.673 14.3202 151.329 14.2512 151.04 14.1131C150.762 13.9651 150.527 13.7777 150.334 13.5509C150.153 13.3142 150.021 13.0479 149.936 12.752C149.852 12.4561 149.809 12.1602 149.809 11.8643C149.809 11.5487 149.846 11.2479 149.918 10.9619C150.002 10.666 150.129 10.4046 150.298 10.1777C150.479 9.9509 150.714 9.76843 151.003 9.63035C151.293 9.49227 151.649 9.42322 152.071 9.42322C152.493 9.42322 152.842 9.49227 153.12 9.63035C153.397 9.76843 153.62 9.9509 153.789 10.1777C153.97 10.3947 154.097 10.6512 154.169 10.9471C154.241 11.2331 154.278 11.5339 154.278 11.8495ZM154.314 14.7197V15.6961H156.756V5.13281H154.187V8.97939H154.151C153.861 8.60459 153.463 8.3235 152.957 8.1361C152.463 7.93884 151.938 7.84021 151.383 7.84021C150.696 7.84021 150.093 7.95364 149.574 8.18048C149.056 8.39747 148.622 8.68843 148.272 9.05336C147.934 9.41829 147.675 9.8424 147.494 10.3257C147.325 10.7991 147.241 11.2923 147.241 11.8051C147.241 12.3377 147.325 12.8506 147.494 13.3438C147.675 13.8369 147.934 14.2758 148.272 14.6605C148.622 15.0353 149.062 15.3361 149.592 15.563C150.123 15.7799 150.738 15.8884 151.438 15.8884C152.053 15.8884 152.601 15.7997 153.084 15.6221C153.578 15.4347 153.976 15.1339 154.278 14.7197H154.314ZM166.928 15.6961V8.04733H164.359V12.0566C164.359 12.8358 164.202 13.398 163.889 13.7432C163.575 14.0786 163.069 14.2462 162.369 14.2462C161.754 14.2462 161.326 14.0934 161.085 13.7876C160.844 13.472 160.723 12.9986 160.723 12.3673V8.04733H158.155V12.752C158.155 13.2254 158.203 13.6594 158.299 14.0539C158.408 14.4386 158.589 14.769 158.842 15.0451C159.095 15.3114 159.439 15.5186 159.873 15.6665C160.319 15.8145 160.886 15.8884 161.573 15.8884C162.116 15.8884 162.647 15.7898 163.165 15.5925C163.684 15.3953 164.106 15.0747 164.432 14.6309H164.486V15.6961H166.928ZM174.702 10.7399H177.216C177.18 10.2468 177.036 9.82268 176.782 9.46761C176.529 9.10268 176.197 8.80185 175.787 8.56514C175.389 8.31857 174.931 8.1361 174.413 8.01774C173.906 7.89939 173.376 7.84021 172.821 7.84021C172.061 7.84021 171.386 7.94377 170.795 8.1509C170.204 8.35802 169.703 8.64898 169.293 9.02377C168.883 9.3887 168.57 9.82761 168.353 10.3405C168.148 10.8435 168.045 11.3909 168.045 11.9827C168.045 12.5547 168.16 13.0824 168.389 13.5657C168.618 14.0391 168.938 14.4484 169.348 14.7936C169.758 15.1388 170.252 15.4101 170.831 15.6073C171.422 15.7947 172.067 15.8884 172.767 15.8884C174.009 15.8884 175.028 15.6221 175.824 15.0895C176.619 14.5569 177.102 13.7827 177.271 12.7668H174.793C174.708 13.2402 174.497 13.6199 174.159 13.906C173.834 14.1821 173.363 14.3202 172.748 14.3202C172.35 14.3202 172.013 14.2462 171.735 14.0983C171.458 13.9503 171.235 13.763 171.066 13.5361C170.909 13.2994 170.795 13.038 170.722 12.752C170.65 12.466 170.614 12.1849 170.614 11.9087C170.614 11.6227 170.65 11.3366 170.722 11.0506C170.795 10.7547 170.915 10.4884 171.084 10.2517C171.265 10.0051 171.494 9.80788 171.772 9.65994C172.049 9.50213 172.393 9.42322 172.803 9.42322C173.9 9.42322 174.533 9.86213 174.702 10.7399ZM178.07 10.3997C178.107 9.90651 178.257 9.4972 178.523 9.17172C178.788 8.84624 179.126 8.58487 179.536 8.38761C179.946 8.19035 180.404 8.05227 180.91 7.97336C181.429 7.88459 181.948 7.84021 182.466 7.84021C182.936 7.84021 183.413 7.8698 183.895 7.92898C184.378 7.97829 184.818 8.08185 185.216 8.23966C185.614 8.39747 185.939 8.61939 186.193 8.90542C186.446 9.18158 186.572 9.55144 186.572 10.015V13.9947C186.572 14.3399 186.596 14.6703 186.645 14.986C186.693 15.3016 186.777 15.5383 186.898 15.6961H184.293C184.245 15.5777 184.203 15.4594 184.167 15.341C184.142 15.2128 184.124 15.0846 184.112 14.9564C183.702 15.3016 183.22 15.5432 182.665 15.6813C182.11 15.8194 181.544 15.8884 180.965 15.8884C180.519 15.8884 180.103 15.844 179.717 15.7553C179.331 15.6665 178.993 15.5284 178.704 15.341C178.414 15.1536 178.185 14.9169 178.016 14.6309C177.859 14.3449 177.781 14.0046 177.781 13.6101C177.781 13.1761 177.872 12.821 178.052 12.5449C178.245 12.2588 178.487 12.032 178.776 11.8643C179.077 11.6966 179.415 11.5734 179.789 11.4945C180.175 11.4057 180.561 11.3366 180.947 11.2873C181.333 11.238 181.712 11.1986 182.086 11.169C182.46 11.1394 182.792 11.095 183.081 11.0358C183.371 10.9766 183.6 10.8928 183.769 10.7843C183.937 10.666 184.016 10.4983 184.004 10.2813C184.004 10.0545 183.955 9.87692 183.859 9.7487C183.775 9.61062 183.654 9.50706 183.497 9.43802C183.353 9.35912 183.178 9.3098 182.973 9.29007C182.78 9.26049 182.569 9.24569 182.34 9.24569C181.833 9.24569 181.435 9.33446 181.146 9.51199C180.856 9.68953 180.687 9.98542 180.639 10.3997H178.07ZM184.004 11.9531C183.895 12.032 183.757 12.0961 183.588 12.1454C183.431 12.1849 183.256 12.2194 183.063 12.249C182.882 12.2786 182.689 12.3032 182.484 12.323C182.279 12.3427 182.074 12.3673 181.869 12.3969C181.676 12.4265 181.483 12.466 181.29 12.5153C181.109 12.5646 180.947 12.6336 180.802 12.7224C180.669 12.8013 180.561 12.9049 180.476 13.0331C180.392 13.1613 180.35 13.324 180.35 13.5213C180.35 13.7087 180.392 13.8665 180.476 13.9947C180.561 14.123 180.675 14.2265 180.82 14.3054C180.965 14.3745 181.134 14.4238 181.327 14.4534C181.519 14.483 181.718 14.4977 181.923 14.4977C182.43 14.4977 182.822 14.4287 183.099 14.2906C183.377 14.1525 183.582 13.9898 183.714 13.8024C183.847 13.6051 183.925 13.4079 183.949 13.2106C183.986 13.0134 184.004 12.8556 184.004 12.7372V11.9531ZM191.279 8.04733V5.75418H188.711V8.04733H187.155V9.45281H188.711V13.9651C188.711 14.3498 188.789 14.6605 188.946 14.8972C189.103 15.1339 189.314 15.3164 189.579 15.4446C189.856 15.5728 190.17 15.6566 190.52 15.6961C190.881 15.7454 191.261 15.7701 191.659 15.7701C191.913 15.7701 192.172 15.7651 192.437 15.7553C192.702 15.7454 192.944 15.7257 193.161 15.6961V14.0687C193.04 14.0884 192.913 14.1032 192.781 14.1131C192.648 14.123 192.509 14.1279 192.365 14.1279C191.931 14.1279 191.641 14.0687 191.496 13.9503C191.352 13.832 191.279 13.5953 191.279 13.2402V9.45281H193.161V8.04733H191.279ZM196.481 6.86377V5.13281H193.913V6.86377H196.481ZM193.913 8.04733V15.6961H196.481V8.04733H193.913ZM200.241 11.8791C200.241 11.5734 200.277 11.2725 200.349 10.9766C200.421 10.6808 200.542 10.4194 200.711 10.1925C200.892 9.96569 201.127 9.78322 201.416 9.64514C201.706 9.4972 202.068 9.42322 202.502 9.42322C202.936 9.42322 203.298 9.4972 203.587 9.64514C203.889 9.78322 204.124 9.96569 204.292 10.1925C204.473 10.4194 204.6 10.6808 204.672 10.9766C204.745 11.2725 204.781 11.5734 204.781 11.8791C204.781 12.1849 204.745 12.4857 204.672 12.7816C204.6 13.0676 204.473 13.329 204.292 13.5657C204.124 13.7925 203.889 13.975 203.587 14.1131C203.298 14.2512 202.936 14.3202 202.502 14.3202C202.068 14.3202 201.706 14.2512 201.416 14.1131C201.127 13.975 200.892 13.7925 200.711 13.5657C200.542 13.329 200.421 13.0676 200.349 12.7816C200.277 12.4857 200.241 12.1849 200.241 11.8791ZM197.672 11.8791C197.672 12.4906 197.786 13.043 198.016 13.5361C198.245 14.0293 198.57 14.4534 198.992 14.8084C199.414 15.1536 199.921 15.4199 200.512 15.6073C201.103 15.7947 201.766 15.8884 202.502 15.8884C203.237 15.8884 203.901 15.7947 204.491 15.6073C205.094 15.4199 205.607 15.1536 206.029 14.8084C206.451 14.4534 206.777 14.0293 207.006 13.5361C207.235 13.043 207.35 12.4906 207.35 11.8791C207.35 11.2676 207.235 10.7153 207.006 10.2221C206.777 9.71911 206.451 9.29501 206.029 8.9498C205.607 8.59473 205.094 8.3235 204.491 8.1361C203.901 7.93884 203.237 7.84021 202.502 7.84021C201.766 7.84021 201.103 7.93884 200.512 8.1361C199.921 8.3235 199.414 8.59473 198.992 8.9498C198.57 9.29501 198.245 9.71911 198.016 10.2221C197.786 10.7153 197.672 11.2676 197.672 11.8791ZM208.477 8.04733V15.6961H211.046V11.6868C211.046 10.9076 211.202 10.3503 211.516 10.015C211.829 9.6698 212.336 9.4972 213.035 9.4972C213.65 9.4972 214.078 9.655 214.32 9.97062C214.561 10.2764 214.681 10.7449 214.681 11.3761V15.6961H217.25V10.9914C217.25 10.518 217.196 10.089 217.087 9.70432C216.991 9.3098 216.816 8.97939 216.563 8.71309C216.309 8.43692 215.96 8.22487 215.514 8.07692C215.079 7.91911 214.519 7.84021 213.831 7.84021C213.289 7.84021 212.758 7.94377 212.239 8.1509C211.721 8.34816 211.299 8.6687 210.973 9.11254H210.919V8.04733H208.477Z" fill="#2A2A2A"/>
<path d="M48.7895 19.6535C53.523 18.9817 56.1588 14.3099 54.677 9.21864C53.1951 4.12738 48.1566 0.544628 43.4232 1.21635C38.6897 1.88808 36.0538 6.55991 37.5357 11.6512C39.0176 16.7424 44.0561 20.3252 48.7895 19.6535Z" fill="#2A2A2A"/>
<path d="M34.9777 18.1827C38.0251 17.4059 38.3219 13.3385 35.6406 9.09788C32.9593 4.85724 28.3152 2.04921 25.2678 2.82597C22.2204 3.60273 21.9236 7.67014 24.6049 11.9108C27.2862 16.1514 31.9303 18.9594 34.9777 18.1827Z" fill="#2A2A2A"/>
<path d="M24.7859 15.6809C26.2117 15.1121 24.4776 12.0592 20.9125 8.86207C17.3475 5.66492 13.3016 3.5342 11.8757 4.10297C10.4498 4.67173 12.184 7.72461 15.749 10.9218C19.3141 14.1189 23.36 16.2496 24.7859 15.6809Z" fill="#2A2A2A"/>
<path d="M16.4623 13.0606C16.895 12.6935 13.7358 11.0769 9.40617 9.44984C5.07654 7.82275 1.21596 6.8013 0.783337 7.16837C0.350712 7.53544 3.50986 9.15203 7.8395 10.7791C12.1691 12.4062 16.0297 13.4277 16.4623 13.0606Z" fill="#2A2A2A"/>
</svg>
