<svg width="64" height="64" viewBox="0 0 64 64" fill="none" xmlns="http://www.w3.org/2000/svg">
<rect width="64" height="64" fill="#D0F657"/>
<g opacity="0.8" clip-path="url(#clip0_2008_286)">
<mask id="mask0_2008_286" style="mask-type:luminance" maskUnits="userSpaceOnUse" x="16" y="15" width="32" height="33">
<path d="M47.666 15.625H16.666V47.625H47.666V15.625Z" fill="white"/>
</mask>
<g mask="url(#mask0_2008_286)">
<path d="M28.291 38.2916C28.4917 38.2916 28.6911 38.2869 28.8893 38.2777C28.8889 38.2777 28.8896 38.2777 28.8893 38.2777C28.9048 38.2769 28.9214 38.2761 28.9369 38.2754C35.0568 37.9678 39.916 33.3171 39.916 27.6249C39.916 21.7339 34.7114 16.9583 28.291 16.9583C21.8707 16.9583 16.666 21.7339 16.666 27.6249C16.666 29.6976 17.3103 31.6323 18.4251 33.2693L16.666 39.6249L23.8806 37.4972C24.5032 37.7316 25.1528 37.9179 25.824 38.0509C26.6191 38.2085 27.4445 38.2916 28.291 38.2916Z" fill="#2A2A2A"/>
<path d="M47.666 32.9583C47.666 28.7185 44.9703 25.0565 41.0656 23.3367C41.5744 24.6652 41.8535 26.1061 41.8535 27.6249C41.8535 34.8355 35.5605 40.2916 28.291 40.2916C28.0532 40.2916 27.8166 40.2859 27.5815 40.2745C29.7014 42.3373 32.7073 43.6249 36.041 43.6249C37.6022 43.6249 39.0914 43.3425 40.4515 42.8305L47.666 44.9583L45.9069 38.6027C47.0217 36.9656 47.666 35.0309 47.666 32.9583Z" fill="#2A2A2A"/>
</g>
</g>
<defs>
<clipPath id="clip0_2008_286">
<rect width="31" height="32" fill="white" transform="translate(16.666 15.625)"/>
</clipPath>
</defs>
</svg>
