<svg width="64" height="64" viewBox="0 0 64 64" fill="none" xmlns="http://www.w3.org/2000/svg">
<rect width="64" height="64" fill="#D0F657"/>
<g opacity="0.8">
<path fill-rule="evenodd" clip-rule="evenodd" d="M25.6674 22.2916V20.9583C25.6674 18.7491 27.4583 16.9583 29.6674 16.9583H35.0007C37.2099 16.9583 39.0007 18.7491 39.0007 20.9583V22.2916H45.6674V26.9583L40.3341 28.9583H24.3341L19.0007 26.9583V22.2916H25.6674ZM27.6674 20.9583C27.6674 19.8537 28.5628 18.9583 29.6674 18.9583H35.0007C36.1053 18.9583 37.0007 19.8537 37.0007 20.9583V22.2916H27.6674V20.9583Z" fill="#2A2A2A"/>
<path d="M45.6674 29.0942L40.6967 30.9582H39.0007V33.6249H37.0007V30.9582H27.6674V33.6249H25.6674V30.9582H23.9714L19.0007 29.0942V43.6249H45.6674V29.0942Z" fill="#2A2A2A"/>
</g>
</svg>
