<svg width="148" height="25" viewBox="0 0 148 25" fill="none" xmlns="http://www.w3.org/2000/svg">
<path fill-rule="evenodd" clip-rule="evenodd" d="M21.1289 0.0524308C19.2662 0.338794 17.9442 1.35513 17.2322 3.04811C16.9497 3.72003 16.8165 4.48609 16.8135 5.45637C16.8081 7.24481 17.2801 8.6608 18.4234 10.2855C18.9071 10.9728 19.4095 11.5606 20.7183 12.9702C21.5539 13.8703 22.1948 14.613 22.5688 15.1146C23.7882 16.7503 24.3551 18.2364 24.451 20.0482C24.5501 21.9225 23.6823 23.2745 22.0665 23.7632C21.6559 23.8873 20.8977 23.9204 20.3865 23.8365C18.2432 23.4846 17.0067 21.8191 16.6419 18.793C16.6028 18.4684 16.532 17.3868 16.5306 17.0923L16.5299 16.9432L16.0039 16.9529L15.4779 16.9625L15.4889 17.5204C15.5437 20.2944 16.2004 22.3176 17.4434 23.5416C17.8691 23.9608 18.2564 24.2285 18.7984 24.4784C19.539 24.8198 20.1669 24.9564 21.1437 24.9886C23.0904 25.0528 24.7087 24.5369 25.8633 23.484C27.0979 22.3581 27.6954 20.7654 27.6291 18.7769C27.5898 17.5987 27.3476 16.691 26.7727 15.5678C26.2134 14.475 25.4491 13.4457 23.8215 11.593C22.2835 9.84227 21.6168 8.9792 21.068 8.02855C20.5731 7.17135 20.2653 6.36857 20.0883 5.47349C20.0094 5.07458 19.9779 3.97515 20.0339 3.5731C20.2217 2.22402 20.8474 1.42379 21.9189 1.16215C22.2656 1.07745 22.953 1.08708 23.3399 1.18202C24.5996 1.49112 25.3959 2.42817 25.8538 4.14025C26.0624 4.92029 26.1807 5.84333 26.2244 7.03411L26.2491 7.7053H26.7833H27.3176L27.2921 6.98181C27.1899 4.08352 26.6725 2.34595 25.5864 1.25385C24.9897 0.653853 24.2933 0.297477 23.3394 0.104069C22.8508 0.00501161 21.6238 -0.0236491 21.1289 0.0524308ZM45.9663 0.051071C45.1139 0.179452 44.3621 0.494789 43.6448 1.02473C42.0453 2.20648 40.881 4.49966 40.3223 7.56866C39.778 10.5584 39.7626 14.6165 40.2845 17.5552C40.756 20.2106 41.6216 22.1321 42.9204 23.4066C43.3963 23.8736 43.8067 24.1671 44.3607 24.4365C45.1325 24.812 45.7335 24.9556 46.6676 24.9879C48.786 25.061 50.3032 24.2055 51.2593 22.3986C52.0154 20.9697 52.4442 18.76 52.4442 16.2919V15.655H51.9145H51.3849L51.3618 16.5703C51.2836 19.674 50.6089 21.9214 49.4174 23.0468C49.0653 23.3794 48.6879 23.6033 48.2363 23.7472C47.9369 23.8427 47.8176 23.8614 47.4197 23.8758C46.6008 23.9053 46.0574 23.7324 45.5568 23.2832C44.4667 22.3051 43.9147 20.261 43.6567 16.2477C43.5945 15.279 43.5704 11.1995 43.6191 9.86706C43.7503 6.27634 44.1011 4.09335 44.7653 2.73538C44.972 2.31276 45.2026 2.00038 45.5136 1.72201C46.0108 1.27689 46.4979 1.1074 47.2766 1.10845C47.6267 1.1089 47.8093 1.12682 48.0333 1.18272C49.8865 1.64488 50.8599 3.6073 51.0784 7.32176C51.0981 7.65736 51.1145 8.10062 51.1148 8.30676L51.1154 8.68158H51.6506H52.1858L52.1856 8.42879C52.1851 7.91764 52.1084 6.48788 52.0551 5.99681C51.7825 3.48607 51.058 1.80705 49.8508 0.888334C49.4994 0.620834 48.8097 0.286424 48.3826 0.176453C47.7153 0.00459323 46.6439 -0.0510198 45.9663 0.051071ZM73.6125 0.0553248C71.6906 0.376904 70.1343 1.83644 69.1173 4.27089C68.1748 6.52742 67.6996 9.67539 67.7754 13.162C67.826 15.4921 68.0393 17.2305 68.4811 18.9151C68.7628 19.989 69.0324 20.7047 69.4793 21.565C70.2149 22.9808 71.1946 23.9926 72.3576 24.5374C72.9667 24.8228 73.5346 24.9571 74.2621 24.988C75.6816 25.0483 76.8227 24.6397 77.7835 23.7274C78.6888 22.8677 79.3419 21.6745 79.8339 19.9814C80.5284 17.5916 80.8011 14.0836 80.6038 10.0763C80.293 3.76232 78.5773 0.505459 75.3242 0.0541045C74.8441 -0.0124917 74.0144 -0.0118989 73.6125 0.0553248ZM96.5498 0.051594C94.9186 0.343362 93.5654 1.41748 92.5697 3.2108C91.7448 4.69666 91.1779 6.6642 90.9081 8.97795C90.7585 10.2606 90.7391 10.6768 90.7402 12.5867C90.7414 14.5395 90.7713 15.1013 90.945 16.4395C91.5997 21.483 93.6456 24.5078 96.7014 24.9503C97.3984 25.0512 98.2993 24.985 98.9519 24.7849C100.23 24.3931 101.321 23.3664 102.068 21.8549C102.73 20.5151 103.182 18.7134 103.415 16.4918C103.541 15.2952 103.569 14.7611 103.591 13.1097C103.68 6.54827 102.662 2.61931 100.436 0.936764C99.9148 0.542732 99.3097 0.268642 98.6232 0.11561C98.1251 0.00459321 97.0057 -0.0299601 96.5498 0.051594ZM112.221 0.0232471C112.16 0.0304297 111.946 0.0684697 111.746 0.107765C109.003 0.644892 107.054 3.14486 106.189 7.23459C105.462 10.6726 105.519 15.758 106.321 19.0365C106.593 20.1497 106.929 21.0694 107.357 21.8764C107.725 22.57 108.169 23.1698 108.662 23.6398C109.429 24.3716 110.428 24.8431 111.464 24.9631C112.742 25.1112 113.813 24.8126 114.628 24.0816C114.926 23.8141 115.257 23.3749 115.383 23.0781C115.427 22.9746 115.474 22.8784 115.486 22.8645C115.498 22.8504 115.547 23.2349 115.593 23.7187C115.639 24.2025 115.686 24.6494 115.697 24.7117L115.718 24.825H117.19H118.662V19.072V13.3189H115.469H112.277V13.7896V14.2603H113.735H115.193L115.192 16.7097C115.192 18.0569 115.175 19.4259 115.156 19.7519C115.047 21.5465 114.685 22.6526 113.993 23.3095C113.553 23.727 113.149 23.8841 112.518 23.8831C111.544 23.8816 110.931 23.4767 110.452 22.5186C109.991 21.5969 109.669 19.9811 109.509 17.7819C109.33 15.3263 109.313 10.8352 109.473 8.43751C109.764 4.09178 110.567 1.93748 112.124 1.32205C112.523 1.16459 112.857 1.10674 113.366 1.10754C114.826 1.10981 115.8 1.93797 116.415 3.70061C116.801 4.80582 116.973 5.98974 117.06 8.13242L117.083 8.68158H117.596H118.109L118.108 7.94065C118.107 5.66394 117.754 3.75517 117.09 2.44285C116.239 0.759047 114.903 -0.0143396 112.881 0.00490701C112.579 0.00776611 112.282 0.0160296 112.221 0.0232471ZM141.805 0.0238398C141.734 0.0310225 141.515 0.0671796 141.317 0.104243C140.335 0.288795 139.514 0.699912 138.814 1.359C137.936 2.1848 137.411 3.30375 137.262 4.66772C137.208 5.16244 137.238 6.30141 137.318 6.78132C137.462 7.65011 137.765 8.53667 138.185 9.31964C138.766 10.4017 139.372 11.19 141.03 13.0225C142.319 14.4456 142.927 15.1983 143.427 15.9894C144.37 17.48 144.832 19.0045 144.832 20.6233C144.832 21.8709 144.489 22.722 143.748 23.3162C143.29 23.6832 142.769 23.8486 141.99 23.8733C141.374 23.8928 140.972 23.8323 140.45 23.6418C138.676 22.993 137.68 20.9219 137.566 17.6449L137.542 16.9625L137.016 16.9529L136.49 16.9432L136.491 17.3887C136.493 18.8605 136.719 20.3661 137.105 21.4778C137.275 21.9691 137.684 22.7495 137.972 23.1318C138.91 24.3787 140.295 24.9994 142.138 24.9994C144.981 24.9994 147.055 23.6094 147.749 21.2388C147.941 20.5816 147.975 20.333 147.995 19.4206C148.016 18.4427 147.975 18.0496 147.769 17.2814C147.615 16.7057 147.44 16.2594 147.124 15.6376C146.546 14.5018 145.908 13.6265 144.148 11.5581C142.707 9.86462 142.077 9.03279 141.534 8.1069C140.524 6.38687 140.166 4.47581 140.571 2.96843C140.922 1.66095 141.98 0.968563 143.399 1.11612C144.526 1.2332 145.338 1.78661 145.897 2.81809C146.429 3.80075 146.718 5.16164 146.776 6.96438L146.8 7.7053H147.335H147.87L147.846 6.92048C147.819 6.09298 147.747 5.25882 147.654 4.70673C147.171 1.84819 145.846 0.362085 143.504 0.0535466C143.131 0.00445374 142.165 -0.0124219 141.805 0.0238398ZM0.0359974 0.706677C0.0481041 1.19625 0.0568151 1.25336 0.143482 1.41242C0.376168 1.83954 1.03407 1.94958 1.42355 1.62657C1.49586 1.56657 1.57799 1.46563 1.60604 1.4022C1.63907 1.32755 1.67288 1.2959 1.70204 1.31228C1.72681 1.32623 1.95824 1.48376 2.21632 1.66238C2.47444 1.84097 2.6945 1.9871 2.70539 1.9871C2.71628 1.9871 2.72521 1.85328 2.72521 1.68968V1.3923L2.20846 1.07567C1.92425 0.901514 1.69171 0.7451 1.69171 0.728015C1.69171 0.710965 1.92425 0.697018 2.20846 0.697018H2.72521V0.435515V0.174012H1.37402H0.0228202L0.0359974 0.706677ZM4.01709 12.4976V24.825H5.77036H7.52363V19.6124V14.3998L8.10497 14.3997C9.78076 14.3996 11.2837 14.0197 12.4263 13.3072C13.979 12.3391 14.888 10.8474 15.2288 8.70769C15.3084 8.20798 15.3191 6.42711 15.2455 5.94451C14.9893 4.26695 14.4213 3.03506 13.463 2.07859C12.5167 1.13404 11.2806 0.55232 9.6264 0.27307C9.1852 0.198594 9.05971 0.194863 6.59163 0.182764L4.01709 0.170107V12.4976ZM27.8807 0.217596C27.89 0.241585 28.911 3.64862 30.1496 7.78881L32.4016 15.3164V20.0707V24.825H34.1548H35.9081V20.0483V15.2716L37.9756 7.78379C39.1128 3.66553 40.0524 0.268607 40.0636 0.23503C40.0824 0.17865 40.039 0.174012 39.4924 0.174012H38.9007L38.8647 0.304764C38.8449 0.376695 38.0297 3.37742 37.0532 6.97309C36.0767 10.5688 35.274 13.5232 35.2693 13.5386C35.2647 13.5539 34.4404 10.6277 33.4375 7.03585C32.4345 3.44402 31.5912 0.430739 31.5634 0.339631L31.5128 0.174012H29.6883C28.2443 0.174012 27.8673 0.183113 27.8807 0.217596ZM54.2159 12.4995V24.825H55.9691H57.7224V18.3921V11.9591H61.192H64.6617V18.3921V24.825H65.1969H65.7321V12.4995V0.174012H65.1969H64.6617V5.59584V11.0177H61.192H57.7224V5.59584V0.174012H55.9691H54.2159V12.4995ZM82.9325 12.4995V24.825H87.1957H91.4589V24.3543V23.8836H88.949H86.4391V12.0288V0.174012H84.6858H82.9325V12.4995ZM121.467 12.4995V24.825H123.221H124.974V12.4995V0.174012H123.221H121.467V12.4995ZM127.853 12.4995V24.825H132.117H136.382L136.371 24.363L136.361 23.9011L133.86 23.8921L131.36 23.8831V17.625V11.3669L133.602 11.3579L135.844 11.3489L135.855 10.8869L135.865 10.4249H133.612H131.36V5.75274V1.08056H133.777H136.195V0.627284V0.174012H132.024H127.853V12.4995ZM1.28569 0.747611C1.28569 0.775434 1.26775 0.877281 1.24579 0.973933C1.19732 1.18739 1.07866 1.28976 0.879669 1.28976C0.63639 1.28976 0.474498 1.09154 0.473871 0.792903L0.47365 0.697018H0.879669C1.20984 0.697018 1.28569 0.706467 1.28569 0.747611ZM75.6611 1.19C77.258 1.57358 78.418 3.27739 79.0383 6.15051C79.3598 7.64003 79.5043 8.99106 79.5803 11.2178C79.6285 12.6305 79.5898 14.3288 79.481 15.5853C79.1002 19.9815 77.9235 22.7614 76.0724 23.6378C75.417 23.9482 74.6071 23.9689 74.037 23.69C72.8334 23.101 72.0336 21.0511 71.6778 17.6424C71.5107 16.0418 71.4538 14.7216 71.4535 12.4436C71.4526 5.77614 72.1236 2.38567 73.6321 1.43407C74.1597 1.10123 74.9139 1.01051 75.6611 1.19ZM98.5274 1.17065C99.4596 1.38313 100.236 2.00631 100.858 3.0403C101.367 3.88875 101.842 5.30519 102.104 6.76389C102.43 8.57816 102.552 10.4037 102.521 13.0051C102.501 14.6534 102.46 15.3967 102.329 16.5159C101.781 21.1902 100.154 23.8862 97.8848 23.8832C97.0345 23.8821 96.4278 23.4868 95.8792 22.5761C94.8965 20.945 94.3749 17.437 94.3758 12.4647C94.3765 8.62513 94.6368 5.67792 95.1345 3.87393C95.6885 1.86622 96.5649 1.02205 98.0106 1.1035C98.173 1.11267 98.4056 1.14286 98.5274 1.17065ZM9.23009 1.2044C10.6292 1.38596 11.6878 1.84428 12.5276 2.63214C13.6604 3.69492 14.2133 5.21673 14.2122 7.26946C14.2118 8.01841 14.1681 8.46906 14.0346 9.09998C13.5059 11.5996 11.7739 13.0896 9.05543 13.3834C8.87272 13.4032 8.45334 13.4301 8.12343 13.4433L7.52363 13.4673V7.28588V1.10448L8.1689 1.12745C8.5238 1.14011 9.00135 1.17473 9.23009 1.2044ZM0.0307191 2.54246V2.71429L0.898567 3.38799L1.76638 4.06169L0.898567 4.07104L0.0307191 4.08038V4.34126V4.60213H1.37797H2.72521V4.41437V4.22661L1.8536 3.55141L0.981986 2.87621L1.8536 2.86687L2.72521 2.85752V2.61408V2.37064H1.37797H0.0307191V2.54246ZM0.0553387 4.93919C0.0417924 4.95195 0.0307191 5.25791 0.0307191 5.6191V6.27575H1.37797H2.72521V6.03168V5.78761H1.61789H0.51056V5.35177V4.91593H0.295259C0.176812 4.91593 0.068848 4.92639 0.0553387 4.93919ZM0.839805 6.8088C0.302863 7.02246 0.0388764 7.38871 0.00366344 7.9689C-0.0298516 8.52077 0.166736 8.93558 0.587557 9.20106C0.855529 9.3701 1.11132 9.42826 1.49464 9.40727C2.1587 9.37097 2.6443 8.96714 2.76563 8.35034C2.88843 7.72598 2.58945 7.11141 2.03635 6.85113C1.84732 6.76218 1.77332 6.74834 1.43333 6.7383C1.09301 6.72826 1.02067 6.73683 0.839805 6.8088ZM1.84378 7.34945C2.11393 7.48278 2.25512 7.69753 2.27597 8.00687C2.29483 8.28706 2.22201 8.48144 2.03284 8.65585C1.77815 8.89068 1.32463 8.96125 0.990402 8.81812C0.644621 8.67004 0.494283 8.44378 0.494283 8.0714C0.494283 7.78431 0.583976 7.58989 0.786875 7.43693C0.965339 7.30245 1.11594 7.25778 1.40144 7.25468C1.60131 7.25252 1.68267 7.26995 1.84378 7.34945ZM0.0553387 9.85545C0.0417924 9.86821 0.0307191 10.2605 0.0307191 10.7271V11.5755L0.925808 11.5764C1.41809 11.5768 1.88734 11.5917 1.96854 11.6094C2.16653 11.6526 2.29365 11.7929 2.27457 11.9473L2.26021 12.0637H2.48876C2.66313 12.0637 2.72263 12.0506 2.73972 12.0085C2.81118 11.8326 2.70141 11.4606 2.53243 11.3061C2.31059 11.1033 2.22271 11.0874 1.32378 11.0874H0.51056V10.7213V10.3552H1.61789H2.72521V10.0937V9.83219H1.40259C0.675109 9.83219 0.068848 9.84265 0.0553387 9.85545ZM0.991288 12.2916C0.585047 12.3994 0.290535 12.6363 0.109524 13.0009C0.0221189 13.177 0.0122637 13.2375 0.0122637 13.5978C0.0122637 13.9592 0.0219712 14.0184 0.110447 14.1967C0.304302 14.5873 0.648238 14.8426 1.09025 14.9239C1.55887 15.0102 2.07761 14.8721 2.38877 14.5781C2.92527 14.0713 2.92494 13.124 2.38811 12.6169C2.05949 12.3065 1.46083 12.1671 0.991288 12.2916ZM1.67576 12.8123C2.06104 12.9209 2.28228 13.2074 2.28228 13.5978C2.28228 13.9949 2.05997 14.2766 1.65897 14.3874C1.40952 14.4564 1.14797 14.4282 0.912261 14.307C0.543965 14.1177 0.386171 13.7082 0.530529 13.3164C0.622327 13.0672 0.78455 12.9208 1.07338 12.8266C1.31108 12.749 1.4402 12.7459 1.67576 12.8123ZM2.02819 15.4467C1.65498 15.6763 1.33264 15.8642 1.31186 15.8642C1.29108 15.8642 1.01775 15.7062 0.704453 15.5132C0.391117 15.3202 0.111369 15.1538 0.0827634 15.1434C0.0405005 15.1281 0.0307191 15.1802 0.0307191 15.4209V15.7173L0.418689 15.9342C0.632108 16.0535 0.813082 16.1611 0.82087 16.1733C0.828658 16.1855 0.654218 16.2896 0.433232 16.4046L0.0314204 16.6138L0.0310513 16.921C0.0307929 17.1569 0.0414233 17.2223 0.0768577 17.2031C0.102252 17.1894 0.385949 17.0225 0.707295 16.8323C1.02868 16.6421 1.31415 16.4947 1.34168 16.5046C1.36922 16.5146 1.69178 16.7122 2.05849 16.9436L2.72521 17.3644V17.056V16.7476L2.26383 16.4751C2.01006 16.3251 1.80244 16.1928 1.80244 16.181C1.80244 16.1691 2.01006 16.0423 2.26383 15.8991L2.72521 15.6387V15.333C2.72521 15.1649 2.72108 15.0278 2.71598 15.0283C2.71089 15.0287 2.40139 15.217 2.02819 15.4467ZM0.0380275 17.8938L0.0491745 18.0754L0.906171 18.7393L1.7632 19.4032L0.906171 19.4206L0.0491745 19.4381L0.0383227 19.6909L0.027471 19.9436H1.37634H2.72521V19.7558V19.568L1.85161 18.8929L0.978 18.2177L1.85161 18.2084L2.72521 18.199V17.9556V17.7122H1.37605H0.0268435L0.0380275 17.8938ZM0.0824681 20.5442C0.0271388 20.6602 0.0122637 20.7729 0.0122637 21.0759C0.0122637 21.4258 0.0214914 21.4781 0.114913 21.6578C0.251557 21.9207 0.476602 22.1275 0.768936 22.259C0.987707 22.3574 1.04141 22.3669 1.37797 22.3667C1.70429 22.3666 1.77273 22.3553 1.96854 22.2691C2.59196 21.995 2.91811 21.3433 2.74721 20.7131C2.71381 20.5899 2.66826 20.4684 2.64596 20.443C2.59983 20.3905 2.02391 20.3761 2.02391 20.4275C2.02391 20.4443 2.05144 20.4797 2.0851 20.506C2.19222 20.5897 2.28062 20.824 2.28147 21.0264C2.28302 21.3967 2.04192 21.706 1.66905 21.812C1.44651 21.8752 1.34508 21.8741 1.09862 21.8056C0.750223 21.7088 0.47365 21.3671 0.47365 21.0336C0.47365 20.8871 0.563601 20.6621 0.679612 20.5184L0.777684 20.3969H0.465197H0.152673L0.0824681 20.5442ZM0.0307191 23.8139V24.825H1.37797H2.72521V24.5635V24.302H1.61789H0.51056V23.8139V23.3257H1.61789H2.72521V23.0642V22.8027H1.37797H0.0307191V23.8139Z" fill="#2A2A2A"/>
</svg>
