<svg width="64" height="64" viewBox="0 0 64 64" fill="none" xmlns="http://www.w3.org/2000/svg">
<rect width="64" height="64" fill="#D0F657"/>
<g opacity="0.8">
<path fill-rule="evenodd" clip-rule="evenodd" d="M25.6673 22.2916V20.9583C25.6673 18.7491 27.4581 16.9583 29.6673 16.9583H35.0006C37.2098 16.9583 39.0006 18.7491 39.0006 20.9583V22.2916H45.6673V26.9583L40.3339 28.9583H24.3339L19.0006 26.9583V22.2916H25.6673ZM27.6673 20.9583C27.6673 19.8537 28.5627 18.9583 29.6673 18.9583H35.0006C36.1051 18.9583 37.0006 19.8537 37.0006 20.9583V22.2916H27.6673V20.9583Z" fill="#2A2A2A"/>
<path d="M45.6673 29.0942L40.6966 30.9582H39.0006V33.6249H37.0006V30.9582H27.6673V33.6249H25.6673V30.9582H23.9713L19.0006 29.0942V43.6249H45.6673V29.0942Z" fill="#2A2A2A"/>
</g>
</svg>
