<svg width="18" height="25" viewBox="0 0 18 25" fill="none" xmlns="http://www.w3.org/2000/svg">
<path fill-rule="evenodd" clip-rule="evenodd" d="M6.59872 24.8033C6.26399 25.0066 5.79102 24.7758 5.79102 24.3386V15.0305H0.535861C0.0789322 15.0305 -0.167583 14.4912 0.129794 14.1422L11.2681 1.06693C11.3085 1.01952 11.3535 0.981618 11.4013 0.952577C11.736 0.749293 12.209 0.979987 12.209 1.41716V10.7253H17.4642C17.9211 10.7253 18.1676 11.2646 17.8702 11.6137L6.73192 24.6889C6.69153 24.7363 6.64653 24.7742 6.59872 24.8033ZM7.92478 13.8441C7.87002 13.3015 7.41455 12.878 6.86068 12.878H4.0244L10.0697 5.7814V11.8017C10.0697 12.396 10.5486 12.878 11.1393 12.878H13.9757L7.93034 19.9745V13.9543C7.93034 13.917 7.92853 13.8803 7.92478 13.8441Z" fill="#465068"/>
</svg>
