<svg width="35" height="35" viewBox="0 0 35 35" fill="none" xmlns="http://www.w3.org/2000/svg">
<g clip-path="url(#clip0_182_385)">
<mask id="mask0_182_385" style="mask-type:luminance" maskUnits="userSpaceOnUse" x="0" y="0" width="35" height="35">
<path d="M34.0625 0.90625H0.0625V34.9062H34.0625V0.90625Z" fill="white"/>
</mask>
<g mask="url(#mask0_182_385)">
<path fill-rule="evenodd" clip-rule="evenodd" d="M9.97913 15.7812C12.9131 15.7812 15.2916 13.4028 15.2916 10.4688C15.2916 7.53473 12.9131 5.15625 9.97913 5.15625C7.04511 5.15625 4.66663 7.53473 4.66663 10.4688C4.66663 13.4028 7.04511 15.7812 9.97913 15.7812ZM9.97913 12.9479C11.3483 12.9479 12.4583 11.838 12.4583 10.4688C12.4583 9.09954 11.3483 7.98958 9.97913 7.98958C8.60992 7.98958 7.49996 9.09954 7.49996 10.4688C7.49996 11.838 8.60992 12.9479 9.97913 12.9479Z" fill="white"/>
<path fill-rule="evenodd" clip-rule="evenodd" d="M29.4584 10.4688C29.4584 13.4028 27.0799 15.7812 24.1459 15.7812C21.2118 15.7812 18.8334 13.4028 18.8334 10.4688C18.8334 7.53473 21.2118 5.15625 24.1459 5.15625C27.0799 5.15625 29.4584 7.53473 29.4584 10.4688ZM26.625 10.4688C26.625 11.838 25.5151 12.9479 24.1459 12.9479C22.7767 12.9479 21.6667 11.838 21.6667 10.4688C21.6667 9.09954 22.7767 7.98958 24.1459 7.98958C25.5151 7.98958 26.625 9.09954 26.625 10.4688Z" fill="white"/>
<path fill-rule="evenodd" clip-rule="evenodd" d="M21.9623 20.9893C22.6628 20.826 23.3937 20.7396 24.1458 20.7396C26.9534 20.7396 29.4759 21.9462 31.2291 23.8779V26.4062H22.7291C22.7291 27.4384 22.4532 28.4062 21.9711 29.2396H31.2291C32.794 29.2396 34.0625 27.9711 34.0625 26.4062V23.8092C34.0625 23.1952 33.8711 22.5909 33.4662 22.1295C31.1943 19.5405 27.8609 17.9062 24.1458 17.9062C22.6252 17.9062 21.1684 18.1801 19.8221 18.6812C20.3962 19.1676 20.9334 19.6958 21.4291 20.2606C21.6331 20.4931 21.8102 20.7373 21.9623 20.9893Z" fill="white"/>
<path fill-rule="evenodd" clip-rule="evenodd" d="M17.0625 29.2396C18.6274 29.2396 19.8958 27.9711 19.8958 26.4062V23.8092C19.8958 23.1952 19.7044 22.5909 19.2996 22.1295C18.6383 21.376 17.887 20.7032 17.0625 20.1282C15.0547 18.7276 12.6128 17.9062 9.97917 17.9062C6.26407 17.9062 2.9307 19.5405 0.658786 22.1295C0.253886 22.5909 0.0625 23.1952 0.0625 23.8092V26.4062C0.0625 27.9711 1.33103 29.2396 2.89583 29.2396H17.0625ZM9.97917 20.7396C12.7868 20.7396 15.3092 21.9462 17.0625 23.8779V26.4062H2.89583V23.8779C4.64907 21.9462 7.17157 20.7396 9.97917 20.7396ZM2.89612 23.802C2.8961 23.8021 2.89616 23.8016 2.89612 23.802V23.802Z" fill="white"/>
</g>
</g>
<defs>
<clipPath id="clip0_182_385">
<rect width="34" height="34" fill="white" transform="translate(0.0625 0.90625)"/>
</clipPath>
</defs>
</svg>
