<svg width="16" height="16" viewBox="0 0 16 16" fill="none" xmlns="http://www.w3.org/2000/svg">
<path d="M9.54287 9.54286C8.28573 10.84 8.1943 12.4571 8.08573 16C11.3886 16 13.6686 15.9886 14.8457 14.8457C15.9886 13.6686 16 11.28 16 8.08573C12.4572 8.20001 10.84 8.28572 9.54287 9.54286ZM1.01574e-05 8.08573C1.01574e-05 11.28 0.0114346 13.6686 1.15429 14.8457C2.33143 15.9886 4.61143 16 7.91428 16C7.8 12.4572 7.71428 10.84 6.45714 9.54286C5.16 8.28572 3.54287 8.1943 1.01574e-05 8.08573ZM7.91428 9.23396e-06C4.61715 9.23396e-06 2.33143 0.0114346 1.15429 1.15429C0.0114346 2.33143 1.01574e-05 4.72 1.01574e-05 7.91428C3.54286 7.8 5.16 7.71428 6.45715 6.45714C7.71429 5.16 7.80571 3.54287 7.91428 9.23396e-06ZM9.54286 6.45714C8.28572 5.16 8.19429 3.54286 8.08572 0C11.3886 0 13.6686 0.0114245 14.8457 1.15428C15.9886 2.33142 16 4.71999 16 7.91427C12.4571 7.79999 10.84 7.71428 9.54286 6.45714Z" fill="#465068"/>
</svg>
