<svg width="48" height="48" viewBox="0 0 48 48" fill="none" xmlns="http://www.w3.org/2000/svg">
<path fill-rule="evenodd" clip-rule="evenodd" d="M13.1053 33C18.4537 33 22.7895 28.7467 22.7895 23.5C22.7895 22.3262 22.5724 21.2021 22.1756 20.1642C22.7586 20.0162 23.3699 19.9375 24 19.9375C24.6301 19.9375 25.2414 20.0162 25.8244 20.1642C25.4276 21.2021 25.2105 22.3262 25.2105 23.5C25.2105 28.7467 29.5463 33 34.8947 33C40.2432 33 44.5789 28.7467 44.5789 23.5C44.5789 23.0978 44.5535 22.7015 44.504 22.3125H47V19.9375H43.875C42.4384 16.456 38.959 14 34.8947 14C31.6262 14 28.7358 15.5885 26.9821 18.0215C26.0428 17.7235 25.0406 17.5625 24 17.5625C22.9594 17.5625 21.9572 17.7235 21.0179 18.0215C19.2642 15.5885 16.3738 14 13.1053 14C9.04107 14 5.56161 16.456 4.125 19.9375H1V22.3125H3.49597C3.44652 22.7015 3.42105 23.0978 3.42105 23.5C3.42105 28.7467 7.75682 33 13.1053 33ZM13.1053 30.625C17.1166 30.625 20.3684 27.435 20.3684 23.5C20.3684 19.565 17.1166 16.375 13.1053 16.375C9.09393 16.375 5.84211 19.565 5.84211 23.5C5.84211 27.435 9.09393 30.625 13.1053 30.625ZM42.1579 23.5C42.1579 27.435 38.9061 30.625 34.8947 30.625C30.8834 30.625 27.6316 27.435 27.6316 23.5C27.6316 19.565 30.8834 16.375 34.8947 16.375C38.9061 16.375 42.1579 19.565 42.1579 23.5Z" fill="#465068"/>
</svg>
