<svg width="17" height="13" viewBox="0 0 17 13" fill="none" xmlns="http://www.w3.org/2000/svg">
<path d="M16.6447 1.77608C16.4492 1.07733 15.8729 0.5265 15.1419 0.339671C13.8159 -8.30208e-08 8.5 0 8.5 0C8.5 0 3.1841 -8.30208e-08 1.8581 0.339671C1.1271 0.5265 0.5508 1.07733 0.3553 1.77608C-2.5332e-07 3.04358 0 6.5 0 6.5C0 6.5 -2.5332e-07 9.95633 0.3553 11.2238C0.5508 11.9226 1.1271 12.4735 1.8581 12.6603C3.1841 13 8.5 13 8.5 13C8.5 13 13.8159 13 15.1419 12.6603C15.8737 12.4735 16.4492 11.9226 16.6447 11.2238C17 9.95633 17 6.5 17 6.5C17 6.5 17 3.04358 16.6447 1.77608ZM6.8 8.61083V4.38917C6.8 4.07634 7.15445 3.88134 7.4375 4.03734L11.2625 6.14816C11.5455 6.30416 11.5455 6.69584 11.2625 6.85184L7.4375 8.96266C7.15445 9.1195 6.8 8.92366 6.8 8.61083Z" fill="#465068"/>
</svg>
