<svg width="15" height="13" viewBox="0 0 15 13" fill="none" xmlns="http://www.w3.org/2000/svg">
<path d="M0.264968 6.23341L3.72121 7.51753L5.05901 11.8001C5.14463 12.0744 5.48162 12.1758 5.70522 11.9938L7.63184 10.4304C7.83383 10.2666 8.12144 10.2584 8.33255 10.411L11.8074 12.9222C12.0467 13.0953 12.3856 12.9648 12.4456 12.677L14.9912 0.488718C15.0567 0.174397 14.7464 -0.087832 14.4457 0.0278678L0.260868 5.47477C-0.0891537 5.60923 -0.0861069 6.10248 0.264968 6.23341ZM4.84342 6.83401L11.5984 2.69277C11.7198 2.61858 11.8447 2.78191 11.7404 2.87821L6.16566 8.03642C5.96973 8.21795 5.8433 8.46096 5.80752 8.72467L5.61764 10.1255C5.59249 10.3125 5.32854 10.3311 5.27665 10.1501L4.54631 7.59562C4.46264 7.30424 4.5846 6.99307 4.84342 6.83401Z" fill="#465068"/>
</svg>
