<svg width="17" height="10" viewBox="0 0 17 10" fill="none" xmlns="http://www.w3.org/2000/svg">
<path d="M14.1223 4.9478C14.1223 4.9478 16.362 1.7133 16.5846 0.690001C16.6591 0.324401 16.4961 0 16.11 0C16.11 0 14.8194 0 14.1668 0C13.7215 0 13.5586 0.309999 13.4251 0.587799C13.4251 0.587799 12.3745 2.8544 11.0963 4.245C10.6859 4.6944 10.5811 4.86 10.3545 4.86C10.172 4.86 10.1911 4.74 10.1911 4.3344V0.781099C10.1911 0.283299 9.92451 0 9.50914 0H6.39408C6.15683 0 6.04577 0.204399 6.04577 0.389999C6.04577 0.858299 6.81001 1.0322 6.81001 2.3011V4.9183C6.81001 5.445 6.74296 5.6494 6.49107 5.6494C5.82373 5.6494 4.21742 3.3144 3.32756 0.740601C3.14887 0.215001 2.93751 0 2.43308 0H0.489789C0.207967 0 0 0.258899 0 0.536699C0 1.0483 0.608128 3.4517 2.99672 6.625C4.59897 8.76 6.77903 9.9322 8.67784 9.9322C9.83488 9.9322 10.1906 9.7594 10.1906 9.2767V7.6389C10.1906 7.2294 10.2796 7.0539 10.5169 7.0539C10.784 7.0539 11.218 7.1639 12.3192 8.2344C13.6257 9.4628 13.6775 10 14.3894 10H16.57C16.7926 10 17 9.8722 17 9.5067C17 9.0239 16.362 8.1489 15.383 7.125C14.9823 6.5989 14.3297 6.0222 14.1223 5.7589C13.8258 5.4517 13.9148 5.2694 14.1223 4.9478Z" fill="#465068"/>
</svg>
