<svg width="48" height="48" viewBox="0 0 48 48" fill="none" xmlns="http://www.w3.org/2000/svg">
<path fill-rule="evenodd" clip-rule="evenodd" d="M29.6966 31.316C27.7227 32.9311 25.1996 33.9003 22.4501 33.9003C16.1264 33.9003 11 28.7738 11 22.4501C11 16.1264 16.1264 11 22.4501 11C28.7739 11 33.9002 16.1264 33.9002 22.4501C33.9002 25.1996 32.9312 27.7228 31.3159 29.6966L37 35.3807L35.3806 37L29.6966 31.316ZM31.6103 22.4501C31.6103 27.5091 27.5091 31.6102 22.4501 31.6102C17.3912 31.6102 13.29 27.5091 13.29 22.4501C13.29 17.3911 17.3912 13.29 22.4501 13.29C27.5091 13.29 31.6103 17.3911 31.6103 22.4501Z" fill="#465068"/>
</svg>
