<svg width="959" height="524" viewBox="0 0 959 524" fill="none" xmlns="http://www.w3.org/2000/svg">
<g opacity="0.1">
<path d="M363.785 394.32C426.588 341.951 502.191 325.446 580.537 316.916C606.294 314.099 632.211 312.949 663.136 310.806C647.793 301.602 635.908 314.02 621.876 304.459C757.62 257.326 893.005 221.818 1032.49 202.06L1032.49 166.353C920.75 193.332 809.89 222.611 701.176 260.777C661.427 274.743 622.512 291.485 583.24 307.117C566.505 313.782 549.056 315.686 528.545 317.154C534.746 305.807 544.445 303.387 552.395 299.063C663.692 238.877 783.655 202.536 903.976 166.671C946.945 153.856 989.636 140.089 1032.45 126.759L1032.45 87.283C968.478 114.09 903.085 137.374 836.562 157.03C762.231 178.374 688.377 201.266 618.577 235.148C564.705 261.8 513.087 292.768 464.231 327.747C452.028 336.317 438.354 340.641 424.482 345.482C364.341 366.667 312.429 399.121 278.523 454.863C251.97 498.504 239.847 546.986 234.202 597.253C231.181 624.033 228.757 650.892 226.252 677.712L254.077 677.712C259.721 634.07 263.338 589.953 273.951 546.788C288.897 486.959 315.569 434.55 363.785 394.32Z" fill="#ECEFF6"/>
<path d="M658.485 522.071C734.684 455.26 823.166 433.836 922.42 453.593C939.393 456.966 955.372 465.496 975.723 465.496C966.979 449.348 952.629 443 941.221 433.756C829.128 343.855 701.534 307.077 559.351 329.414C452.465 346.196 368.554 397.812 326.102 502.63C303.405 558.69 293.826 617.963 285.916 677.513L317.715 677.513C321.372 626.334 336.199 577.733 353.251 529.807C398.605 402.295 494.758 343.656 615.834 333.182C712.822 324.811 801.94 351.353 883.466 403.445C903.817 416.419 924.526 429.471 944.321 451.927C923.175 445.46 907.633 440.025 891.813 436.057C803.53 412.888 721.607 425.107 646.998 479.699C590.117 521.198 552.752 578.884 515.587 636.689C507.12 649.861 495.712 661.565 492.453 677.791L528.227 677.791C528.734 675.223 529.632 672.748 530.89 670.451C570.003 617.963 609.077 565.395 658.485 522.071Z" fill="#ECEFF6"/>
<path d="M802.894 403.683C822.411 405.707 840.934 411.618 861.445 414.594C857.827 406.302 850.911 406.659 845.863 404.318C830.101 397.47 813.543 392.619 796.574 389.877C685.594 369.643 590.276 396.621 517.853 485.809C471.664 542.741 444.078 610.226 416.969 677.593L448.768 677.593C474.963 632.602 497.74 585.628 527.074 542.423C593.138 444.984 680.824 390.988 802.894 403.683Z" fill="#ECEFF6"/>
<path d="M615 373.452C682.573 353.615 748.358 361.034 813.507 383.807C820.9 386.386 827.856 391.345 840.457 389.401C836.684 386.887 832.783 384.57 828.771 382.458C766.961 356.154 702.686 341.871 635.431 349.211C549.771 358.534 478.819 394.717 429.689 468.233C386.919 532.029 367.481 604.632 349.435 677.791L381.235 677.791C399.917 612.21 423.687 548.493 460.733 490.847C497.779 433.201 548.42 392.773 615 373.452Z" fill="#ECEFF6"/>
<path d="M958.79 491.006L1019.17 494.973C1016.14 492.482 1012.89 490.265 1009.47 488.348C913.794 458.116 821.616 463.671 734.764 516.596C672.318 554.603 626.328 610.623 577.198 663.072C575.33 664.954 573.885 667.212 572.96 669.696C572.034 672.179 571.65 674.831 571.832 677.474L607.606 677.474C608.56 669.539 614.363 664.818 619.531 659.938C653.437 628.596 686.429 596.182 723.197 568.093C792.718 515.128 869.871 485.134 958.79 491.006Z" fill="#ECEFF6"/>
<path d="M933.072 517.548C911.966 516.596 893.721 521.515 875.555 527.07C804.563 548.494 746.092 591.024 689.966 637.403C674.902 649.861 657.73 660.216 647.276 677.593L679.075 677.593C723.623 638.643 772.598 605.047 824.994 577.495C840.616 569.56 853.057 556.547 871.183 550.477C836.522 586.184 823.245 629.27 826.028 677.434L845.903 677.434C843.677 607.886 869.712 553.056 933.072 517.548ZM882.71 537.901L886.168 539.646C885.319 541.061 884.334 542.389 883.227 543.614C882.989 543.852 881.398 542.741 880.405 542.225L882.71 537.901Z" fill="#ECEFF6"/>
<path d="M288.142 406.817C302.452 394.003 320.299 386.385 333.536 372.5C372.291 361.153 404.726 339.411 434.896 312.989C514.394 243.638 602.876 189.999 704.197 158.26C757.779 141.398 811.917 126.521 865.896 111.325C923.93 94.7813 978.824 70.6595 1032.49 43.5225L1032.49 9.02627e-05C1015.99 9.64088 999.692 19.5991 982.997 28.8035C904.374 72.1275 816.965 88.7906 731.306 110.611C652.761 130.448 577.476 157.823 509.704 203.686C444.475 247.844 394.789 308.426 338.782 362.145C336.502 365.264 334.78 368.754 333.695 372.46C315.847 374.245 302.253 386.227 286.234 392.297C283.561 395.167 280.664 397.821 277.569 400.232C229.273 431.971 201.449 477.517 188.292 532.664C176.963 580.272 176.367 628.992 174.896 677.553L198.746 677.553C201.449 642.838 203.119 607.965 207.093 573.369C214.407 508.621 238.137 451.57 288.142 406.817Z" fill="#ECEFF6"/>
<path d="M1032.49 511.16L1032.49 499.258C1000.69 507.59 968.529 514.414 940.625 533.576C889.666 568.608 874.403 619.589 873.608 677.553L905.407 677.553C903.817 590.469 946.309 534.727 1032.49 511.16Z" fill="#ECEFF6"/>
<path d="M1032.49 241.694C949.012 233.204 709.642 284.026 686.667 299.698C719.858 293.667 750.783 287.795 782.065 282.519C865.221 268.554 948.813 264.11 1032.88 273.394L1032.49 241.694Z" fill="#ECEFF6"/>
<path d="M222.238 424.234C203.715 425.623 193.499 444.468 175.294 446.531C174.658 470.613 154.227 485.174 146.595 506.042C126.124 561.983 123.302 619.193 131.013 677.514L150.888 677.514C150.888 665.611 151.246 653.709 150.888 642.045C147.668 560.673 162.495 485.134 222.238 424.234Z" fill="#ECEFF6"/>
<path d="M1032.49 538.893C1019.77 538.893 1009.91 545.478 1000.69 552.977C961.255 585.113 940.307 626.215 941.062 677.593L976.836 677.593C979.182 642.204 995.24 612.646 1016.59 585.39C1020.31 579.888 1026 576.014 1032.49 574.559L1032.49 538.893Z" fill="#ECEFF6"/>
<path d="M690.125 314.536C691.329 315.601 692.665 316.508 694.1 317.234C697.228 318.307 700.448 319.09 703.72 319.574C811.48 332.111 904.135 377.816 987.171 445.936C1002.32 458.354 1013.33 475.93 1032.56 483.428L1032.56 451.689C1027.88 449.272 1023.37 446.514 1019.09 443.437C938.319 376.903 845.744 336.317 743.071 317.829C725.9 314.813 708.649 310.41 690.125 314.536Z" fill="#ECEFF6"/>
<path d="M1032.49 376.427C1024.14 376.784 1017.22 372.777 1010.11 369.246C967.448 348.074 922.241 332.46 875.595 322.788C836.959 314.853 798.283 305.768 755.076 310.013C757.64 311.231 760.298 312.239 763.026 313.028C853.791 325.058 940.792 356.875 1017.86 406.223C1022.51 408.63 1027.38 410.596 1032.41 412.094L1032.49 376.427Z" fill="#ECEFF6"/>
<path d="M1032.49 309.061C946.775 288.46 857.968 283.993 770.618 295.889C823.928 298.309 877.033 304.086 929.614 313.187C964.872 319.297 998.102 332.389 1032.68 340.76L1032.49 309.061Z" fill="#ECEFF6"/>
<path d="M155.697 458.513C141.785 473.47 117.777 469.066 107.323 487.356C112.45 488.149 120.043 488.784 115.273 496.203C80.2138 552.818 84.3477 615.225 87.1699 677.593L111.019 677.593C100.685 599.871 103.626 524.768 155.697 458.513Z" fill="#ECEFF6"/>
<path d="M107.084 487.435L99.1344 487.435C79.6176 513.858 60.1007 539.448 52.9061 573.329C45.5128 608.441 51.1969 642.759 51.4354 677.434L71.31 677.434C65.0296 635.499 64.7116 594.118 75.2849 552.342C81.3666 528.339 97.0675 509.375 107.084 487.435Z" fill="#ECEFF6"/>
<path d="M28.858 600.824C32.0379 565.117 49.13 536.314 67.2954 507.352C57.0004 509.732 51.1572 517.706 44.9166 525.165C6.83685 570.592 6.91636 623.239 15.8599 677.593L31.7596 677.593C32.0776 652.003 26.5128 626.85 28.858 600.824Z" fill="#ECEFF6"/>
<path d="M736.235 661.803C730.789 666.286 723.435 669.103 722.72 677.672L746.569 677.672C759.289 662.358 779.601 656.843 794.268 639.069L794.268 677.672L806.193 677.672C803.53 649.9 811.798 624.271 821.775 598.999C797.965 626.255 763.463 639.307 736.235 661.803Z" fill="#ECEFF6"/>
<path d="M1.46139e-05 530.997L1.25328e-05 554.802L47.699 507.193C28.1027 507.828 17.4499 526.157 1.46139e-05 530.997Z" fill="#ECEFF6"/>
<path d="M1032.49 657.795C1022.63 660.89 1021.55 669.222 1020.56 677.632C1040.51 680.568 1029.78 665.175 1032.49 657.795Z" fill="#ECEFF6"/>
<path d="M1032.49 649.861L1032.49 645.893C1032.09 646.29 1031.33 646.766 1031.41 647.083C1031.66 648.048 1032.02 648.981 1032.49 649.861Z" fill="#ECEFF6"/>
<path d="M822.093 598.483L822.331 597.927L821.934 598.324L822.093 598.483Z" fill="#ECEFF6"/>
<path d="M823.086 597.094C823.169 596.662 823.169 596.217 823.086 595.785C822.769 596.499 822.451 597.213 822.172 597.927C822.519 597.699 822.827 597.418 823.086 597.094Z" fill="#ECEFF6"/>
</g>
</svg>
