<svg width="332" height="222" viewBox="0 0 332 222" fill="none" xmlns="http://www.w3.org/2000/svg">
<path d="M183.477 35.0951C215.152 61.5117 253.283 69.8369 292.797 74.1396C305.788 75.5605 318.859 76.1409 334.457 77.2216C326.718 81.8645 320.724 75.6006 313.647 80.4236C382.11 104.199 450.393 122.11 520.74 132.076V150.087C464.386 136.479 408.473 121.709 353.642 102.457C333.595 95.4129 313.968 86.9677 294.161 79.0827C285.72 75.7206 276.92 74.76 266.575 74.0195C269.702 79.7431 274.594 80.9639 278.604 83.1453C334.737 113.504 395.241 131.836 455.926 149.927C477.598 156.391 499.129 163.336 520.72 170.06V189.972C488.458 176.45 455.477 164.705 421.925 154.79C384.436 144.024 347.187 132.476 311.983 115.386C284.813 101.942 258.779 86.3207 234.138 68.6762C227.983 64.3535 221.087 62.1721 214.09 59.7305C183.758 49.0438 157.575 32.6735 140.475 4.55586C127.083 -17.4579 120.968 -41.9132 118.121 -67.2691C116.598 -80.7776 115.375 -94.3262 114.112 -107.855H128.145C130.992 -85.8409 132.816 -63.5869 138.169 -41.8132C145.707 -11.6343 159.159 14.8023 183.477 35.0951Z" fill="#C72636"/>
<path d="M332.111 -29.3454C370.543 4.35577 415.169 15.1626 465.228 5.19632C473.788 3.49525 481.848 -0.807449 492.112 -0.807449C487.702 7.33766 480.464 10.5397 474.711 15.2026C418.176 60.5511 353.823 79.1027 282.112 67.8356C228.204 59.3703 185.883 33.334 164.472 -19.5392C153.024 -47.817 148.193 -77.7158 144.203 -107.755H160.242C162.086 -81.9384 169.564 -57.4229 178.164 -33.2477C201.039 31.0726 249.534 60.6512 310.6 65.9345C359.516 70.1572 404.463 56.7687 445.581 30.4922C455.846 23.9481 466.291 17.364 476.274 6.03693C465.609 9.29898 457.77 12.0407 449.791 14.042C405.265 25.7293 363.947 19.5654 326.317 -7.97186C297.629 -28.905 278.784 -58.0033 260.039 -87.1616C255.769 -93.8058 250.016 -99.7096 248.372 -107.895H266.415C266.67 -106.599 267.123 -105.351 267.758 -104.192C287.485 -77.7157 307.192 -51.1991 332.111 -29.3454Z" fill="#C72636"/>
<path d="M404.944 30.3721C414.788 29.3515 424.13 26.3696 434.475 24.8687C432.651 29.0513 429.162 28.8713 426.616 30.052C418.667 33.5062 410.315 35.9533 401.757 37.3365C345.784 47.5429 297.709 33.9344 261.182 -11.0539C237.887 -39.7719 223.974 -73.8133 210.301 -107.795H226.339C239.551 -85.1003 251.038 -61.4054 265.833 -39.6117C299.153 9.53914 343.378 36.7762 404.944 30.3721Z" fill="#C72636"/>
<path d="M310.179 45.6217C344.26 55.6279 377.439 51.8856 410.297 40.3984C414.026 39.0976 417.535 36.5959 423.89 37.5766C421.987 38.8445 420.019 40.0135 417.996 41.0788C386.821 54.3471 354.404 61.5516 320.483 57.8493C277.28 53.1463 241.495 34.8949 216.716 -2.1884C195.145 -34.3686 185.342 -70.9916 176.24 -107.895H192.278C201.7 -74.814 213.689 -42.6737 232.374 -13.5955C251.058 15.4828 276.599 35.8755 310.179 45.6217Z" fill="#C72636"/>
<path d="M483.572 -13.6756L514.024 -15.6768C512.496 -14.42 510.859 -13.3016 509.133 -12.3348C460.878 2.91483 414.387 0.113052 370.583 -26.5837C339.088 -45.7557 315.892 -74.0135 291.113 -100.47C290.171 -101.42 289.442 -102.559 288.976 -103.811C288.509 -105.064 288.315 -106.401 288.407 -107.735H306.45C306.931 -103.732 309.858 -101.351 312.464 -98.8891C329.565 -83.0792 346.205 -66.7289 364.749 -52.56C399.812 -25.8432 438.725 -10.7137 483.572 -13.6756Z" fill="#C72636"/>
<path d="M470.601 -27.064C459.956 -26.5837 450.754 -29.0652 441.592 -31.8669C405.787 -42.6737 376.296 -64.1272 347.989 -87.5219C340.391 -93.8058 331.73 -99.0291 326.458 -107.795H342.496C364.964 -88.1472 389.664 -71.2007 416.091 -57.3029C423.97 -53.3004 430.245 -46.7363 439.387 -43.6744C421.905 -61.6857 415.209 -83.4193 416.612 -107.715H426.636C425.513 -72.6326 438.645 -44.9753 470.601 -27.064ZM445.2 -37.3304L446.945 -38.211C446.516 -38.9245 446.019 -39.5947 445.461 -40.2122C445.341 -40.3323 444.539 -39.7719 444.038 -39.5117L445.2 -37.3304Z" fill="#C72636"/>
<path d="M145.326 28.7912C152.543 35.2552 161.545 39.0976 168.221 46.102C187.767 51.8256 204.126 62.7925 219.343 76.1208C259.438 111.103 304.064 138.16 355.166 154.17C382.19 162.675 409.495 170.18 436.72 177.845C465.99 186.19 493.676 198.358 520.74 212.046V234C512.421 229.137 504.201 224.114 495.781 219.471C456.126 197.617 412.041 189.212 368.838 178.205C329.224 168.199 291.254 154.39 257.072 131.255C224.174 108.981 199.114 78.4222 170.867 51.3252C169.717 49.7519 168.849 47.9914 168.301 46.122C159.299 45.2215 152.443 39.1776 144.364 36.1157C143.016 34.6677 141.555 33.3293 139.993 32.1132C115.635 16.1032 101.602 -6.87128 94.9662 -34.6888C89.2526 -58.7038 88.9519 -83.2793 88.2101 -107.775H100.239C101.602 -90.2637 102.444 -72.6726 104.449 -55.2216C108.138 -22.5612 120.106 6.21701 145.326 28.7912Z" fill="#C72636"/>
<path d="M520.74 -23.842V-17.8382C504.702 -22.0408 488.484 -25.4829 474.41 -35.149C448.709 -52.8201 441.01 -78.5363 440.61 -107.775H456.648C455.846 -63.8471 477.277 -35.7294 520.74 -23.842Z" fill="#C72636"/>
<path d="M520.74 112.083C478.64 116.366 357.912 90.73 346.325 82.8251C363.065 85.867 378.662 88.8289 394.439 91.4905C436.379 98.535 478.54 100.776 520.941 96.0934L520.74 112.083Z" fill="#C72636"/>
<path d="M112.087 20.0056C102.745 19.3052 97.5925 9.79924 88.4106 8.75858C88.0899 -3.38905 77.7852 -10.7337 73.9361 -21.2603C63.6115 -49.478 62.1881 -78.3362 66.0774 -107.755H76.1013C76.1013 -101.751 76.2817 -95.7471 76.1013 -89.8634C74.4774 -48.8176 81.9552 -10.7137 112.087 20.0056Z" fill="#C72636"/>
<path d="M520.74 -37.8307C514.325 -37.8307 509.353 -41.1528 504.702 -44.9352C484.815 -61.1454 474.25 -81.8783 474.631 -107.795H492.674C493.856 -89.9434 501.956 -75.034 512.721 -61.2854C514.598 -58.5099 517.467 -56.5555 520.74 -55.822V-37.8307Z" fill="#C72636"/>
<path d="M348.069 75.3404C348.676 74.803 349.35 74.3457 350.074 73.9795C351.651 73.4382 353.275 73.043 354.925 72.7988C409.275 66.4748 456.006 43.4203 497.886 9.0587C505.524 2.79477 511.077 -6.07071 520.78 -9.85307V6.15697C518.416 7.37584 516.144 8.76706 513.984 10.3195C473.247 43.8806 426.556 64.3535 374.773 73.6794C366.112 75.2003 357.411 77.4217 348.069 75.3404Z" fill="#C72636"/>
<path d="M520.74 44.1207C516.53 43.9406 513.042 45.9619 509.453 47.743C487.938 58.4227 465.138 66.2988 441.612 71.1777C422.125 75.1803 402.619 79.7631 380.827 77.6217C382.12 77.0076 383.461 76.499 384.837 76.1008C430.615 70.0328 474.494 53.9834 513.363 29.0913C515.71 27.8768 518.167 26.8852 520.7 26.1294L520.74 44.1207Z" fill="#C72636"/>
<path d="M520.74 78.1021C477.512 88.4935 432.722 90.7468 388.666 84.7463C415.553 83.5256 442.337 80.6113 468.857 76.0208C486.639 72.9388 503.399 66.3347 520.841 62.112L520.74 78.1021Z" fill="#C72636"/>
<path d="M78.527 2.71475C71.5103 -4.82999 59.4015 -2.60863 54.1289 -11.8344C56.7151 -12.2347 60.5442 -12.5548 58.1385 -16.2972C40.4563 -44.8551 42.5413 -76.3348 43.9647 -107.795H55.9933C50.7809 -68.59 52.2644 -30.7062 78.527 2.71475Z" fill="#C72636"/>
<path d="M54.0086 -11.8744H49.9991C40.1556 -25.2027 30.3122 -38.1109 26.6835 -55.2016C22.9546 -72.9128 25.8215 -90.2236 25.9418 -107.715H35.9656C32.7981 -86.5613 32.6377 -65.6881 37.9704 -44.6149C41.0377 -32.5073 48.9566 -22.9413 54.0086 -11.8744Z" fill="#C72636"/>
<path d="M14.5547 -69.0703C16.1585 -51.059 24.779 -36.5299 33.9408 -21.9207C28.7485 -23.1215 25.8014 -27.144 22.6539 -30.9063C3.4482 -53.8207 3.4883 -80.3774 7.99905 -107.795H16.0181C16.1785 -94.8865 13.3719 -82.1986 14.5547 -69.0703Z" fill="#C72636"/>
<path d="M371.324 -99.8296C368.578 -102.091 364.869 -103.512 364.508 -107.835H376.537C382.952 -100.11 393.197 -97.3281 400.594 -88.3625V-107.835H406.608C405.265 -93.8259 409.435 -80.8977 414.467 -68.1497C402.459 -81.8983 385.057 -88.4825 371.324 -99.8296Z" fill="#C72636"/>
<path d="M0 -33.8482V-45.8558L24.0573 -21.8407C14.1738 -22.1609 8.80096 -31.4067 0 -33.8482Z" fill="#C72636"/>
<path d="M520.74 -97.8083C515.768 -99.3693 515.227 -103.572 514.726 -107.815C524.79 -109.296 519.377 -101.531 520.74 -97.8083Z" fill="#C72636"/>
<path d="M520.74 -93.8058V-91.8046C520.54 -92.0047 520.159 -92.2448 520.199 -92.4049C520.323 -92.8917 520.505 -93.362 520.74 -93.8058Z" fill="#C72636"/>
<path d="M414.628 -67.8895L414.748 -67.6094L414.547 -67.8095L414.628 -67.8895Z" fill="#C72636"/>
<path d="M415.129 -67.1891C415.171 -66.971 415.171 -66.7469 415.129 -66.5287C414.968 -66.8889 414.808 -67.2492 414.668 -67.6094C414.842 -67.4943 414.998 -67.3524 415.129 -67.1891Z" fill="#C72636"/>
</svg>
