<svg width="407" height="171" viewBox="0 0 407 171" fill="none" xmlns="http://www.w3.org/2000/svg">
<g opacity="0.25">
<path d="M183.477 -27.9049C215.152 -1.48835 253.283 6.8369 292.797 11.1396C305.788 12.5605 318.86 13.1409 334.457 14.2216C326.718 18.8645 320.724 12.6006 313.647 17.4236C382.11 41.1985 450.393 59.1098 520.74 69.076V87.0873C464.386 73.4788 408.473 58.7095 353.642 39.4574C333.595 32.413 313.968 23.9677 294.161 16.0827C285.721 12.7206 276.92 11.76 266.575 11.0195C269.702 16.7431 274.594 17.9639 278.604 20.1453C334.737 50.5043 395.241 68.8358 455.926 86.9272C477.598 93.3912 499.129 100.336 520.72 107.06V126.972C488.458 113.45 455.477 101.705 421.925 91.7903C384.436 81.0235 347.187 69.4763 311.983 52.3855C284.813 38.9417 258.779 23.3207 234.138 5.67621C227.983 1.3535 221.087 -0.827935 214.09 -3.26947C183.758 -13.9562 157.575 -30.3265 140.475 -58.4441C127.083 -80.458 120.968 -104.913 118.121 -130.269C116.598 -143.778 115.375 -157.326 114.112 -170.855H128.145C130.992 -148.841 132.816 -126.587 138.169 -104.813C145.707 -74.6343 159.159 -48.1977 183.477 -27.9049Z" fill="#ECEFF6"/>
<path d="M332.111 -92.3454C370.543 -58.6442 415.169 -47.8374 465.228 -57.8037C473.788 -59.5048 481.848 -63.8075 492.112 -63.8075C487.702 -55.6623 480.464 -52.4603 474.711 -47.7974C418.176 -2.44892 353.823 16.1027 282.112 4.83563C228.204 -3.62969 185.883 -29.666 164.472 -82.5392C153.024 -110.817 148.193 -140.716 144.203 -170.755H160.242C162.086 -144.938 169.564 -120.423 178.164 -96.2477C201.039 -31.9274 249.534 -2.34879 310.6 2.93453C359.516 7.15718 404.463 -6.23127 445.581 -32.5078C455.846 -39.0519 466.291 -45.636 476.274 -56.9631C465.609 -53.701 457.77 -50.9593 449.791 -48.958C405.265 -37.2707 363.947 -43.4346 326.317 -70.9719C297.629 -91.905 278.784 -121.003 260.039 -150.162C255.769 -156.806 250.016 -162.71 248.372 -170.895H266.415C266.67 -169.599 267.123 -168.351 267.758 -167.192C287.485 -140.716 307.192 -114.199 332.111 -92.3454Z" fill="#ECEFF6"/>
<path d="M404.944 -32.6279C414.788 -33.6485 424.13 -36.6304 434.475 -38.1313C432.651 -33.9487 429.162 -34.1287 426.616 -32.948C418.667 -29.4938 410.315 -27.0467 401.757 -25.6635C345.784 -15.4571 297.709 -29.0656 261.182 -74.0539C237.887 -102.772 223.974 -136.813 210.301 -170.795H226.339C239.551 -148.1 251.038 -124.405 265.833 -102.612C299.153 -53.4609 343.378 -26.2238 404.944 -32.6279Z" fill="#ECEFF6"/>
<path d="M310.179 -17.3783C344.26 -7.37207 377.439 -11.1144 410.297 -22.6016C414.026 -23.9024 417.535 -26.4041 423.89 -25.4234C421.987 -24.1555 420.019 -22.9865 417.996 -21.9212C386.821 -8.65291 354.404 -1.44838 320.483 -5.1507C277.28 -9.85365 241.495 -28.1051 216.716 -65.1884C195.145 -97.3686 185.342 -133.992 176.24 -170.895H192.278C201.7 -137.814 213.689 -105.674 232.374 -76.5955C251.058 -47.5172 276.599 -27.1245 310.179 -17.3783Z" fill="#ECEFF6"/>
<path d="M483.572 -76.6756L514.024 -78.6768C512.496 -77.42 510.859 -76.3016 509.133 -75.3348C460.878 -60.0852 414.387 -62.8869 370.583 -89.5837C339.088 -108.756 315.892 -137.013 291.113 -163.47C290.171 -164.42 289.442 -165.559 288.976 -166.811C288.509 -168.064 288.315 -169.401 288.407 -170.735H306.45C306.931 -166.732 309.858 -164.351 312.464 -161.889C329.565 -146.079 346.205 -129.729 364.749 -115.56C399.812 -88.8432 438.725 -73.7137 483.572 -76.6756Z" fill="#ECEFF6"/>
<path d="M470.601 -90.064C459.956 -89.5837 450.754 -92.0652 441.592 -94.8669C405.787 -105.674 376.296 -127.127 347.989 -150.522C340.391 -156.806 331.73 -162.029 326.458 -170.795H342.496C364.964 -151.147 389.664 -134.201 416.091 -120.303C423.97 -116.3 430.245 -109.736 439.387 -106.674C421.905 -124.686 415.209 -146.419 416.612 -170.715H426.636C425.513 -135.633 438.645 -107.975 470.601 -90.064ZM445.2 -100.33L446.945 -101.211C446.516 -101.924 446.019 -102.595 445.461 -103.212C445.341 -103.332 444.539 -102.772 444.038 -102.512L445.2 -100.33Z" fill="#ECEFF6"/>
<path d="M145.326 -34.2088C152.543 -27.7448 161.545 -23.9024 168.221 -16.898C187.767 -11.1744 204.126 -0.20754 219.343 13.1208C259.438 48.1028 304.064 75.1598 355.166 91.1698C382.19 99.6752 409.495 107.18 436.72 114.845C465.99 123.19 493.676 135.358 520.74 149.046V171C512.421 166.137 504.201 161.114 495.781 156.471C456.126 134.617 412.041 126.212 368.838 115.205C329.224 105.199 291.254 91.39 257.072 68.2555C224.174 45.9815 199.114 15.4222 170.867 -11.6748C169.717 -13.2481 168.849 -15.0086 168.301 -16.878C159.299 -17.7786 152.443 -23.8223 144.364 -26.8843C143.016 -28.3323 141.555 -29.6707 139.993 -30.8868C115.635 -46.8968 101.602 -69.8713 94.9662 -97.6887C89.2526 -121.704 88.9519 -146.279 88.2101 -170.775H100.239C101.602 -153.264 102.444 -135.673 104.449 -118.222C108.138 -85.5611 120.106 -56.783 145.326 -34.2088Z" fill="#ECEFF6"/>
<path d="M520.74 -86.842V-80.8382C504.702 -85.0408 488.484 -88.4829 474.41 -98.149C448.709 -115.82 441.01 -141.536 440.61 -170.775H456.648C455.846 -126.847 477.277 -98.7294 520.74 -86.842Z" fill="#ECEFF6"/>
<path d="M520.74 49.0834C478.64 53.3661 357.912 27.73 346.325 19.8251C363.065 22.867 378.662 25.8289 394.439 28.4905C436.379 35.535 478.54 37.7763 520.941 33.0934L520.74 49.0834Z" fill="#ECEFF6"/>
<path d="M112.087 -42.9944C102.745 -43.6948 97.5925 -53.2008 88.4106 -54.2414C88.0899 -66.389 77.7853 -73.7337 73.9361 -84.2603C63.6115 -112.478 62.1881 -141.336 66.0774 -170.755H76.1013C76.1013 -164.751 76.2817 -158.747 76.1013 -152.863C74.4774 -111.818 81.9552 -73.7137 112.087 -42.9944Z" fill="#ECEFF6"/>
<path d="M520.74 -100.831C514.325 -100.831 509.353 -104.153 504.702 -107.935C484.815 -124.145 474.25 -144.878 474.631 -170.795H492.674C493.856 -152.943 501.956 -138.034 512.721 -124.285C514.598 -121.51 517.467 -119.556 520.74 -118.822V-100.831Z" fill="#ECEFF6"/>
<path d="M348.069 12.3404C348.676 11.803 349.35 11.3457 350.074 10.9795C351.651 10.4382 353.275 10.043 354.925 9.7988C409.275 3.47483 456.006 -19.5797 497.886 -53.9413C505.524 -60.2052 511.077 -69.0707 520.78 -72.8531V-56.843C518.416 -55.6242 516.144 -54.2329 513.984 -52.6805C473.247 -19.1194 426.556 1.3535 374.773 10.6794C366.112 12.2003 357.411 14.4217 348.069 12.3404Z" fill="#ECEFF6"/>
<path d="M520.74 -18.8793C516.53 -19.0594 513.042 -17.0381 509.453 -15.257C487.938 -4.57733 465.138 3.29876 441.612 8.17775C422.125 12.1803 402.619 16.7631 380.827 14.6217C382.12 14.0076 383.461 13.499 384.837 13.1008C430.615 7.03279 474.494 -9.01657 513.363 -33.9087C515.71 -35.1232 518.167 -36.1148 520.7 -36.8706L520.74 -18.8793Z" fill="#ECEFF6"/>
<path d="M520.74 15.1021C477.512 25.4935 432.722 27.7468 388.666 21.7463C415.553 20.5256 442.337 17.6113 468.857 13.0208C486.639 9.93884 503.399 3.33467 520.841 -0.887983L520.74 15.1021Z" fill="#ECEFF6"/>
<path d="M78.527 -60.2853C71.5103 -67.83 59.4015 -65.6086 54.1289 -74.8344C56.7151 -75.2347 60.5442 -75.5548 58.1385 -79.2972C40.4563 -107.855 42.5413 -139.335 43.9647 -170.795H55.9933C50.7809 -131.59 52.2644 -93.7062 78.527 -60.2853Z" fill="#ECEFF6"/>
<path d="M54.0086 -74.8744H49.9991C40.1556 -88.2027 30.3122 -101.111 26.6835 -118.202C22.9546 -135.913 25.8215 -153.224 25.9418 -170.715H35.9656C32.7981 -149.561 32.6377 -128.688 37.9704 -107.615C41.0377 -95.5073 48.9566 -85.9413 54.0086 -74.8744Z" fill="#ECEFF6"/>
<path d="M14.5547 -132.07C16.1585 -114.059 24.779 -99.5299 33.9408 -84.9207C28.7485 -86.1215 25.8014 -90.144 22.6539 -93.9063C3.4482 -116.821 3.4883 -143.377 7.99905 -170.795H16.0181C16.1785 -157.886 13.3719 -145.199 14.5547 -132.07Z" fill="#ECEFF6"/>
<path d="M371.324 -162.83C368.578 -165.091 364.869 -166.512 364.508 -170.835H376.537C382.952 -163.11 393.197 -160.328 400.594 -151.362V-170.835H406.608C405.265 -156.826 409.435 -143.898 414.467 -131.15C402.459 -144.898 385.057 -151.483 371.324 -162.83Z" fill="#ECEFF6"/>
<path d="M0 -96.8483V-108.856L24.0573 -84.8407C14.1738 -85.1609 8.80096 -94.4067 0 -96.8483Z" fill="#ECEFF6"/>
<path d="M520.74 -160.808C515.768 -162.369 515.227 -166.572 514.726 -170.815C524.79 -172.296 519.377 -164.531 520.74 -160.808Z" fill="#ECEFF6"/>
<path d="M520.74 -156.806V-154.805C520.54 -155.005 520.159 -155.245 520.199 -155.405C520.323 -155.892 520.505 -156.362 520.74 -156.806Z" fill="#ECEFF6"/>
<path d="M414.628 -130.89L414.748 -130.609L414.547 -130.81L414.628 -130.89Z" fill="#ECEFF6"/>
<path d="M415.129 -130.189C415.171 -129.971 415.171 -129.747 415.129 -129.529C414.968 -129.889 414.808 -130.249 414.668 -130.609C414.842 -130.494 414.998 -130.352 415.129 -130.189Z" fill="#ECEFF6"/>
</g>
</svg>
