<svg width="21" height="21" viewBox="0 0 21 21" fill="none" xmlns="http://www.w3.org/2000/svg">
<circle cx="10.5" cy="10.5" r="10.5" fill="#465068"/>
<path d="M9.784 13.392C9.76267 13.2213 9.752 12.9867 9.752 12.688C9.752 12.176 9.816 11.7333 9.944 11.36C10.072 10.9867 10.2267 10.672 10.408 10.416C10.6 10.16 10.856 9.86133 11.176 9.52C11.24 9.456 11.4107 9.28 11.688 8.992C11.9653 8.69333 12.1627 8.416 12.28 8.16C12.408 7.89333 12.472 7.62667 12.472 7.36C12.472 6.96533 12.3173 6.624 12.008 6.336C11.6987 6.048 11.272 5.904 10.728 5.904C10.2693 5.904 9.864 5.984 9.512 6.144C9.17067 6.304 8.84533 6.55467 8.536 6.896L7.896 6.176C8.312 5.74933 8.744 5.44 9.192 5.248C9.65067 5.056 10.1787 4.96 10.776 4.96C11.3413 4.96 11.832 5.072 12.248 5.296C12.664 5.52 12.9787 5.81333 13.192 6.176C13.4053 6.53867 13.512 6.912 13.512 7.296C13.512 7.65867 13.4427 7.99467 13.304 8.304C13.176 8.61333 13.0053 8.896 12.792 9.152C12.5787 9.408 12.2533 9.776 11.816 10.256C11.4427 10.6613 11.1653 11.0347 10.984 11.376C10.8027 11.7173 10.712 12.1707 10.712 12.736C10.712 12.928 10.728 13.1467 10.76 13.392H9.784ZM10.296 16.16C10.0933 16.16 9.91733 16.096 9.768 15.968C9.61867 15.84 9.544 15.6587 9.544 15.424C9.544 15.1787 9.61867 14.992 9.768 14.864C9.91733 14.736 10.0933 14.672 10.296 14.672C10.5093 14.672 10.6907 14.736 10.84 14.864C10.9893 14.992 11.064 15.1787 11.064 15.424C11.064 15.6587 10.9893 15.84 10.84 15.968C10.6907 16.096 10.5093 16.16 10.296 16.16Z" fill="white"/>
</svg>
