<svg width="28" height="25" viewBox="0 0 28 25" fill="none" xmlns="http://www.w3.org/2000/svg">
<path fill-rule="evenodd" clip-rule="evenodd" d="M3.0572 9.9617L5.40345 11.3364V18.2306C5.40345 19.0686 5.84666 19.8438 6.56755 20.2661L13.6063 24.39C14.3368 24.8179 15.2401 24.8179 15.9708 24.39L23.0095 20.2661C23.7303 19.8438 24.1735 19.0686 24.1735 18.2306V11.3364L27.1289 9.60481C27.9049 9.15016 27.9049 8.02397 27.1289 7.56931L15.9708 1.03194C15.2401 0.603938 14.3368 0.603938 13.6063 1.03194L1.29293 8.24608C0.932543 8.45723 0.710939 8.84476 0.710939 9.26381V15.6565C0.710939 16.3073 1.23615 16.8348 1.88407 16.8348C2.53199 16.8348 3.0572 16.3073 3.0572 15.6565V9.9617ZM21.8273 12.7109V18.2306L14.7885 22.3544L7.74971 18.2306V12.7109L13.6063 16.1422C14.3368 16.5702 15.2401 16.5702 15.9708 16.1422L21.8273 12.7109ZM5.36744 8.58706L14.7885 3.06744L24.2096 8.58706L14.7885 14.1067L5.36744 8.58706Z" fill="#465068"/>
</svg>
