<svg width="25" height="24" viewBox="0 0 25 24" fill="none" xmlns="http://www.w3.org/2000/svg">
<path fill-rule="evenodd" clip-rule="evenodd" d="M13.5 6C14.6046 6 15.5 5.10457 15.5 4C15.5 2.89543 14.6046 2 13.5 2C12.3955 2 11.5 2.89543 11.5 4C11.5 5.10457 12.3955 6 13.5 6ZM11.5528 6.60557C11.8841 6.43992 12.2799 6.47097 12.5813 6.68627L13.5813 7.40056C13.8994 7.6278 14.0559 8.01959 13.982 8.40348L12.9332 13.847L17.3321 20.4453C17.6384 20.9048 17.5143 21.5257 17.0547 21.8321C16.5952 22.1384 15.9743 22.0142 15.668 21.5547L11.0416 14.6152L10.2261 13.3919C10.0833 13.1778 10.0286 12.9169 10.0734 12.6634L10.6699 9.28309L8.88461 10.1757L8.31279 13.0334C8.20442 13.575 7.67756 13.9261 7.13601 13.8178C6.59446 13.7094 6.2433 13.1825 6.35166 12.641L7.01944 9.30379C7.07998 9.00123 7.27681 8.74356 7.55279 8.60557L11.5528 6.60557ZM17.1838 12.9487L14.3093 11.9905L14.6909 10.0096L17.8163 11.0513C18.3402 11.226 18.6234 11.7923 18.4487 12.3162C18.2741 12.8402 17.7078 13.1234 17.1838 12.9487ZM6.62841 20.5097L9.89634 14.7001L10.2096 15.1699L11.141 16.5669L8.37156 21.4903C8.1008 21.9716 7.49108 22.1423 7.00973 21.8716C6.52837 21.6008 6.35765 20.9911 6.62841 20.5097Z" fill="#465068"/>
</svg>
