<svg width="49" height="49" viewBox="0 0 49 49" fill="none" xmlns="http://www.w3.org/2000/svg">
<path d="M42.875 23.4792C42.882 26.174 42.2524 28.8322 41.0375 31.2376C39.597 34.1199 37.3824 36.5442 34.6419 38.239C31.9013 39.9338 28.7431 40.8321 25.5208 40.8334C22.8261 40.8404 20.1678 40.2108 17.7625 38.9959L6.125 42.8751L10.0042 31.2376C8.78923 28.8322 8.15964 26.174 8.16667 23.4792C8.16791 20.257 9.06625 17.0987 10.7611 14.3582C12.4559 11.6176 14.8802 9.40309 17.7625 7.96256C20.1678 6.74763 22.8261 6.11803 25.5208 6.12506H26.5417C30.7972 6.35983 34.8166 8.15603 37.8303 11.1697C40.844 14.1834 42.6402 18.2028 42.875 22.4584V23.4792Z" stroke="white" stroke-width="2" stroke-linecap="round" stroke-linejoin="round"/>
</svg>
