<svg width="222" height="38" viewBox="0 0 222 38" fill="none" xmlns="http://www.w3.org/2000/svg">
<path fill-rule="evenodd" clip-rule="evenodd" d="M31.6934 0.0786463C28.8993 0.508191 26.9162 2.0327 25.8483 4.57216C25.4245 5.58004 25.2247 6.72914 25.2203 8.18456C25.2121 10.8672 25.9202 12.9912 27.6351 15.4282C28.3606 16.4592 29.1142 17.3409 31.0774 19.4553C32.3308 20.8054 33.2923 21.9195 33.8531 22.6718C35.6823 25.1254 36.5327 27.3546 36.6764 30.0724C36.8251 32.8838 35.5235 34.9117 33.0998 35.6447C32.4839 35.831 31.3466 35.8807 30.5797 35.7547C27.3648 35.2269 25.51 32.7287 24.9629 28.1895C24.9042 27.7026 24.798 26.0802 24.7959 25.6385L24.7948 25.4147L24.0058 25.4293L23.2169 25.4438L23.2334 26.2806C23.3155 30.4416 24.3006 33.4764 26.1651 35.3124C26.8036 35.9412 27.3846 36.3428 28.1976 36.7176C29.3085 37.2297 30.2503 37.4346 31.7156 37.4829C34.6356 37.5792 37.0631 36.8053 38.7949 35.226C40.6469 33.5371 41.5431 31.148 41.4437 28.1653C41.3847 26.398 41.0214 25.0366 40.159 23.3517C39.3201 21.7125 38.1737 20.1686 35.7323 17.3895C33.4253 14.7634 32.4252 13.4688 31.602 12.0428C30.8597 10.757 30.398 9.55285 30.1324 8.21024C30.014 7.61187 29.9668 5.96273 30.0508 5.35965C30.3326 3.33603 31.2711 2.13568 32.8783 1.74322C33.3985 1.61618 34.4295 1.63061 35.0099 1.77303C36.8994 2.23667 38.0939 3.64225 38.7807 6.21037C39.0937 7.38044 39.271 8.76499 39.3367 10.5512L39.3736 11.558H40.175H40.9765L40.9381 10.4727C40.7848 6.12528 40.0087 3.51893 38.3796 1.88077C37.4846 0.98078 36.4399 0.446215 35.0091 0.156103C34.2762 0.00751741 32.4357 -0.0354737 31.6934 0.0786463ZM68.9494 0.0766065C67.6709 0.269177 66.5431 0.742184 65.4672 1.5371C63.068 3.30973 61.3216 6.74949 60.4834 11.353C59.667 15.8376 59.6439 21.9248 60.4267 26.3329C61.1341 30.3159 62.4324 33.1982 64.3807 35.1099C65.0945 35.8104 65.7101 36.2506 66.541 36.6548C67.6988 37.2179 68.6003 37.4334 70.0014 37.4818C73.179 37.5916 75.4548 36.3082 76.889 33.5978C78.0232 31.4545 78.6662 28.14 78.6662 24.4379V23.4825H77.8718H77.0773L77.0427 24.8554C76.9253 29.511 75.9133 32.8821 74.1261 34.5703C73.598 35.0692 73.0318 35.4049 72.3545 35.6208C71.9053 35.764 71.7264 35.7922 71.1295 35.8137C69.9011 35.8579 69.0861 35.5987 68.3352 34.9248C66.7001 33.4576 65.872 30.3916 65.4851 24.3716C65.3917 22.9185 65.3556 16.7992 65.4286 14.8006C65.6254 9.41451 66.1517 6.14003 67.1479 4.10307C67.458 3.46914 67.804 3.00058 68.2704 2.58301C69.0162 1.91534 69.7468 1.66111 70.9149 1.66267C71.44 1.66335 71.7139 1.69024 72.05 1.77408C74.8298 2.46732 76.2899 5.41096 76.6176 10.9826C76.6472 11.486 76.6718 12.1509 76.6722 12.4601L76.673 13.0224H77.4759H78.2787L78.2783 12.6432C78.2777 11.8765 78.1626 9.73182 78.0827 8.99522C77.6737 5.22911 76.587 2.71057 74.7762 1.3325C74.2491 0.931251 73.2145 0.429636 72.5739 0.26468C71.5729 0.00688984 69.9658 -0.0765297 68.9494 0.0766065ZM110.419 0.0829872C107.536 0.565356 105.201 2.75466 103.676 6.40634C102.262 9.79113 101.549 14.5131 101.663 19.743C101.739 23.2381 102.059 25.8457 102.722 28.3726C103.144 29.9835 103.549 31.0571 104.219 32.3474C105.322 34.4713 106.792 35.9889 108.536 36.8061C109.45 37.2341 110.302 37.4357 111.393 37.482C113.522 37.5724 115.234 36.9596 116.675 35.5911C118.033 34.3015 119.013 32.5118 119.751 29.9722C120.793 26.3874 121.202 21.1254 120.906 15.1144C120.439 5.64348 117.866 0.758188 112.986 0.0811567C112.266 -0.0187375 111.022 -0.0178484 110.419 0.0829872ZM144.825 0.077391C142.378 0.515043 140.348 2.12622 138.855 4.81619C137.617 7.04498 136.767 9.99631 136.362 13.4669C136.138 15.391 136.109 16.0152 136.11 18.88C136.112 21.8092 136.157 22.652 136.417 24.6593C137.4 32.2245 140.468 36.7618 145.052 37.4254C146.098 37.5768 147.449 37.4775 148.428 37.1774C150.344 36.5897 151.982 35.0497 153.102 32.7824C154.094 30.7727 154.773 28.07 155.123 24.7377C155.311 22.9428 155.353 22.1417 155.387 19.6645C155.521 9.82241 153.993 3.92897 150.654 1.40515C149.872 0.814097 148.964 0.402962 147.935 0.173415C147.188 0.00688981 145.509 -0.0449401 144.825 0.077391ZM168.332 0.0348706C168.241 0.0456446 167.92 0.102705 167.619 0.161647C163.505 0.967338 160.581 4.71729 159.283 10.8519C158.192 16.0089 158.278 23.637 159.481 28.5547C159.89 30.2246 160.393 31.604 161.036 32.8146C161.588 33.8551 162.254 34.7547 162.993 35.4596C164.144 36.5574 165.642 37.2647 167.196 37.4447C169.112 37.6667 170.72 37.2189 171.942 36.1224C172.389 35.7211 172.885 35.0623 173.075 34.6171C173.141 34.4619 173.21 34.3177 173.229 34.2967C173.248 34.2757 173.32 34.8523 173.389 35.5781C173.459 36.3038 173.529 36.9741 173.546 37.0676L173.576 37.2376H175.785H177.993V28.608V19.9783H173.204H168.415V20.6844V21.3905H170.602H172.789L172.788 25.0646C172.788 27.0854 172.763 29.1388 172.733 29.6278C172.57 32.3198 172.028 33.9789 170.99 34.9643C170.33 35.5904 169.724 35.8261 168.777 35.8246C167.316 35.8224 166.396 35.215 165.677 33.778C164.986 32.3954 164.504 29.9717 164.263 26.6728C163.995 22.9895 163.969 16.2528 164.21 12.6563C164.646 6.13767 165.85 2.90623 168.186 1.98307C168.784 1.74688 169.286 1.66011 170.048 1.66132C172.239 1.66471 173.7 2.90696 174.622 5.55091C175.201 7.20874 175.459 8.9846 175.591 12.1986L175.624 13.0224H176.394H177.163L177.162 11.911C177.161 8.49591 176.63 5.63276 175.635 3.66427C174.358 1.13857 172.355 -0.0215094 169.321 0.00736052C168.869 0.0116492 168.423 0.0240444 168.332 0.0348706ZM212.708 0.0357598C212.601 0.0465337 212.272 0.100769 211.976 0.156365C210.502 0.433192 209.271 1.04987 208.221 2.03851C206.904 3.27719 206.117 4.95563 205.893 7.00157C205.812 7.74367 205.857 9.45212 205.977 10.172C206.193 11.4752 206.648 12.805 207.278 13.9795C208.149 15.6026 209.057 16.785 211.546 19.5338C213.478 21.6684 214.39 22.7975 215.141 23.9841C216.555 26.2201 217.249 28.5068 217.248 30.935C217.247 32.8063 216.734 34.083 215.622 34.9743C214.936 35.5249 214.153 35.773 212.985 35.8099C212.06 35.8392 211.457 35.7485 210.676 35.4627C208.014 34.4895 206.52 31.3828 206.349 26.4674L206.313 25.4438L205.524 25.4293L204.735 25.4147L204.736 26.083C204.739 28.2907 205.078 30.5491 205.657 32.2167C205.913 32.9537 206.527 34.1242 206.958 34.6977C208.365 36.5681 210.442 37.4991 213.206 37.4991C217.471 37.4991 220.582 35.414 221.623 31.8583C221.912 30.8725 221.962 30.4995 221.992 29.131C222.025 27.664 221.963 27.0744 221.654 25.9222C221.423 25.0585 221.16 24.3891 220.686 23.4563C219.82 21.7527 218.862 20.4398 216.222 17.3372C214.06 14.7969 213.115 13.5492 212.3 12.1603C210.787 9.58031 210.25 6.71371 210.857 4.45265C211.384 2.49143 212.969 1.45284 215.099 1.67418C216.789 1.84981 218.007 2.67992 218.845 4.22713C219.644 5.70112 220.077 7.74246 220.164 10.4466L220.2 11.558H221.003H221.806L221.768 10.3807C221.729 9.13947 221.621 7.88823 221.481 7.0601C220.756 2.77228 218.768 0.543128 215.255 0.0803199C214.697 0.00668061 213.248 -0.0186329 212.708 0.0357598ZM0.0539961 1.06001C0.0721562 1.79437 0.0852226 1.88004 0.215223 2.11863C0.564252 2.75931 1.5511 2.92437 2.13533 2.43986C2.24379 2.34985 2.36698 2.19844 2.40906 2.10331C2.45861 1.99133 2.50933 1.94384 2.55306 1.96842C2.59022 1.98934 2.93736 2.22564 3.32448 2.49357C3.71166 2.76146 4.04175 2.98065 4.05809 2.98065C4.07442 2.98065 4.08782 2.77992 4.08782 2.53453V2.08845L3.31269 1.61351C2.88637 1.35227 2.53756 1.11765 2.53756 1.09202C2.53756 1.06645 2.88637 1.04553 3.31269 1.04553H4.08782V0.653273V0.261019H2.06102H0.0342303L0.0539961 1.06001ZM6.02564 18.7464V37.2376H8.65554H11.2854V29.4186V21.5997L12.1575 21.5996C14.6711 21.5994 16.9255 21.0295 18.6395 19.9608C20.9686 18.5086 22.332 16.2711 22.8432 13.0615C22.9626 12.312 22.9787 9.64066 22.8682 8.91677C22.4839 6.40043 21.632 4.5526 20.1945 3.11789C18.7751 1.70106 16.9208 0.82848 14.4396 0.409605C13.7778 0.29789 13.5896 0.292294 9.88744 0.274146L6.02564 0.255161V18.7464ZM41.8211 0.326394C41.835 0.362377 43.3665 5.47293 45.2244 11.6832L48.6023 22.9747V30.1061V37.2376H51.2322H53.8621V30.0724V22.9073L56.9635 11.6757C58.6693 5.4983 60.0786 0.40291 60.0954 0.352545C60.1237 0.267974 60.0584 0.261019 59.2385 0.261019H58.3511L58.297 0.457146C58.2673 0.565042 57.0445 5.06614 55.5798 10.4596C54.115 15.8531 52.9109 20.2848 52.904 20.3078C52.897 20.3309 51.6605 15.9415 50.1562 10.5538C48.6518 5.16603 47.3868 0.646108 47.3451 0.509446L47.2693 0.261019H44.5325C42.3665 0.261019 41.801 0.274669 41.8211 0.326394ZM81.3238 18.7493V37.2376H83.9537H86.5836V27.5881V17.9386H91.788H96.9925V27.5881V37.2376H97.7953H98.5981V18.7493V0.261019H97.7953H96.9925V8.39376V16.5265H91.788H86.5836V8.39376V0.261019H83.9537H81.3238V18.7493ZM124.399 18.7493V37.2376H130.794H137.188V36.5315V35.8254H133.424H129.659V18.0432V0.261019H127.029H124.399V18.7493ZM182.201 18.7493V37.2376H184.831H187.461V18.7493V0.261019H184.831H182.201V18.7493ZM191.78 18.7493V37.2376H198.176H204.572L204.557 36.5446L204.542 35.8516L200.79 35.8381L197.039 35.8247V26.4375V17.0503L200.403 17.0369L203.766 17.0234L203.782 16.3304L203.797 15.6374H200.418H197.039V8.62912V1.62083H200.666H204.292V0.940926V0.261019H198.036H191.78V18.7493ZM1.92853 1.12142C1.92853 1.16315 1.90163 1.31592 1.86868 1.4609C1.79599 1.78108 1.61798 1.93464 1.3195 1.93464C0.954584 1.93464 0.711748 1.63731 0.710806 1.18935L0.710474 1.04553H1.3195C1.81476 1.04553 1.92853 1.0597 1.92853 1.12142ZM113.492 1.78501C115.887 2.36037 117.627 4.91609 118.557 9.22576C119.04 11.46 119.256 13.4866 119.37 16.8267C119.443 18.9457 119.385 21.4932 119.221 23.3779C118.65 29.9723 116.885 34.1421 114.109 35.4567C113.125 35.9222 111.911 35.9534 111.056 35.535C109.25 34.6515 108.05 31.5766 107.517 26.4636C107.266 24.0627 107.181 22.0824 107.18 18.6654C107.179 8.66421 108.185 3.5785 110.448 2.15111C111.24 1.65185 112.371 1.51576 113.492 1.78501ZM147.791 1.75598C149.189 2.0747 150.355 3.00947 151.286 4.56044C152.051 5.83313 152.762 7.95779 153.156 10.1458C153.646 12.8672 153.829 15.6055 153.781 19.5076C153.752 21.9801 153.691 23.095 153.494 24.7738C152.671 31.7853 150.232 35.8293 146.827 35.8248C145.552 35.8231 144.642 35.2301 143.819 33.8642C142.345 31.4175 141.562 26.1555 141.564 18.697C141.565 12.9377 141.955 8.51688 142.702 5.8109C143.533 2.79932 144.847 1.53307 147.016 1.65525C147.26 1.669 147.608 1.7143 147.791 1.75598ZM13.8451 1.80661C15.9438 2.07894 17.5317 2.76643 18.7914 3.94821C20.4906 5.54239 21.3199 7.8251 21.3183 10.9042C21.3177 12.0276 21.2521 12.7036 21.0519 13.65C20.2589 17.3994 17.6608 19.6344 13.5831 20.0752C13.3091 20.1048 12.68 20.1452 12.1851 20.165L11.2854 20.2009V10.9288V1.65671L12.2534 1.69118C12.7857 1.71016 13.502 1.7621 13.8451 1.80661ZM0.0460787 3.81369V4.07143L1.34785 5.08198L2.64957 6.09254L1.34785 6.10655L0.0460787 6.12057V6.51188V6.9032H2.06695H4.08782V6.62156V6.33992L2.7804 5.32712L1.47298 4.31432L2.7804 4.3003L4.08782 4.28628V3.92112V3.55596H2.06695H0.0460787V3.81369ZM0.083008 7.40879C0.0626886 7.42793 0.0460787 7.88687 0.0460787 8.42865V9.41363H2.06695H4.08782V9.04752V8.68142H2.42683H0.765841V8.02766V7.3739H0.442889C0.265218 7.3739 0.103272 7.38959 0.083008 7.40879ZM1.25971 10.2132C0.454294 10.5337 0.0583146 11.0831 0.00549517 11.9533C-0.0447774 12.7812 0.250104 13.4034 0.881335 13.8016C1.28329 14.0551 1.66698 14.1424 2.24196 14.1109C3.23806 14.0565 3.96646 13.4507 4.14845 12.5255C4.33265 11.589 3.88418 10.6671 3.05452 10.2767C2.77099 10.1433 2.65998 10.1225 2.15 10.1074C1.63952 10.0924 1.531 10.1052 1.25971 10.2132ZM2.76567 11.0242C3.1709 11.2242 3.38267 11.5463 3.41396 12.0103C3.44225 12.4306 3.33301 12.7222 3.04926 12.9838C2.66723 13.336 1.98694 13.4419 1.4856 13.2272C0.966931 13.0051 0.741424 12.6657 0.741424 12.1071C0.741424 11.6765 0.875964 11.3848 1.18031 11.1554C1.44801 10.9537 1.6739 10.8867 2.10216 10.882C2.40197 10.8788 2.524 10.9049 2.76567 11.0242ZM0.083008 14.7832C0.0626886 14.8023 0.0460787 15.3907 0.0460787 16.0907V17.3633L1.38871 17.3646C2.12713 17.3653 2.831 17.3875 2.95281 17.4142C3.24979 17.4789 3.44048 17.6894 3.41185 17.9209L3.39031 18.0955H3.73314C3.99469 18.0955 4.08394 18.0759 4.10958 18.0128C4.21677 17.7489 4.05211 17.1909 3.79864 16.9592C3.46589 16.655 3.33406 16.6311 1.98567 16.6311H0.765841V16.082V15.5328H2.42683H4.08782V15.1405V14.7483H2.10388C1.01266 14.7483 0.103272 14.764 0.083008 14.7832ZM1.48693 18.4374C0.87757 18.5991 0.435802 18.9544 0.164286 19.5014C0.0331783 19.7655 0.0183955 19.8562 0.0183955 20.3968C0.0183955 20.9387 0.0329569 21.0276 0.16567 21.295C0.456454 21.8809 0.972357 22.2639 1.63537 22.3859C2.3383 22.5153 3.11642 22.3081 3.58316 21.8672C4.3879 21.107 4.38741 19.686 3.58216 18.9254C3.08923 18.4597 2.19125 18.2506 1.48693 18.4374ZM2.51364 19.2185C3.09156 19.3813 3.42342 19.8111 3.42342 20.3968C3.42342 20.9924 3.08995 21.4148 2.48845 21.5811C2.11429 21.6846 1.72196 21.6423 1.36839 21.4605C0.815947 21.1765 0.579256 20.5623 0.795794 19.9746C0.93349 19.6008 1.17682 19.3812 1.61007 19.2399C1.96662 19.1235 2.1603 19.1189 2.51364 19.2185ZM3.04228 23.17C2.48247 23.5144 1.99896 23.7963 1.96779 23.7963C1.93662 23.7963 1.52663 23.5594 1.05668 23.2698C0.586675 22.9803 0.167054 22.7307 0.124145 22.7151C0.0607507 22.6921 0.0460787 22.7703 0.0460787 23.1313V23.5759L0.628034 23.9013C0.948162 24.0802 1.21962 24.2416 1.23131 24.2599C1.24299 24.2782 0.981326 24.4344 0.649848 24.607L0.0471306 24.9208L0.046577 25.3815C0.0461894 25.7353 0.0621349 25.8335 0.115287 25.8047C0.153379 25.7841 0.578924 25.5338 1.06094 25.2485C1.54302 24.9632 1.97122 24.742 2.01252 24.757C2.05383 24.772 2.53767 25.0682 3.08774 25.4154L4.08782 26.0466V25.584V25.1214L3.39574 24.7126C3.0151 24.4877 2.70366 24.2892 2.70366 24.2714C2.70366 24.2537 3.0151 24.0634 3.39574 23.8486L4.08782 23.458V22.9995C4.08782 22.7474 4.08162 22.5417 4.07398 22.5424C4.06634 22.5431 3.60209 22.8255 3.04228 23.17ZM0.0570412 26.8407L0.0737618 27.1131L1.35926 28.1089L2.64481 29.1048L1.35926 29.131L0.0737618 29.1571L0.0574841 29.5363L0.0412064 29.9155H2.06451H4.08782V29.6337V29.352L2.77741 28.3393L1.467 27.3266L2.77741 27.3126L4.08782 27.2986V26.9334V26.5682H2.06407H0.0402652L0.0570412 26.8407ZM0.123702 30.8163C0.0407081 30.9903 0.0183955 31.1594 0.0183955 31.6139C0.0183955 32.1387 0.0322371 32.2172 0.172369 32.4868C0.377335 32.881 0.714904 33.1913 1.1534 33.3885C1.48156 33.5361 1.56212 33.5504 2.06695 33.5501C2.55644 33.5498 2.65909 33.5329 2.95281 33.4037C3.88795 32.9925 4.37716 32.0149 4.12082 31.0696C4.07071 30.8849 4.00239 30.7026 3.96895 30.6646C3.89974 30.5858 3.03586 30.5642 3.03586 30.6413C3.03586 30.6665 3.07716 30.7195 3.12766 30.759C3.28833 30.8845 3.42093 31.236 3.42221 31.5396C3.42453 32.095 3.06288 32.5589 2.50357 32.7179C2.16976 32.8129 2.01762 32.8112 1.64794 32.7084C1.12533 32.5632 0.710474 32.0507 0.710474 31.5504C0.710474 31.3306 0.845402 30.9931 1.01942 30.7776L1.16653 30.5954H0.697795H0.229009L0.123702 30.8163ZM0.0460787 35.7208V37.2376H2.06695H4.08782V36.8453V36.453H2.42683H0.765841V35.7208V34.9886H2.42683H4.08782V34.5964V34.2041H2.06695H0.0460787V35.7208Z" fill="#465068"/>
</svg>
