<svg width="165" height="74" viewBox="0 0 165 74" fill="none" xmlns="http://www.w3.org/2000/svg">
<path d="M57.1993 40.2793H49.8398V73.2733H57.1993V40.2793Z" fill="#465068"/>
<path d="M108.005 40.2793V61.4518L92.0509 40.2793H84.6914V73.2733H92.0509V52.0605L108.005 73.2733H115.364V40.2793H108.005Z" fill="#465068"/>
<path d="M121.686 0.00927734H113.16L104.449 12.363V0.00927734H97.0898V33.0033H104.449V20.6496L113.16 33.0033H121.686L110.054 16.5063L121.686 0.00927734Z" fill="#465068"/>
<path d="M82.041 46.9601V40.2793H67.2086H59.8477V46.9601V53.4352V60.116V66.5925V73.2733H67.2086H82.041V66.5925H67.2086V60.116H77.5617V53.4352H67.2086V46.9601H82.041Z" fill="#465068"/>
<path d="M165.004 46.9601V40.2793H150.172H142.812V46.9601V53.4352V60.116V66.5925V73.2733H150.172H165.004V66.5925H150.172V60.116H160.525V53.4352H150.172V46.9601H165.004Z" fill="#465068"/>
<path d="M34.8438 26.2882V0.00927734H27.4844V26.2882V33.0033H34.8438H44.6818V26.2882H34.8438Z" fill="#465068"/>
<path d="M65.7226 33.0033H73.0821L64.6506 0.00927734H53.751L45.3359 33.0033H52.6954L54.8469 24.5781H63.5711L65.7226 33.0033ZM56.561 17.863L59.2098 7.49667L61.857 17.863H56.561Z" fill="#465068"/>
<path d="M22.1948 16.503C22.4666 16.2734 24.9929 14.0117 24.9929 9.36446C24.9929 4.58457 21.299 2.07983 20.0284 1.34183C18.813 0.636622 16.8481 0 14.2352 0H0V33H14.2352C16.8481 33 18.813 32.3693 20.0284 31.6582C21.299 30.9127 24.9929 28.4154 24.9929 23.6355C24.9929 18.9943 22.4666 16.7326 22.1948 16.503ZM17.6454 23.063C17.6454 23.9167 17.3058 24.7355 16.7012 25.3391C16.0967 25.9428 15.2767 26.2819 14.4218 26.2819H7.35946V19.8605V19.8471H14.4218C15.2767 19.8471 16.0967 20.1862 16.7012 20.7899C17.3058 21.3936 17.6454 22.2123 17.6454 23.066V23.063ZM14.4218 13.1588H7.35946V6.7151H14.4218C14.8509 6.70587 15.2775 6.7823 15.6765 6.93988C16.0756 7.09746 16.4392 7.33304 16.7459 7.63278C17.0526 7.93253 17.2963 8.29041 17.4627 8.68544C17.6291 9.08048 17.7148 9.5047 17.7148 9.93324C17.7148 10.3618 17.6291 10.786 17.4627 11.181C17.2963 11.5761 17.0526 11.934 16.7459 12.2337C16.4392 12.5335 16.0756 12.769 15.6765 12.9266C15.2775 13.0842 14.8509 13.1606 14.4218 13.1514V13.1588Z" fill="#465068"/>
<path d="M89.4414 26.3001C84.008 26.3001 78.8658 21.9019 78.8658 16.4765C78.8658 11.0525 84.008 6.6543 89.4414 6.6543H94.5985V0.00927734H88.8651C79.7438 0.00927734 71.6094 7.39529 71.6094 16.5063C71.6094 25.6173 79.7437 33.0033 88.868 33.0033H94.6015V26.2942L89.4414 26.3001Z" fill="#465068"/>
<path d="M42.0285 66.5702C36.5951 66.5702 31.4529 62.1719 31.4529 56.7465C31.4529 51.321 36.5951 46.9243 42.0285 46.9243H47.1797V40.2793H41.4462C32.3219 40.2793 24.1875 47.6653 24.1875 56.7763C24.1875 65.8873 32.3219 73.2733 41.4462 73.2733H47.1797V66.5642L42.0285 66.5702Z" fill="#465068"/>
<path d="M134.999 66.5702C129.567 66.5702 124.423 62.1719 124.423 56.7465C124.423 51.321 129.567 46.9243 134.999 46.9243H140.158V40.2793H134.424C125.3 40.2793 117.164 47.6653 117.164 56.7763C117.164 65.8873 125.3 73.2733 134.424 73.2733H140.158V66.5642L134.999 66.5702Z" fill="#465068"/>
<path d="M17.5095 54.7424C14.7294 53.6585 13.9052 53.7226 12.8197 53.572C11.7342 53.4214 8.62859 53.3543 7.74319 51.3595C6.85778 49.3646 7.99851 47.0149 11.4759 47.0149H22.8443V40.2983H11.4699C9.89026 40.2983 8.03583 40.3699 5.95745 41.2973C3.5252 42.3812 0.134378 45.6328 0.134378 49.7537C0.134378 53.8746 2.52333 57.2083 5.82307 58.6993C9.12281 60.1902 13.2408 60.1037 14.5069 60.8313C15.773 61.5588 15.991 62.844 15.991 63.4359C15.991 64.0278 15.4804 66.5594 13.0213 66.5594C10.5621 66.5594 8.86599 66.5758 8.86599 66.5758H0V73.2849H10.9608C13.2975 73.2849 15.7581 73.2238 18.262 71.8104C20.766 70.397 23.352 67.7268 23.352 63.4613C23.352 59.1957 20.2897 55.8263 17.5095 54.7424Z" fill="#465068"/>
</svg>
