<svg width="230" height="100" viewBox="0 0 230 100" fill="none" xmlns="http://www.w3.org/2000/svg">
<rect width="230" height="100" fill="white"/>
<path d="M91.0785 52.8516H84.1206V74.8476H91.0785V52.8516Z" fill="#465068"/>
<path d="M139.109 52.8516V66.9666L124.026 52.8516H117.068V74.8476H124.026V60.7057L139.109 74.8476H146.067V52.8516H139.109Z" fill="#465068"/>
<path d="M152.047 26.0059H143.986L135.751 34.2417V26.0059H128.793V48.0019H135.751V39.766L143.986 48.0019H152.047L141.05 37.0039L152.047 26.0059Z" fill="#465068"/>
<path d="M114.568 57.3054V52.8516H100.544H93.5851V57.3054V61.6221V66.076V70.3937V74.8476H100.544H114.568V70.3937H100.544V66.076H110.333V61.6221H100.544V57.3054H114.568Z" fill="#465068"/>
<path d="M193 57.3054V52.8516H178.977H172.019V57.3054V61.6221V66.076V70.3937V74.8476H178.977H193V70.3937H178.977V66.076H188.765V61.6221H178.977V57.3054H193Z" fill="#465068"/>
<path d="M69.9446 43.5251V26.0059H62.9867V43.5251V48.0019H69.9446H79.2459V43.5251H69.9446Z" fill="#465068"/>
<path d="M99.1323 48.0019H106.09L98.1188 26.0059H87.8139L79.8579 48.0019H86.8158L88.85 42.3851H97.0982L99.1323 48.0019ZM90.4706 37.9084L92.9748 30.9975L95.4776 37.9084H90.4706Z" fill="#465068"/>
<path d="M57.9838 37.002C58.2407 36.8489 60.6292 35.3411 60.6292 32.243C60.6292 29.0564 57.1368 27.3866 55.9355 26.8946C54.7864 26.4244 52.9287 26 50.4584 26H36.9999V48H50.4584C52.9287 48 54.7864 47.5796 55.9355 47.1054C57.1368 46.6085 60.6292 44.9436 60.6292 41.757C60.6292 38.6629 58.2407 37.1551 57.9838 37.002ZM53.6825 41.3753C53.6825 41.9445 53.3614 42.4903 52.7899 42.8927C52.2183 43.2952 51.4431 43.5213 50.6348 43.5213H43.9578V39.2403V39.2314H50.6348C51.4431 39.2314 52.2183 39.4575 52.7899 39.8599C53.3614 40.2624 53.6825 40.8082 53.6825 41.3773V41.3753ZM50.6348 34.7726H43.9578V30.4767H50.6348C51.0405 30.4706 51.4438 30.5215 51.8211 30.6266C52.1985 30.7316 52.5422 30.8887 52.8322 31.0885C53.1221 31.2884 53.3525 31.5269 53.5098 31.7903C53.6671 32.0537 53.7481 32.3365 53.7481 32.6222C53.7481 32.9079 53.6671 33.1907 53.5098 33.454C53.3525 33.7174 53.1221 33.956 52.8322 34.1558C52.5422 34.3556 52.1985 34.5127 51.8211 34.6177C51.4438 34.7228 51.0405 34.7737 50.6348 34.7676V34.7726Z" fill="#465068"/>
<path d="M121.56 43.5331C116.423 43.5331 111.561 40.601 111.561 36.984C111.561 33.368 116.423 30.4359 121.56 30.4359H126.435V26.0059H121.015C112.391 26.0059 104.701 30.9299 104.701 37.0039C104.701 43.0779 112.391 48.0019 121.018 48.0019H126.438V43.5291L121.56 43.5331Z" fill="#465068"/>
<path d="M76.7355 70.3788C71.5986 70.3788 66.7369 67.4467 66.7369 63.8297C66.7369 60.2127 71.5986 57.2816 76.7355 57.2816H81.6056V52.8516H76.185C67.5585 52.8516 59.8679 57.7756 59.8679 63.8496C59.8679 69.9236 67.5585 74.8476 76.185 74.8476H81.6056V70.3748L76.7355 70.3788Z" fill="#465068"/>
<path d="M164.636 70.3788C159.501 70.3788 154.638 67.4467 154.638 63.8297C154.638 60.2127 159.501 57.2816 164.636 57.2816H169.514V52.8516H164.093C155.466 52.8516 147.774 57.7756 147.774 63.8496C147.774 69.9236 155.466 74.8476 164.093 74.8476H169.514V70.3748L164.636 70.3788Z" fill="#465068"/>
<path d="M53.5541 62.4946C50.9256 61.772 50.1464 61.8147 49.1202 61.7143C48.0939 61.6139 45.1577 61.5692 44.3206 60.2393C43.4835 58.9094 44.562 57.343 47.8497 57.343H58.5979V52.8652H47.844C46.3505 52.8652 44.5973 52.9129 42.6323 53.5312C40.3327 54.2538 37.1269 56.4216 37.1269 59.1688C37.1269 61.9161 39.3855 64.1386 42.5052 65.1325C45.625 66.1265 49.5182 66.0688 50.7153 66.5539C51.9124 67.0389 52.1185 67.8957 52.1185 68.2903C52.1185 68.6849 51.6357 70.3726 49.3107 70.3726C46.9858 70.3726 45.3822 70.3835 45.3822 70.3835H36.9999V74.8563H47.3627C49.5719 74.8563 51.8982 74.8155 54.2656 73.8733C56.6329 72.931 59.0778 71.1509 59.0778 68.3072C59.0778 65.4635 56.1826 63.2172 53.5541 62.4946Z" fill="#465068"/>
</svg>
