<svg width="230" height="100" viewBox="0 0 230 100" fill="none" xmlns="http://www.w3.org/2000/svg">
<rect width="230" height="100" fill="white"/>
<path fill-rule="evenodd" clip-rule="evenodd" d="M62.1289 38.0524C60.2662 38.3388 58.9442 39.3551 58.2322 41.0481C57.9497 41.72 57.8165 42.4861 57.8135 43.4564C57.8081 45.2448 58.2801 46.6608 59.4234 48.2855C59.9071 48.9728 60.4095 49.5606 61.7183 50.9702C62.5539 51.8703 63.1948 52.613 63.5688 53.1146C64.7882 54.7503 65.3551 56.2364 65.451 58.0482C65.5501 59.9225 64.6823 61.2745 63.0665 61.7632C62.6559 61.8873 61.8977 61.9204 61.3865 61.8365C59.2432 61.4846 58.0067 59.8191 57.6419 56.793C57.6028 56.4684 57.532 55.3868 57.5306 55.0923L57.5299 54.9432L57.0039 54.9529L56.4779 54.9625L56.4889 55.5204C56.5437 58.2944 57.2004 60.3176 58.4434 61.5416C58.8691 61.9608 59.2564 62.2285 59.7984 62.4784C60.539 62.8198 61.1669 62.9564 62.1437 62.9886C64.0904 63.0528 65.7087 62.5369 66.8633 61.484C68.0979 60.3581 68.6954 58.7654 68.6291 56.7769C68.5898 55.5987 68.3476 54.691 67.7727 53.5678C67.2134 52.475 66.4491 51.4457 64.8215 49.593C63.2835 47.8423 62.6168 46.9792 62.068 46.0286C61.5731 45.1713 61.2653 44.3686 61.0883 43.4735C61.0094 43.0746 60.9779 41.9752 61.0339 41.5731C61.2217 40.224 61.8474 39.4238 62.9189 39.1621C63.2656 39.0775 63.953 39.0871 64.3399 39.182C65.5996 39.4911 66.3959 40.4282 66.8538 42.1402C67.0624 42.9203 67.1807 43.8433 67.2244 45.0341L67.2491 45.7053H67.7833H68.3176L68.2921 44.9818C68.1899 42.0835 67.6725 40.346 66.5864 39.2538C65.9897 38.6539 65.2933 38.2975 64.3394 38.1041C63.8508 38.005 62.6238 37.9764 62.1289 38.0524ZM86.9663 38.0511C86.1139 38.1795 85.3621 38.4948 84.6448 39.0247C83.0453 40.2065 81.881 42.4997 81.3223 45.5687C80.778 48.5584 80.7626 52.6165 81.2845 55.5552C81.756 58.2106 82.6216 60.1321 83.9204 61.4066C84.3963 61.8736 84.8067 62.1671 85.3607 62.4365C86.1325 62.812 86.7335 62.9556 87.6676 62.9879C89.786 63.061 91.3032 62.2055 92.2593 60.3986C93.0154 58.9697 93.4442 56.76 93.4442 54.2919V53.655H92.9145H92.3849L92.3618 54.5703C92.2836 57.674 91.6089 59.9214 90.4174 61.0468C90.0653 61.3794 89.6879 61.6033 89.2363 61.7472C88.9369 61.8427 88.8176 61.8614 88.4197 61.8758C87.6008 61.9053 87.0574 61.7324 86.5568 61.2832C85.4667 60.3051 84.9147 58.261 84.6567 54.2477C84.5945 53.279 84.5704 49.1995 84.6191 47.8671C84.7503 44.2763 85.1011 42.0934 85.7653 40.7354C85.972 40.3128 86.2026 40.0004 86.5136 39.722C87.0108 39.2769 87.4979 39.1074 88.2766 39.1084C88.6267 39.1089 88.8093 39.1268 89.0333 39.1827C90.8865 39.6449 91.8599 41.6073 92.0784 45.3218C92.0981 45.6574 92.1145 46.1006 92.1148 46.3068L92.1154 46.6816H92.6506H93.1858L93.1856 46.4288C93.1851 45.9176 93.1084 44.4879 93.0551 43.9968C92.7825 41.4861 92.058 39.807 90.8508 38.8883C90.4994 38.6208 89.8097 38.2864 89.3826 38.1765C88.7153 38.0046 87.6439 37.949 86.9663 38.0511ZM114.613 38.0553C112.691 38.3769 111.134 39.8364 110.117 42.2709C109.175 44.5274 108.7 47.6754 108.775 51.162C108.826 53.4921 109.039 55.2305 109.481 56.9151C109.763 57.989 110.032 58.7047 110.479 59.565C111.215 60.9808 112.195 61.9926 113.358 62.5374C113.967 62.8228 114.535 62.9571 115.262 62.988C116.682 63.0483 117.823 62.6397 118.783 61.7274C119.689 60.8677 120.342 59.6745 120.834 57.9814C121.528 55.5916 121.801 52.0836 121.604 48.0763C121.293 41.7623 119.577 38.5055 116.324 38.0541C115.844 37.9875 115.014 37.9881 114.613 38.0553ZM137.55 38.0516C135.919 38.3434 134.565 39.4175 133.57 41.2108C132.745 42.6967 132.178 44.6642 131.908 46.9779C131.759 48.2606 131.739 48.6768 131.74 50.5867C131.741 52.5395 131.771 53.1013 131.945 54.4395C132.6 59.483 134.646 62.5078 137.701 62.9503C138.398 63.0512 139.299 62.985 139.952 62.7849C141.23 62.3931 142.321 61.3664 143.068 59.8549C143.73 58.5151 144.182 56.7134 144.415 54.4918C144.541 53.2952 144.569 52.7611 144.591 51.1097C144.68 44.5483 143.662 40.6193 141.436 38.9368C140.915 38.5427 140.31 38.2686 139.623 38.1156C139.125 38.0046 138.006 37.97 137.55 38.0516ZM153.221 38.0232C153.16 38.0304 152.946 38.0685 152.746 38.1078C150.003 38.6449 148.054 41.1449 147.189 45.2346C146.462 48.6726 146.519 53.758 147.321 57.0365C147.593 58.1497 147.929 59.0694 148.357 59.8764C148.725 60.57 149.169 61.1698 149.662 61.6398C150.429 62.3716 151.428 62.8431 152.464 62.9631C153.742 63.1112 154.813 62.8126 155.628 62.0816C155.926 61.8141 156.257 61.3749 156.383 61.0781C156.427 60.9746 156.474 60.8784 156.486 60.8645C156.498 60.8504 156.547 61.2349 156.593 61.7187C156.639 62.2025 156.686 62.6494 156.697 62.7117L156.718 62.825H158.19H159.662V57.072V51.3189H156.469H153.277V51.7896V52.2603H154.735H156.193L156.192 54.7097C156.192 56.0569 156.175 57.4259 156.156 57.7519C156.047 59.5465 155.685 60.6526 154.993 61.3095C154.553 61.727 154.149 61.8841 153.518 61.8831C152.544 61.8816 151.931 61.4767 151.452 60.5186C150.991 59.5969 150.669 57.9811 150.509 55.7819C150.33 53.3263 150.313 48.8352 150.473 46.4375C150.764 42.0918 151.567 39.9375 153.124 39.322C153.523 39.1646 153.857 39.1067 154.366 39.1075C155.826 39.1098 156.8 39.938 157.415 41.7006C157.801 42.8058 157.973 43.9897 158.06 46.1324L158.083 46.6816H158.596H159.109L159.108 45.9407C159.107 43.6639 158.754 41.7552 158.09 40.4428C157.239 38.759 155.903 37.9857 153.881 38.0049C153.579 38.0078 153.282 38.016 153.221 38.0232ZM182.805 38.0238C182.734 38.031 182.515 38.0672 182.317 38.1042C181.335 38.2888 180.514 38.6999 179.814 39.359C178.936 40.1848 178.411 41.3038 178.262 42.6677C178.208 43.1624 178.238 44.3014 178.318 44.7813C178.462 45.6501 178.765 46.5367 179.185 47.3196C179.766 48.4017 180.372 49.19 182.03 51.0225C183.319 52.4456 183.927 53.1983 184.427 53.9894C185.37 55.48 185.832 57.0045 185.832 58.6233C185.832 59.8709 185.489 60.722 184.748 61.3162C184.29 61.6832 183.769 61.8486 182.99 61.8733C182.374 61.8928 181.972 61.8323 181.45 61.6418C179.676 60.993 178.68 58.9219 178.566 55.6449L178.542 54.9625L178.016 54.9529L177.49 54.9432L177.491 55.3887C177.493 56.8605 177.719 58.3661 178.105 59.4778C178.275 59.9691 178.684 60.7495 178.972 61.1318C179.91 62.3787 181.295 62.9994 183.138 62.9994C185.981 62.9994 188.055 61.6094 188.749 59.2388C188.941 58.5816 188.975 58.333 188.995 57.4206C189.016 56.4427 188.975 56.0496 188.769 55.2814C188.615 54.7057 188.44 54.2594 188.124 53.6376C187.546 52.5018 186.908 51.6265 185.148 49.5581C183.707 47.8646 183.077 47.0328 182.534 46.1069C181.524 44.3869 181.166 42.4758 181.571 40.9684C181.922 39.661 182.98 38.9686 184.399 39.1161C185.526 39.2332 186.338 39.7866 186.897 40.8181C187.429 41.8007 187.718 43.1616 187.776 44.9644L187.8 45.7053H188.335H188.87L188.846 44.9205C188.819 44.093 188.747 43.2588 188.654 42.7067C188.171 39.8482 186.846 38.3621 184.504 38.0535C184.131 38.0045 183.165 37.9876 182.805 38.0238ZM41.036 38.7067C41.0481 39.1962 41.0568 39.2534 41.1435 39.4124C41.3762 39.8395 42.0341 39.9496 42.4236 39.6266C42.4959 39.5666 42.578 39.4656 42.606 39.4022C42.6391 39.3276 42.6729 39.2959 42.702 39.3123C42.7268 39.3262 42.9582 39.4838 43.2163 39.6624C43.4744 39.841 43.6945 39.9871 43.7054 39.9871C43.7163 39.9871 43.7252 39.8533 43.7252 39.6897V39.3923L43.2085 39.0757C42.9242 38.9015 42.6917 38.7451 42.6917 38.728C42.6917 38.711 42.9242 38.697 43.2085 38.697H43.7252V38.4355V38.174H42.374H41.0228L41.036 38.7067ZM45.0171 50.4976V62.825H46.7704H48.5236V57.6124V52.3998L49.105 52.3997C50.7808 52.3996 52.2837 52.0197 53.4263 51.3072C54.979 50.3391 55.888 48.8474 56.2288 46.7077C56.3084 46.208 56.3191 44.4271 56.2455 43.9445C55.9893 42.267 55.4213 41.0351 54.463 40.0786C53.5167 39.134 52.2806 38.5523 50.6264 38.2731C50.1852 38.1986 50.0597 38.1949 47.5916 38.1828L45.0171 38.1701V50.4976ZM68.8807 38.2176C68.89 38.2416 69.911 41.6486 71.1496 45.7888L73.4016 53.3164V58.0707V62.825H75.1548H76.9081V58.0483V53.2716L78.9756 45.7838C80.1128 41.6655 81.0524 38.2686 81.0636 38.235C81.0824 38.1786 81.039 38.174 80.4924 38.174H79.9007L79.8647 38.3048C79.8449 38.3767 79.0297 41.3774 78.0532 44.9731C77.0767 48.5688 76.274 51.5232 76.2693 51.5386C76.2647 51.5539 75.4404 48.6277 74.4375 45.0359C73.4345 41.444 72.5912 38.4307 72.5634 38.3396L72.5128 38.174H70.6883C69.2443 38.174 68.8673 38.1831 68.8807 38.2176ZM95.2159 50.4995V62.825H96.9691H98.7224V56.3921V49.9591H102.192H105.662V56.3921V62.825H106.197H106.732V50.4995V38.174H106.197H105.662V43.5958V49.0177H102.192H98.7224V43.5958V38.174H96.9691H95.2159V50.4995ZM123.933 50.4995V62.825H128.196H132.459V62.3543V61.8836H129.949H127.439V50.0288V38.174H125.686H123.933V50.4995ZM162.467 50.4995V62.825H164.221H165.974V50.4995V38.174H164.221H162.467V50.4995ZM168.853 50.4995V62.825H173.117H177.382L177.371 62.363L177.361 61.9011L174.86 61.8921L172.36 61.8831V55.625V49.3669L174.602 49.3579L176.844 49.3489L176.855 48.8869L176.865 48.4249H174.612H172.36V43.7527V39.0806H174.777H177.195V38.6273V38.174H173.024H168.853V50.4995ZM42.2857 38.7476C42.2857 38.7754 42.2678 38.8773 42.2458 38.9739C42.1973 39.1874 42.0787 39.2898 41.8797 39.2898C41.6364 39.2898 41.4745 39.0915 41.4739 38.7929L41.4736 38.697H41.8797C42.2098 38.697 42.2857 38.7065 42.2857 38.7476ZM116.661 39.19C118.258 39.5736 119.418 41.2774 120.038 44.1505C120.36 45.64 120.504 46.9911 120.58 49.2178C120.628 50.6305 120.59 52.3288 120.481 53.5853C120.1 57.9815 118.923 60.7614 117.072 61.6378C116.417 61.9482 115.607 61.9689 115.037 61.69C113.833 61.101 113.034 59.0511 112.678 55.6424C112.511 54.0418 112.454 52.7216 112.453 50.4436C112.453 43.7761 113.124 40.3857 114.632 39.4341C115.16 39.1012 115.914 39.0105 116.661 39.19ZM139.527 39.1707C140.46 39.3831 141.236 40.0063 141.858 41.0403C142.367 41.8888 142.842 43.3052 143.104 44.7639C143.43 46.5782 143.552 48.4037 143.521 51.0051C143.501 52.6534 143.46 53.3967 143.329 54.5159C142.781 59.1902 141.154 61.8862 138.885 61.8832C138.034 61.8821 137.428 61.4868 136.879 60.5761C135.897 58.945 135.375 55.437 135.376 50.4647C135.376 46.6251 135.637 43.6779 136.135 41.8739C136.688 39.8662 137.565 39.022 139.011 39.1035C139.173 39.1127 139.406 39.1429 139.527 39.1707ZM50.2301 39.2044C51.6292 39.386 52.6878 39.8443 53.5276 40.6321C54.6604 41.6949 55.2133 43.2167 55.2122 45.2695C55.2118 46.0184 55.1681 46.4691 55.0346 47.1C54.5059 49.5996 52.7739 51.0896 50.0554 51.3834C49.8727 51.4032 49.4533 51.4301 49.1234 51.4433L48.5236 51.4673V45.2859V39.1045L49.1689 39.1275C49.5238 39.1401 50.0014 39.1747 50.2301 39.2044ZM41.0307 40.5425V40.7143L41.8986 41.388L42.7664 42.0617L41.8986 42.071L41.0307 42.0804V42.3413V42.6021H42.378H43.7252V42.4144V42.2266L42.8536 41.5514L41.982 40.8762L42.8536 40.8669L43.7252 40.8575V40.6141V40.3706H42.378H41.0307V40.5425ZM41.0553 42.9392C41.0418 42.952 41.0307 43.2579 41.0307 43.6191V44.2758H42.378H43.7252V44.0317V43.7876H42.6179H41.5106V43.3518V42.9159H41.2953C41.1768 42.9159 41.0688 42.9264 41.0553 42.9392ZM41.8398 44.8088C41.3029 45.0225 41.0389 45.3887 41.0037 45.9689C40.9701 46.5208 41.1667 46.9356 41.5876 47.2011C41.8555 47.3701 42.1113 47.4283 42.4946 47.4073C43.1587 47.371 43.6443 46.9671 43.7656 46.3503C43.8884 45.726 43.5895 45.1114 43.0363 44.8511C42.8473 44.7622 42.7733 44.7483 42.4333 44.7383C42.093 44.7283 42.0207 44.7368 41.8398 44.8088ZM42.8438 45.3494C43.1139 45.4828 43.2551 45.6975 43.276 46.0069C43.2948 46.2871 43.222 46.4814 43.0328 46.6558C42.7782 46.8907 42.3246 46.9612 41.9904 46.8181C41.6446 46.67 41.4943 46.4438 41.4943 46.0714C41.4943 45.7843 41.584 45.5899 41.7869 45.4369C41.9653 45.3024 42.1159 45.2578 42.4014 45.2547C42.6013 45.2525 42.6827 45.27 42.8438 45.3494ZM41.0553 47.8554C41.0418 47.8682 41.0307 48.2605 41.0307 48.7271V49.5755L41.9258 49.5764C42.4181 49.5768 42.8873 49.5917 42.9685 49.6094C43.1665 49.6526 43.2937 49.7929 43.2746 49.9473L43.2602 50.0637H43.4888C43.6631 50.0637 43.7226 50.0506 43.7397 50.0085C43.8112 49.8326 43.7014 49.4606 43.5324 49.3061C43.3106 49.1033 43.2227 49.0874 42.3238 49.0874H41.5106V48.7213V48.3552H42.6179H43.7252V48.0937V47.8322H42.4026C41.6751 47.8322 41.0688 47.8427 41.0553 47.8554ZM41.9913 50.2916C41.585 50.3994 41.2905 50.6363 41.1095 51.0009C41.0221 51.177 41.0123 51.2375 41.0123 51.5978C41.0123 51.9592 41.022 52.0184 41.1104 52.1967C41.3043 52.5873 41.6482 52.8426 42.0902 52.9239C42.5589 53.0102 43.0776 52.8721 43.3888 52.5781C43.9253 52.0713 43.9249 51.124 43.3881 50.6169C43.0595 50.3065 42.4608 50.1671 41.9913 50.2916ZM42.6758 50.8123C43.061 50.9209 43.2823 51.2074 43.2823 51.5978C43.2823 51.9949 43.06 52.2766 42.659 52.3874C42.4095 52.4564 42.148 52.4282 41.9123 52.307C41.544 52.1177 41.3862 51.7082 41.5305 51.3164C41.6223 51.0672 41.7845 50.9208 42.0734 50.8266C42.3111 50.749 42.4402 50.7459 42.6758 50.8123ZM43.0282 53.4467C42.655 53.6763 42.3326 53.8642 42.3119 53.8642C42.2911 53.8642 42.0178 53.7062 41.7045 53.5132C41.3911 53.3202 41.1114 53.1538 41.0828 53.1434C41.0405 53.1281 41.0307 53.1802 41.0307 53.4209V53.7173L41.4187 53.9342C41.6321 54.0535 41.8131 54.1611 41.8209 54.1733C41.8287 54.1855 41.6542 54.2896 41.4332 54.4046L41.0314 54.6138L41.0311 54.921C41.0308 55.1569 41.0414 55.2223 41.0769 55.2031C41.1023 55.1894 41.3859 55.0225 41.7073 54.8323C42.0287 54.6421 42.3141 54.4947 42.3417 54.5046C42.3692 54.5146 42.6918 54.7122 43.0585 54.9436L43.7252 55.3644V55.056V54.7476L43.2638 54.4751C43.0101 54.3251 42.8024 54.1928 42.8024 54.181C42.8024 54.1691 43.0101 54.0423 43.2638 53.8991L43.7252 53.6387V53.333C43.7252 53.1649 43.7211 53.0278 43.716 53.0283C43.7109 53.0287 43.4014 53.217 43.0282 53.4467ZM41.038 55.8938L41.0492 56.0754L41.9062 56.7393L42.7632 57.4032L41.9062 57.4206L41.0492 57.4381L41.0383 57.6909L41.0275 57.9436H42.3763H43.7252V57.7558V57.568L42.8516 56.8929L41.978 56.2177L42.8516 56.2084L43.7252 56.199V55.9556V55.7122H42.376H41.0268L41.038 55.8938ZM41.0825 58.5442C41.0271 58.6602 41.0123 58.7729 41.0123 59.0759C41.0123 59.4258 41.0215 59.4781 41.1149 59.6578C41.2516 59.9207 41.4766 60.1275 41.7689 60.259C41.9877 60.3574 42.0414 60.3669 42.378 60.3667C42.7043 60.3666 42.7727 60.3553 42.9685 60.2691C43.592 59.995 43.9181 59.3433 43.7472 58.7131C43.7138 58.5899 43.6683 58.4684 43.646 58.443C43.5998 58.3905 43.0239 58.3761 43.0239 58.4275C43.0239 58.4443 43.0514 58.4797 43.0851 58.506C43.1922 58.5897 43.2806 58.824 43.2815 59.0264C43.283 59.3967 43.0419 59.706 42.669 59.812C42.4465 59.8752 42.3451 59.8741 42.0986 59.8056C41.7502 59.7088 41.4736 59.3671 41.4736 59.0336C41.4736 58.8871 41.5636 58.6621 41.6796 58.5184L41.7777 58.3969H41.4652H41.1527L41.0825 58.5442ZM41.0307 61.8139V62.825H42.378H43.7252V62.5635V62.302H42.6179H41.5106V61.8139V61.3257H42.6179H43.7252V61.0642V60.8027H42.378H41.0307V61.8139Z" fill="#465068"/>
</svg>
