<svg width="281" height="36" viewBox="0 0 281 36" fill="none" xmlns="http://www.w3.org/2000/svg">
<path d="M96.905 20.2138V8.68604H93.2417V20.2138C93.2417 21.5985 92.9929 22.6197 92.4951 23.2775C91.9973 23.9179 91.0951 24.2381 89.7885 24.2381C89.0418 24.2381 88.443 24.1256 87.9919 23.9006C87.5563 23.6583 87.2141 23.3554 86.9652 22.9919C86.7163 22.6111 86.553 22.1784 86.4752 21.6937C86.3975 21.2091 86.3586 20.7158 86.3586 20.2138V8.68604H82.6953V20.2138C82.6953 22.7409 83.3097 24.6103 84.5386 25.8219C85.783 27.0335 87.533 27.6393 89.7885 27.6393C92.0129 27.6393 93.7551 27.0335 95.015 25.8219C96.275 24.593 96.905 22.7236 96.905 20.2138ZM99.1029 8.68604V27.2239H102.416V8.68604H99.1029ZM108.525 13.8008V9.7765H105.212V13.8008H103.205V16.2674H105.212V24.1862C105.212 24.8612 105.313 25.4065 105.515 25.8219C105.717 26.2373 105.99 26.5575 106.332 26.7825C106.69 27.0076 107.094 27.1547 107.545 27.2239C108.012 27.3105 108.502 27.3537 109.015 27.3537C109.342 27.3537 109.676 27.3451 110.018 27.3278C110.361 27.3105 110.672 27.2758 110.952 27.2239V24.3679C110.796 24.4026 110.633 24.4285 110.462 24.4458C110.291 24.4631 110.112 24.4718 109.925 24.4718C109.365 24.4718 108.992 24.3679 108.805 24.1602C108.618 23.9525 108.525 23.5371 108.525 22.914V16.2674H110.952V13.8008H108.525ZM115.235 11.7238V8.68604H111.921V11.7238H115.235ZM111.921 13.8008V27.2239H115.235V13.8008H111.921ZM117.237 13.8008V27.2239H120.55V19.4349C120.55 18.7772 120.636 18.2492 120.807 17.8511C120.978 17.4357 121.18 17.1241 121.413 16.9164C121.662 16.6914 121.911 16.5443 122.16 16.4751C122.425 16.3885 122.635 16.3452 122.79 16.3452C123.319 16.3452 123.716 16.4491 123.98 16.6568C124.26 16.8472 124.454 17.1068 124.563 17.4357C124.688 17.7646 124.758 18.1281 124.773 18.5262C124.789 18.907 124.797 19.2964 124.797 19.6945V27.2239H128.11V19.7465C128.11 19.331 128.133 18.9243 128.18 18.5262C128.242 18.1108 128.351 17.7473 128.507 17.4357C128.678 17.1068 128.903 16.8472 129.183 16.6568C129.479 16.4491 129.86 16.3452 130.327 16.3452C130.793 16.3452 131.159 16.4318 131.423 16.6049C131.703 16.778 131.913 17.0116 132.053 17.3059C132.193 17.6001 132.279 17.9463 132.31 18.3444C132.341 18.7425 132.357 19.1666 132.357 19.6166V27.2239H135.67V18.2406C135.67 17.3751 135.561 16.6395 135.343 16.0337C135.125 15.4106 134.822 14.9086 134.433 14.5278C134.044 14.147 133.578 13.8701 133.033 13.697C132.489 13.5239 131.898 13.4373 131.26 13.4373C130.42 13.4373 129.689 13.6624 129.067 14.1124C128.46 14.5624 127.978 15.0817 127.62 15.6702C127.293 14.8394 126.811 14.2595 126.173 13.9306C125.551 13.6018 124.859 13.4373 124.097 13.4373C123.303 13.4373 122.596 13.6277 121.973 14.0085C121.367 14.3893 120.846 14.9259 120.41 15.6183H120.363V13.8008H117.237ZM137.449 17.929C137.496 17.0636 137.69 16.3452 138.032 15.7741C138.375 15.2029 138.81 14.7442 139.339 14.398C139.868 14.0518 140.459 13.8095 141.112 13.671C141.781 13.5152 142.45 13.4373 143.119 13.4373C143.726 13.4373 144.34 13.4893 144.962 13.5931C145.584 13.6797 146.152 13.8614 146.665 14.1384C147.179 14.4153 147.599 14.8047 147.925 15.3067C148.252 15.7914 148.415 16.4404 148.415 17.254V24.2381C148.415 24.8439 148.447 25.4238 148.509 25.9777C148.571 26.5316 148.68 26.947 148.835 27.2239H145.475C145.413 27.0162 145.359 26.8085 145.312 26.6008C145.281 26.3758 145.258 26.1508 145.242 25.9257C144.713 26.5316 144.091 26.9556 143.376 27.198C142.66 27.4403 141.929 27.5614 141.182 27.5614C140.607 27.5614 140.07 27.4836 139.572 27.3278C139.075 27.172 138.639 26.9297 138.266 26.6008C137.892 26.2719 137.597 25.8565 137.379 25.3545C137.177 24.8526 137.076 24.2554 137.076 23.5631C137.076 22.8015 137.192 22.1784 137.426 21.6937C137.675 21.1917 137.986 20.7936 138.359 20.4994C138.748 20.2051 139.183 19.9888 139.666 19.8503C140.163 19.6945 140.661 19.5734 141.159 19.4868C141.657 19.4003 142.147 19.331 142.629 19.2791C143.111 19.2272 143.539 19.1493 143.912 19.0454C144.285 18.9416 144.581 18.7945 144.799 18.6041C145.017 18.3964 145.118 18.1021 145.102 17.7213C145.102 17.3232 145.04 17.0116 144.915 16.7866C144.807 16.5443 144.651 16.3626 144.449 16.2414C144.262 16.1029 144.037 16.0164 143.772 15.9818C143.523 15.9298 143.251 15.9039 142.956 15.9039C142.302 15.9039 141.789 16.0596 141.416 16.3712C141.042 16.6828 140.824 17.202 140.762 17.929H137.449ZM145.102 20.6552C144.962 20.7936 144.783 20.9062 144.565 20.9927C144.363 21.0619 144.138 21.1225 143.889 21.1744C143.656 21.2264 143.407 21.2696 143.142 21.3043C142.878 21.3389 142.613 21.3821 142.349 21.4341C142.1 21.486 141.851 21.5552 141.602 21.6418C141.369 21.7283 141.159 21.8495 140.972 22.0053C140.801 22.1437 140.661 22.3255 140.552 22.5505C140.443 22.7755 140.389 23.0611 140.389 23.4073C140.389 23.7362 140.443 24.0131 140.552 24.2381C140.661 24.4631 140.809 24.6449 140.996 24.7834C141.182 24.9045 141.4 24.9911 141.649 25.043C141.898 25.0949 142.154 25.1209 142.419 25.1209C143.072 25.1209 143.578 24.9997 143.936 24.7574C144.293 24.5151 144.558 24.2295 144.729 23.9006C144.9 23.5544 145.001 23.2082 145.032 22.8621C145.079 22.5159 145.102 22.2389 145.102 22.0312V20.6552ZM154.487 13.8008V9.7765H151.174V13.8008H149.167V16.2674H151.174V24.1862C151.174 24.8612 151.275 25.4065 151.477 25.8219C151.68 26.2373 151.952 26.5575 152.294 26.7825C152.652 27.0076 153.056 27.1547 153.507 27.2239C153.974 27.3105 154.464 27.3537 154.977 27.3537C155.304 27.3537 155.638 27.3451 155.981 27.3278C156.323 27.3105 156.634 27.2758 156.914 27.2239V24.3679C156.758 24.4026 156.595 24.4285 156.424 24.4458C156.253 24.4631 156.074 24.4718 155.887 24.4718C155.327 24.4718 154.954 24.3679 154.767 24.1602C154.581 23.9525 154.487 23.5371 154.487 22.914V16.2674H156.914V13.8008H154.487ZM165.91 19.0714H160.52C160.536 18.8118 160.582 18.5175 160.66 18.1886C160.753 17.8598 160.901 17.5482 161.103 17.254C161.321 16.9597 161.601 16.7174 161.943 16.527C162.301 16.3193 162.745 16.2154 163.273 16.2154C164.082 16.2154 164.681 16.4578 165.07 16.9424C165.474 17.4271 165.754 18.1367 165.91 19.0714ZM160.52 21.4081H169.223C169.285 20.3696 169.208 19.3743 168.99 18.4223C168.772 17.4703 168.414 16.6222 167.917 15.8779C167.434 15.1336 166.812 14.5451 166.05 14.1124C165.288 13.6624 164.393 13.4373 163.367 13.4373C162.449 13.4373 161.609 13.6191 160.847 13.9826C160.1 14.3461 159.455 14.848 158.91 15.4885C158.366 16.1116 157.946 16.8559 157.65 17.7213C157.355 18.5868 157.207 19.5214 157.207 20.5254C157.207 21.5639 157.347 22.5159 157.627 23.3813C157.922 24.2468 158.335 24.9911 158.864 25.6142C159.392 26.2373 160.038 26.722 160.8 27.0681C161.562 27.397 162.418 27.5614 163.367 27.5614C164.736 27.5614 165.902 27.2153 166.867 26.5229C167.831 25.8305 168.547 24.6795 169.013 23.0698H166.097C165.988 23.4852 165.692 23.8833 165.21 24.2641C164.728 24.6276 164.152 24.8093 163.483 24.8093C162.55 24.8093 161.835 24.541 161.337 24.0045C160.839 23.4679 160.567 22.6024 160.52 21.4081ZM176.632 8.68604V27.2239H189.279V23.7967H180.295V19.2531H188.369V16.0856H180.295V12.1132H189.092V8.68604H176.632ZM199.275 20.4734C199.275 21.0273 199.229 21.5639 199.135 22.0832C199.042 22.6024 198.886 23.0698 198.669 23.4852C198.451 23.8833 198.155 24.2035 197.782 24.4458C197.424 24.6882 196.973 24.8093 196.429 24.8093C195.915 24.8093 195.472 24.6882 195.099 24.4458C194.741 24.1862 194.438 23.8573 194.189 23.4592C193.955 23.0438 193.784 22.5765 193.675 22.0572C193.567 21.5379 193.512 21.0187 193.512 20.4994C193.512 19.9455 193.559 19.4176 193.652 18.9156C193.761 18.3964 193.924 17.9377 194.142 17.5396C194.375 17.1415 194.679 16.8212 195.052 16.5789C195.425 16.3366 195.884 16.2154 196.429 16.2154C196.973 16.2154 197.424 16.3366 197.782 16.5789C198.14 16.8212 198.428 17.1415 198.645 17.5396C198.879 17.9204 199.042 18.3704 199.135 18.8897C199.229 19.3916 199.275 19.9195 199.275 20.4734ZM199.322 25.5103V27.2239H202.472V8.68604H199.159V15.4365H199.112C198.739 14.7788 198.225 14.2855 197.572 13.9566C196.934 13.6104 196.258 13.4373 195.542 13.4373C194.655 13.4373 193.878 13.6364 193.209 14.0345C192.54 14.4153 191.98 14.9259 191.529 15.5663C191.093 16.2068 190.759 16.9511 190.526 17.7992C190.308 18.63 190.199 19.4955 190.199 20.3955C190.199 21.3302 190.308 22.2303 190.526 23.0957C190.759 23.9612 191.093 24.7314 191.529 25.4065C191.98 26.0642 192.548 26.5921 193.232 26.9902C193.917 27.371 194.71 27.5614 195.612 27.5614C196.405 27.5614 197.113 27.4057 197.735 27.0941C198.373 26.7652 198.886 26.2373 199.275 25.5103H199.322ZM215.593 27.2239V13.8008H212.279V20.8369C212.279 22.2043 212.077 23.1909 211.673 23.7967C211.268 24.3852 210.615 24.6795 209.713 24.6795C208.92 24.6795 208.367 24.4112 208.056 23.8746C207.745 23.3207 207.59 22.4899 207.59 21.3821V13.8008H204.276V22.0572C204.276 22.888 204.339 23.6496 204.463 24.342C204.603 25.017 204.836 25.5969 205.163 26.0815C205.49 26.5489 205.933 26.9124 206.493 27.172C207.068 27.4316 207.8 27.5614 208.686 27.5614C209.386 27.5614 210.071 27.3883 210.739 27.0422C211.408 26.696 211.953 26.1335 212.373 25.3545H212.443V27.2239H215.593ZM225.621 18.5262H228.864C228.817 17.6607 228.63 16.9164 228.304 16.2933C227.977 15.6529 227.549 15.125 227.02 14.7095C226.507 14.2768 225.916 13.9566 225.247 13.7489C224.594 13.5412 223.909 13.4373 223.194 13.4373C222.214 13.4373 221.343 13.6191 220.581 13.9826C219.818 14.3461 219.173 14.8567 218.644 15.5144C218.115 16.1548 217.711 16.9251 217.431 17.8252C217.166 18.7079 217.034 19.6686 217.034 20.7071C217.034 21.711 217.182 22.637 217.477 23.4852C217.773 24.316 218.185 25.0343 218.714 25.6401C219.243 26.246 219.881 26.722 220.627 27.0681C221.39 27.397 222.222 27.5614 223.124 27.5614C224.726 27.5614 226.04 27.0941 227.067 26.1594C228.094 25.2247 228.716 23.866 228.934 22.0832H225.737C225.628 22.914 225.356 23.5804 224.921 24.0823C224.501 24.567 223.894 24.8093 223.101 24.8093C222.587 24.8093 222.152 24.6795 221.794 24.4199C221.436 24.1602 221.148 23.8314 220.931 23.4333C220.728 23.0178 220.581 22.5592 220.487 22.0572C220.394 21.5552 220.347 21.0619 220.347 20.5773C220.347 20.0753 220.394 19.5734 220.487 19.0714C220.581 18.5521 220.736 18.0848 220.954 17.6694C221.187 17.2367 221.483 16.8905 221.841 16.6308C222.198 16.3539 222.642 16.2154 223.171 16.2154C224.586 16.2154 225.403 16.9857 225.621 18.5262ZM229.965 17.929C230.012 17.0636 230.206 16.3452 230.549 15.7741C230.891 15.2029 231.326 14.7442 231.855 14.398C232.384 14.0518 232.975 13.8095 233.629 13.671C234.298 13.5152 234.966 13.4373 235.635 13.4373C236.242 13.4373 236.856 13.4893 237.479 13.5931C238.101 13.6797 238.669 13.8614 239.182 14.1384C239.695 14.4153 240.115 14.8047 240.442 15.3067C240.768 15.7914 240.932 16.4404 240.932 17.254V24.2381C240.932 24.8439 240.963 25.4238 241.025 25.9777C241.087 26.5316 241.196 26.947 241.352 27.2239H237.992C237.93 27.0162 237.875 26.8085 237.829 26.6008C237.797 26.3758 237.774 26.1508 237.759 25.9257C237.23 26.5316 236.607 26.9556 235.892 27.198C235.176 27.4403 234.445 27.5614 233.699 27.5614C233.123 27.5614 232.586 27.4836 232.089 27.3278C231.591 27.172 231.155 26.9297 230.782 26.6008C230.409 26.2719 230.113 25.8565 229.895 25.3545C229.693 24.8526 229.592 24.2554 229.592 23.5631C229.592 22.8015 229.709 22.1784 229.942 21.6937C230.191 21.1917 230.502 20.7936 230.875 20.4994C231.264 20.2051 231.7 19.9888 232.182 19.8503C232.68 19.6945 233.178 19.5734 233.675 19.4868C234.173 19.4003 234.663 19.331 235.145 19.2791C235.627 19.2272 236.055 19.1493 236.429 19.0454C236.802 18.9416 237.097 18.7945 237.315 18.6041C237.533 18.3964 237.634 18.1021 237.619 17.7213C237.619 17.3232 237.556 17.0116 237.432 16.7866C237.323 16.5443 237.167 16.3626 236.965 16.2414C236.779 16.1029 236.553 16.0164 236.289 15.9818C236.04 15.9298 235.767 15.9039 235.472 15.9039C234.819 15.9039 234.305 16.0596 233.932 16.3712C233.559 16.6828 233.341 17.202 233.279 17.929H229.965ZM237.619 20.6552C237.479 20.7936 237.3 20.9062 237.082 20.9927C236.88 21.0619 236.654 21.1225 236.405 21.1744C236.172 21.2264 235.923 21.2696 235.659 21.3043C235.394 21.3389 235.13 21.3821 234.865 21.4341C234.616 21.486 234.368 21.5552 234.119 21.6418C233.885 21.7283 233.675 21.8495 233.489 22.0053C233.318 22.1437 233.178 22.3255 233.069 22.5505C232.96 22.7755 232.905 23.0611 232.905 23.4073C232.905 23.7362 232.96 24.0131 233.069 24.2381C233.178 24.4631 233.325 24.6449 233.512 24.7834C233.699 24.9045 233.916 24.9911 234.165 25.043C234.414 25.0949 234.671 25.1209 234.935 25.1209C235.589 25.1209 236.094 24.9997 236.452 24.7574C236.81 24.5151 237.074 24.2295 237.245 23.9006C237.416 23.5544 237.517 23.2082 237.549 22.8621C237.595 22.5159 237.619 22.2389 237.619 22.0312V20.6552ZM247.003 13.8008V9.7765H243.69V13.8008H241.683V16.2674H243.69V24.1862C243.69 24.8612 243.791 25.4065 243.993 25.8219C244.196 26.2373 244.468 26.5575 244.81 26.7825C245.168 27.0076 245.572 27.1547 246.023 27.2239C246.49 27.3105 246.98 27.3537 247.493 27.3537C247.82 27.3537 248.154 27.3451 248.497 27.3278C248.839 27.3105 249.15 27.2758 249.43 27.2239V24.3679C249.274 24.4026 249.111 24.4285 248.94 24.4458C248.769 24.4631 248.59 24.4718 248.403 24.4718C247.843 24.4718 247.47 24.3679 247.283 24.1602C247.097 23.9525 247.003 23.5371 247.003 22.914V16.2674H249.43V13.8008H247.003ZM253.713 11.7238V8.68604H250.4V11.7238H253.713ZM250.4 13.8008V27.2239H253.713V13.8008H250.4ZM258.562 20.5254C258.562 19.9888 258.609 19.4609 258.702 18.9416C258.795 18.4223 258.951 17.9636 259.169 17.5655C259.402 17.1674 259.705 16.8472 260.079 16.6049C260.452 16.3452 260.919 16.2154 261.479 16.2154C262.039 16.2154 262.505 16.3452 262.879 16.6049C263.268 16.8472 263.571 17.1674 263.789 17.5655C264.022 17.9636 264.185 18.4223 264.279 18.9416C264.372 19.4609 264.419 19.9888 264.419 20.5254C264.419 21.0619 264.372 21.5899 264.279 22.1091C264.185 22.6111 264.022 23.0698 263.789 23.4852C263.571 23.8833 263.268 24.2035 262.879 24.4458C262.505 24.6882 262.039 24.8093 261.479 24.8093C260.919 24.8093 260.452 24.6882 260.079 24.4458C259.705 24.2035 259.402 23.8833 259.169 23.4852C258.951 23.0698 258.795 22.6111 258.702 22.1091C258.609 21.5899 258.562 21.0619 258.562 20.5254ZM255.249 20.5254C255.249 21.5985 255.397 22.5678 255.692 23.4333C255.988 24.2987 256.408 25.043 256.952 25.6661C257.497 26.2719 258.15 26.7393 258.912 27.0681C259.674 27.397 260.53 27.5614 261.479 27.5614C262.428 27.5614 263.283 27.397 264.045 27.0681C264.823 26.7393 265.484 26.2719 266.029 25.6661C266.573 25.043 266.993 24.2987 267.289 23.4333C267.584 22.5678 267.732 21.5985 267.732 20.5254C267.732 19.4522 267.584 18.4829 267.289 17.6175C266.993 16.7347 266.573 15.9904 266.029 15.3846C265.484 14.7615 264.823 14.2855 264.045 13.9566C263.283 13.6104 262.428 13.4373 261.479 13.4373C260.53 13.4373 259.674 13.6104 258.912 13.9566C258.15 14.2855 257.497 14.7615 256.952 15.3846C256.408 15.9904 255.988 16.7347 255.692 17.6175C255.397 18.4829 255.249 19.4522 255.249 20.5254ZM269.186 13.8008V27.2239H272.499V20.1878C272.499 18.8204 272.701 17.8425 273.106 17.254C273.51 16.6481 274.164 16.3452 275.066 16.3452C275.859 16.3452 276.411 16.6222 276.722 17.1761C277.034 17.7127 277.189 18.5348 277.189 19.6426V27.2239H280.502V18.9675C280.502 18.1367 280.432 17.3838 280.292 16.7087C280.168 16.0164 279.942 15.4365 279.616 14.9692C279.289 14.4845 278.838 14.1124 278.262 13.8528C277.702 13.5758 276.979 13.4373 276.092 13.4373C275.392 13.4373 274.708 13.6191 274.039 13.9826C273.37 14.3288 272.826 14.8913 272.406 15.6702H272.336V13.8008H269.186Z" fill="#465068"/>
<path d="M62.6508 32.9274C68.9512 31.7548 72.5282 23.9084 70.6403 15.402C68.7524 6.89563 62.1145 0.95039 55.8141 2.12296C49.5137 3.29554 45.9367 11.1419 47.8246 19.6483C49.7125 28.1547 56.3504 34.0999 62.6508 32.9274Z" fill="#465068"/>
<path d="M44.6138 30.4707C48.4829 29.1773 48.8425 22.3689 45.417 15.2638C41.9914 8.15865 36.0779 3.44728 32.2088 4.74065C28.3397 6.03403 27.9801 12.8424 31.4056 19.9475C34.8312 27.0527 40.7447 31.7641 44.6138 30.4707Z" fill="#465068"/>
<path d="M32.2371 27.4738C34.1849 26.4548 31.9584 21.1531 27.2641 15.6321C22.5698 10.111 17.1854 6.46131 15.2376 7.48025C13.2899 8.49918 15.5164 13.8009 20.2107 19.322C24.9049 24.843 30.2894 28.4927 32.2371 27.4738Z" fill="#465068"/>
<path d="M20.9761 22.4677C21.6743 21.6908 17.8276 18.8862 12.3843 16.2034C6.94094 13.5207 1.96229 11.9757 1.26413 12.7525C0.565969 13.5294 4.41269 16.334 9.85601 19.0167C15.2993 21.6995 20.278 23.2445 20.9761 22.4677Z" fill="#465068"/>
</svg>
