<svg width="31" height="38" viewBox="0 0 31 38" fill="none" xmlns="http://www.w3.org/2000/svg">
<path fill-rule="evenodd" clip-rule="evenodd" d="M11.5272 0.03125C10.5232 0.03125 9.56029 0.530467 8.85034 1.41908C8.14038 2.30769 7.74153 3.51291 7.74153 4.76959V8.15412H5.03746C3.88999 8.15412 2.78953 8.72466 1.97815 9.74021C1.16677 10.7558 0.710938 12.1332 0.710938 13.5694V32.5227C0.710938 33.959 1.16677 35.3363 1.97815 36.3519C2.78953 37.3675 3.88999 37.938 5.03746 37.938H26.67C27.8175 37.938 28.918 37.3675 29.7294 36.3519C30.5407 35.3363 30.9966 33.959 30.9966 32.5227V13.5694C30.9966 12.1332 30.5407 10.7558 29.7294 9.74021C28.918 8.72466 27.8175 8.15412 26.67 8.15412H23.966V4.76959C23.966 3.51291 23.5671 2.30769 22.8572 1.41908C22.1472 0.530467 21.1843 0.03125 20.1803 0.03125H11.5272ZM20.7211 8.15412V4.76959C20.7211 4.59007 20.6641 4.41789 20.5627 4.29095C20.4613 4.164 20.3237 4.09269 20.1803 4.09269H11.5272C11.3838 4.09269 11.2462 4.164 11.1448 4.29095C11.0434 4.41789 10.9864 4.59007 10.9864 4.76959V8.15412H20.7211ZM5.03746 12.2156H26.67C26.9569 12.2156 27.232 12.3582 27.4349 12.6121C27.6377 12.866 27.7517 13.2103 27.7517 13.5694V16.277H3.95583V13.5694C3.95583 13.2103 4.06978 12.866 4.27263 12.6121C4.47547 12.3582 4.75059 12.2156 5.03746 12.2156ZM3.95583 20.3384V32.5227C3.95583 32.8818 4.06978 33.2261 4.27263 33.48C4.47547 33.7339 4.75059 33.8766 5.03746 33.8766H26.67C26.9569 33.8766 27.232 33.7339 27.4349 33.48C27.6377 33.2261 27.7517 32.8818 27.7517 32.5227V20.3384H18.017V24.3999H13.6905V20.3384H3.95583Z" fill="white"/>
</svg>
