<svg width="42" height="45" viewBox="0 0 42 45" fill="none" xmlns="http://www.w3.org/2000/svg">
<path d="M21 0C32.5983 0 42 9.17785 42 20.5C42 31.8221 32.5983 41 21 41C9.4017 41 0 31.8221 0 20.5C0 9.17785 9.4017 0 21 0ZM21 28.7C20.443 28.7 19.9089 28.916 19.5151 29.3004C19.1212 29.6849 18.9 30.2063 18.9 30.75C18.9 31.2937 19.1212 31.8151 19.5151 32.1996C19.9089 32.584 20.443 32.8 21 32.8C21.557 32.8 22.0911 32.584 22.4849 32.1996C22.8787 31.8151 23.1 31.2937 23.1 30.75C23.1 30.2063 22.8787 29.6849 22.4849 29.3004C22.0911 28.916 21.557 28.7 21 28.7ZM21 9.225C18.981 9.225 17.0448 10.0079 15.6171 11.4016C14.1895 12.7952 13.3875 14.6854 13.3875 16.6562C13.3875 17.1999 13.6087 17.7214 14.0026 18.1058C14.3964 18.4903 14.9305 18.7062 15.4875 18.7062C16.0445 18.7062 16.5786 18.4903 16.9724 18.1058C17.3662 17.7214 17.5875 17.1999 17.5875 16.6562C17.5882 16.0516 17.7575 15.4585 18.0772 14.9406C18.3969 14.4227 18.855 13.9995 19.4023 13.7164C19.9497 13.4333 20.5656 13.301 21.1841 13.3336C21.8027 13.3662 22.4004 13.5626 22.9133 13.9016C23.4262 14.2406 23.8349 14.7096 24.0956 15.2581C24.3563 15.8066 24.4591 16.4141 24.393 17.0153C24.327 17.6165 24.0945 18.1888 23.7206 18.6709C23.3467 19.153 22.8454 19.5266 22.2705 19.7518C20.8509 20.3053 18.9 21.7239 18.9 24.0875V24.6C18.9 25.1437 19.1212 25.6651 19.5151 26.0496C19.9089 26.434 20.443 26.65 21 26.65C21.557 26.65 22.0911 26.434 22.4849 26.0496C22.8787 25.6651 23.1 25.1437 23.1 24.6C23.1 24.0998 23.205 23.8497 23.6481 23.6365L23.8308 23.5545C25.4705 22.9106 26.8297 21.7299 27.6753 20.2149C28.521 18.6999 28.8004 16.9449 28.4658 15.2507C28.1311 13.5566 27.2031 12.0289 25.841 10.9295C24.4789 9.83012 22.7674 9.22751 21 9.225Z" fill="white"/>
</svg>
