<svg width="51" height="51" viewBox="0 0 51 51" fill="none" xmlns="http://www.w3.org/2000/svg">
<path d="M25.7148 4.87744C37.2211 4.87744 46.5482 14.2045 46.5482 25.7108C46.5482 37.217 37.2211 46.5441 25.7148 46.5441C14.2086 46.5441 4.88152 37.217 4.88152 25.7108C4.88152 14.2045 14.2086 4.87744 25.7148 4.87744ZM25.7148 34.0441C25.1623 34.0441 24.6324 34.2636 24.2417 34.6543C23.851 35.045 23.6315 35.5749 23.6315 36.1274C23.6315 36.68 23.851 37.2099 24.2417 37.6006C24.6324 37.9913 25.1623 38.2108 25.7148 38.2108C26.2674 38.2108 26.7973 37.9913 27.188 37.6006C27.5787 37.2099 27.7982 36.68 27.7982 36.1274C27.7982 35.5749 27.5787 35.045 27.188 34.6543C26.7973 34.2636 26.2674 34.0441 25.7148 34.0441ZM25.7148 14.2524C23.7119 14.2524 21.791 15.0481 20.3747 16.4644C18.9584 17.8807 18.1628 19.8016 18.1628 21.8045C18.1628 22.3571 18.3823 22.887 18.773 23.2777C19.1637 23.6684 19.6936 23.8879 20.2461 23.8879C20.7986 23.8879 21.3285 23.6684 21.7192 23.2777C22.1099 22.887 22.3294 22.3571 22.3294 21.8045C22.3301 21.19 22.4981 20.5873 22.8152 20.061C23.1324 19.5346 23.5869 19.1046 24.1299 18.8169C24.6729 18.5292 25.2839 18.3947 25.8975 18.4278C26.5111 18.461 27.1042 18.6605 27.613 19.0051C28.1218 19.3496 28.5273 19.8262 28.7859 20.3836C29.0445 20.9411 29.1465 21.5584 29.0809 22.1694C29.0154 22.7804 28.7848 23.362 28.4138 23.8519C28.0429 24.3419 27.5456 24.7216 26.9753 24.9504C25.5669 25.5129 23.6315 26.9545 23.6315 29.3566V29.8774C23.6315 30.43 23.851 30.9599 24.2417 31.3506C24.6324 31.7413 25.1623 31.9608 25.7148 31.9608C26.2674 31.9608 26.7973 31.7413 27.188 31.3506C27.5787 30.9599 27.7982 30.43 27.7982 29.8774C27.7982 29.3691 27.9023 29.1149 28.3419 28.8983L28.5232 28.8149C30.1499 28.1605 31.4983 26.9607 32.3372 25.421C33.1761 23.8814 33.4534 22.0978 33.1214 20.3762C32.7893 18.6545 31.8688 17.1019 30.5174 15.9847C29.1661 14.8674 27.4682 14.255 25.7148 14.2524Z" fill="white"/>
</svg>
