<svg width="39" height="32" viewBox="0 0 39 32" fill="none" xmlns="http://www.w3.org/2000/svg">
<path d="M20.0241 3.85742H8.00838C7.32551 3.85742 6.6706 4.11682 6.18773 4.57857C5.70487 5.04031 5.43359 5.66656 5.43359 6.31956V23.5545H32.898V16.9888" stroke="white" stroke-width="3.43305" stroke-linecap="round" stroke-linejoin="round"/>
<path d="M2 23.5547H36.3305V25.1961C36.3305 26.5021 35.788 27.7546 34.8222 28.6781C33.8565 29.6016 32.5467 30.1204 31.1809 30.1204H7.14958C5.78383 30.1204 4.47401 29.6016 3.50828 28.6781C2.54254 27.7546 2 26.5021 2 25.1961V23.5547Z" stroke="white" stroke-width="3.43305" stroke-linejoin="round"/>
<path d="M25.1729 7.96081L29.4642 12.0644M29.4642 12.0644L33.7555 7.96081M29.4642 12.0644V2.21582" stroke="white" stroke-width="3.43305" stroke-linecap="round" stroke-linejoin="round"/>
</svg>
