<svg width="34" height="28" viewBox="0 0 34 28" fill="none" xmlns="http://www.w3.org/2000/svg">
<path d="M26.5285 3.22073C26.5285 3.22073 29.2111 2.13859 28.9867 4.76643C28.9128 5.84857 28.2423 9.63641 27.7203 13.7328L25.932 25.8685C25.932 25.8685 25.7828 27.6463 24.4412 27.9556C23.1003 28.2642 21.0882 26.8735 20.7154 26.5642C20.4171 26.3321 15.1266 22.8535 13.2637 21.1535C12.7417 20.6892 12.1451 19.7621 13.3383 18.6799L21.1628 10.95C22.057 10.0214 22.9512 7.85713 19.2253 10.4857L8.79212 17.8285C8.79212 17.8285 7.59966 18.6021 5.36456 17.9064L0.520137 16.36C0.520137 16.36 -1.26821 15.2007 1.78717 14.0414C9.23955 10.4086 18.4064 6.69928 26.5285 3.22073Z" fill="white"/>
</svg>
