<svg width="18" height="18" viewBox="0 0 18 18" fill="none" xmlns="http://www.w3.org/2000/svg">
<path d="M2.78567 16L2 15.2143L8.21433 9L2 2.78567L2.78567 2L9 8.21433L15.2143 2L16 2.78567L9.78567 9L16 15.2143L15.2143 16L9 9.78567L2.78567 16Z" fill="#465068"/>
<path d="M17.4141 2.78613L11.2002 9L17.4141 15.2139L15.2139 17.4141L9 11.2002L2.78613 17.4141L0.585938 15.2139L6.7998 9L0.585938 2.78613L2.78613 0.585938L9 6.7998L15.2139 0.585938L17.4141 2.78613ZM9 8.21387L2.78613 2L2 2.78613L8.21387 9L2 15.2139L2.78613 16L9 9.78613L15.2139 16L16 15.2139L9.78613 9L16 2.78613L15.2139 2L9 8.21387Z" fill="#465068"/>
</svg>
